<svg xmlns="http://www.w3.org/2000/svg" width="375" viewBox="0 0 375 375" height="375" version="1.0"><defs><clipPath id="a"><path d="M 171 193 L 213 193 L 213 215.527344 L 171 215.527344 Z M 171 193"/></clipPath><clipPath id="b"><path d="M 161 173 L 185 173 L 185 215.527344 L 161 215.527344 Z M 161 173"/></clipPath><clipPath id="c"><path d="M 152.109375 138.277344 L 222.609375 138.277344 L 222.609375 215.527344 L 152.109375 215.527344 Z M 152.109375 138.277344"/></clipPath><clipPath id="d"><path d="M 207 172 L 213.351562 172 L 213.351562 176 L 207 176 Z M 207 172"/></clipPath><clipPath id="e"><path d="M 207 168 L 213.351562 168 L 213.351562 172 L 207 172 Z M 207 168"/></clipPath><clipPath id="f"><path d="M 196 158.304688 L 198 158.304688 L 198 165 L 196 165 Z M 196 158.304688"/></clipPath><clipPath id="g"><path d="M 202 158.304688 L 204 158.304688 L 204 165 L 202 165 Z M 202 158.304688"/></clipPath><clipPath id="h"><path d="M 186.351562 168 L 192 168 L 192 172 L 186.351562 172 Z M 186.351562 168"/></clipPath><clipPath id="i"><path d="M 186.351562 172 L 192 172 L 192 176 L 186.351562 176 Z M 186.351562 172"/></clipPath><clipPath id="j"><path d="M 202 178 L 204 178 L 204 185.304688 L 202 185.304688 Z M 202 178"/></clipPath><clipPath id="k"><path d="M 196 178 L 198 178 L 198 185.304688 L 196 185.304688 Z M 196 178"/></clipPath></defs><path fill="#FFF" d="M-37.5 -37.5H412.5V412.5H-37.5z"/><path fill="#FFF" d="M-37.5 -37.5H412.5V412.5H-37.5z"/><path fill="#341632" d="M-37.5 -37.5H412.5V412.5H-37.5z"/><g clip-path="url(#a)"><path fill="#8193F2" d="M 212.847656 215.527344 L 171.429688 215.527344 L 171.429688 193.128906 L 212.847656 193.128906 Z M 174.613281 212.328125 L 209.664062 212.328125 L 209.664062 196.328125 L 174.613281 196.328125 Z M 174.613281 212.328125"/></g><g clip-path="url(#b)"><path fill="#6A81FA" d="M 184.171875 215.527344 L 161.867188 215.527344 L 161.867188 173.933594 L 184.171875 173.933594 Z M 165.054688 212.328125 L 180.988281 212.328125 L 180.988281 177.132812 L 165.054688 177.132812 Z M 165.054688 212.328125"/></g><g clip-path="url(#c)"><path fill="#506CFF" d="M 222.40625 215.527344 L 152.308594 215.527344 L 152.308594 166.765625 L 187.359375 138.277344 L 222.40625 166.765625 Z M 155.496094 212.328125 L 219.222656 212.328125 L 219.222656 168.285156 L 187.359375 142.386719 L 155.496094 168.285156 Z M 155.496094 212.328125"/></g><path fill="#FFC700" d="M 205.355469 172.03125 L 205.355469 174.984375 L 206.171875 175.453125 L 207.910156 175.453125 L 207.910156 173.644531 Z M 205.355469 172.03125"/><g clip-path="url(#d)"><path fill="#FFC700" d="M 207.910156 173.644531 L 210.78125 175.453125 L 213.332031 175.453125 L 207.910156 172.03125 Z M 207.910156 173.644531"/></g><path fill="#FF9100" d="M 207.910156 175.453125 L 210.78125 175.453125 L 207.910156 173.644531 Z M 207.910156 175.453125"/><path fill="#FFC700" d="M 202.800781 176.457031 L 205.472656 177.863281 L 207.042969 176.957031 L 206.171875 175.453125 L 205.355469 174.984375 Z M 202.800781 176.457031"/><path fill="#FFC700" d="M 204.078125 178.671875 L 209.753906 181.65625 L 208.476562 179.445312 L 205.472656 177.863281 Z M 204.078125 178.671875"/><path fill="#FF9100" d="M 208.476562 179.445312 L 207.042969 176.957031 L 205.472656 177.863281 Z M 208.476562 179.445312"/><path fill="#FFC700" d="M 202.800781 167.152344 L 205.355469 168.628906 L 206.171875 168.15625 L 207.042969 166.652344 L 205.472656 165.746094 Z M 202.800781 167.152344"/><path fill="#FFC700" d="M 208.476562 164.167969 L 209.753906 161.953125 L 204.078125 164.941406 L 205.472656 165.746094 Z M 208.476562 164.167969"/><path fill="#FF9100" d="M 207.042969 166.652344 L 208.476562 164.167969 L 205.472656 165.746094 Z M 207.042969 166.652344"/><path fill="#FFC700" d="M 205.355469 171.578125 L 207.910156 169.964844 L 207.910156 168.15625 L 206.171875 168.15625 L 205.355469 168.628906 Z M 205.355469 171.578125"/><g clip-path="url(#e)"><path fill="#FFC700" d="M 207.910156 171.578125 L 213.332031 168.15625 L 210.78125 168.15625 L 207.910156 169.964844 Z M 207.910156 171.578125"/></g><path fill="#FF9100" d="M 210.78125 168.15625 L 207.910156 168.15625 L 207.910156 169.964844 Z M 210.78125 168.15625"/><path fill="#FFC700" d="M 197.296875 166.925781 L 199.851562 165.449219 L 199.851562 164.503906 L 198.984375 163 L 197.414062 163.90625 Z M 197.296875 166.925781"/><g clip-path="url(#f)"><path fill="#FFC700" d="M 197.550781 160.515625 L 196.273438 158.304688 L 196.019531 164.714844 L 197.414062 163.90625 Z M 197.550781 160.515625"/></g><path fill="#FF9100" d="M 198.984375 163 L 197.550781 160.515625 L 197.414062 163.90625 Z M 198.984375 163"/><path fill="#FFC700" d="M 202.410156 166.925781 L 202.289062 163.90625 L 200.71875 163 L 199.851562 164.503906 L 199.851562 165.449219 Z M 202.410156 166.925781"/><g clip-path="url(#g)"><path fill="#FFC700" d="M 203.6875 164.714844 L 203.433594 158.304688 L 202.15625 160.515625 L 202.289062 163.90625 Z M 203.6875 164.714844"/></g><path fill="#FF9100" d="M 202.15625 160.515625 L 200.71875 163 L 202.289062 163.90625 Z M 202.15625 160.515625"/><path fill="#FFC700" d="M 194.347656 171.578125 L 194.347656 168.628906 L 193.53125 168.15625 L 191.792969 168.15625 L 191.792969 169.964844 Z M 194.347656 171.578125"/><g clip-path="url(#h)"><path fill="#FFC700" d="M 191.792969 169.964844 L 188.925781 168.15625 L 186.371094 168.15625 L 191.792969 171.578125 Z M 191.792969 169.964844"/></g><path fill="#FF9100" d="M 191.792969 168.15625 L 188.925781 168.15625 L 191.792969 169.964844 Z M 191.792969 168.15625"/><path fill="#FFC700" d="M 196.90625 167.152344 L 194.230469 165.746094 L 192.664062 166.652344 L 193.53125 168.15625 L 194.347656 168.628906 Z M 196.90625 167.152344"/><path fill="#FFC700" d="M 195.628906 164.941406 L 189.949219 161.953125 L 191.226562 164.167969 L 194.230469 165.746094 Z M 195.628906 164.941406"/><path fill="#FF9100" d="M 191.226562 164.167969 L 192.664062 166.652344 L 194.230469 165.746094 Z M 191.226562 164.167969"/><path fill="#FFC700" d="M 196.90625 176.457031 L 194.347656 174.984375 L 193.53125 175.453125 L 192.664062 176.957031 L 194.230469 177.863281 Z M 196.90625 176.457031"/><path fill="#FFC700" d="M 191.226562 179.445312 L 189.949219 181.65625 L 195.628906 178.671875 L 194.230469 177.863281 Z M 191.226562 179.445312"/><path fill="#FF9100" d="M 192.664062 176.957031 L 191.226562 179.445312 L 194.230469 177.863281 Z M 192.664062 176.957031"/><path fill="#FFC700" d="M 194.347656 172.03125 L 191.792969 173.644531 L 191.792969 175.453125 L 193.53125 175.453125 L 194.347656 174.984375 Z M 194.347656 172.03125"/><g clip-path="url(#i)"><path fill="#FFC700" d="M 191.792969 172.03125 L 186.371094 175.453125 L 188.925781 175.453125 L 191.792969 173.644531 Z M 191.792969 172.03125"/></g><path fill="#FF9100" d="M 188.925781 175.453125 L 191.792969 175.453125 L 191.792969 173.644531 Z M 188.925781 175.453125"/><path fill="#FFC700" d="M 202.410156 176.683594 L 199.851562 178.160156 L 199.851562 179.105469 L 200.71875 180.609375 L 202.289062 179.703125 Z M 202.410156 176.683594"/><g clip-path="url(#j)"><path fill="#FFC700" d="M 202.15625 183.09375 L 203.433594 185.304688 L 203.6875 178.898438 L 202.289062 179.703125 Z M 202.15625 183.09375"/></g><path fill="#FF9100" d="M 200.71875 180.609375 L 202.15625 183.09375 L 202.289062 179.703125 Z M 200.71875 180.609375"/><path fill="#FFC700" d="M 197.296875 176.683594 L 197.414062 179.703125 L 198.984375 180.609375 L 199.851562 179.105469 L 199.851562 178.160156 Z M 197.296875 176.683594"/><g clip-path="url(#k)"><path fill="#FFC700" d="M 196.019531 178.898438 L 196.273438 185.304688 L 197.550781 183.09375 L 197.414062 179.703125 Z M 196.019531 178.898438"/></g><path fill="#FF9100" d="M 197.550781 183.09375 L 198.984375 180.609375 L 197.414062 179.703125 Z M 197.550781 183.09375"/><g fill="#FFF1E3"><g><g><path d="M 2.53125 -8.703125 L 2.53125 0 L 0.90625 0 L 0.90625 -8.703125 Z M 2.53125 -8.703125" transform="translate(103.468 227.021)"/></g></g></g><g fill="#FFF1E3"><g><g><path d="M 0.90625 0 L 0.90625 -8.703125 L 2.53125 -8.703125 L 7.125 -2.359375 L 7.125 -8.703125 L 8.671875 -8.703125 L 8.671875 0 L 7.0625 0 L 2.46875 -6.484375 L 2.46875 0 Z M 0.90625 0" transform="translate(107.69 227.021)"/></g></g></g><g fill="#FFF1E3"><g><g><path d="M 6.609375 -8.703125 L 6.609375 -7.3125 L 4.109375 -7.3125 L 4.109375 0 L 2.5 0 L 2.5 -7.3125 L 0 -7.3125 L 0 -8.703125 Z M 6.609375 -8.703125" transform="translate(118.056 227.021)"/></g></g></g><g fill="#FFF1E3"><g><g><path d="M 6.875 -8.703125 L 6.875 -7.3125 L 2.515625 -7.3125 L 2.515625 -5.125 L 6.671875 -5.125 L 6.671875 -3.6875 L 2.5 -3.6875 L 2.5 -1.40625 L 6.953125 -1.40625 L 6.953125 0 L 0.90625 0 L 0.90625 -8.703125 Z M 6.875 -8.703125" transform="translate(125.44 227.021)"/></g></g></g><g fill="#FFF1E3"><g><g><path d="M 0.90625 -0.015625 L 0.90625 -8.703125 L 4.875 -8.703125 C 6.644531 -8.703125 7.53125 -7.925781 7.53125 -6.375 C 7.53125 -5.320312 6.84375 -4.453125 5.46875 -3.765625 L 8.21875 0 L 6.1875 0 L 3.53125 -3.796875 L 3.53125 -4.53125 C 5.070312 -4.789062 5.84375 -5.390625 5.84375 -6.328125 C 5.84375 -6.960938 5.484375 -7.28125 4.765625 -7.28125 L 2.5625 -7.28125 L 2.5625 -0.015625 Z M 0.90625 -0.015625" transform="translate(133.757 227.021)"/></g></g></g><g fill="#FFF1E3"><g><g><path d="M 6.625 -8.703125 L 6.625 -7.3125 L 2.515625 -7.3125 L 2.515625 -5.125 L 6.421875 -5.125 L 6.421875 -3.6875 L 2.5 -3.6875 L 2.5 0 L 0.90625 0 L 0.90625 -8.703125 Z M 6.625 -8.703125" transform="translate(142.602 227.021)"/></g></g></g><g fill="#FFF1E3"><g><g><path d="M 1.8125 0 L 0.15625 0 L 3.84375 -8.703125 L 5.578125 -8.703125 L 9.359375 0 L 7.625 0 L 6.625 -2.375 L 3.734375 -2.375 L 4.296875 -3.78125 L 6.046875 -3.78125 L 4.671875 -7.046875 Z M 1.8125 0" transform="translate(150.467 227.021)"/></g></g></g><g fill="#FFF1E3"><g><g><path d="M 7.859375 -0.359375 C 7.109375 -0.078125 6.253906 0.0625 5.296875 0.0625 C 2.171875 0.0625 0.609375 -1.445312 0.609375 -4.46875 C 0.609375 -7.332031 2.171875 -8.765625 5.296875 -8.765625 C 6.253906 -8.765625 7.109375 -8.625 7.859375 -8.34375 L 7.859375 -6.875 C 7.109375 -7.195312 6.296875 -7.359375 5.421875 -7.359375 C 3.328125 -7.359375 2.28125 -6.394531 2.28125 -4.46875 C 2.28125 -2.382812 3.328125 -1.34375 5.421875 -1.34375 C 6.296875 -1.34375 7.109375 -1.503906 7.859375 -1.828125 Z M 7.859375 -0.359375" transform="translate(160.754 227.021)"/></g></g></g><g fill="#FFF1E3"><g><g><path d="M 6.875 -8.703125 L 6.875 -7.3125 L 2.515625 -7.3125 L 2.515625 -5.125 L 6.671875 -5.125 L 6.671875 -3.6875 L 2.5 -3.6875 L 2.5 -1.40625 L 6.953125 -1.40625 L 6.953125 0 L 0.90625 0 L 0.90625 -8.703125 Z M 6.875 -8.703125" transform="translate(169.994 227.021)"/></g></g></g><g fill="#FFF1E3"><g><g><path d="M 4.328125 -1.40625 C 6.128906 -1.40625 7.03125 -2.46875 7.03125 -4.59375 C 7.03125 -6.40625 6.128906 -7.3125 4.328125 -7.3125 L 2.53125 -7.3125 L 2.53125 -1.40625 Z M 0.90625 0 L 0.90625 -8.703125 L 4.328125 -8.703125 C 7.203125 -8.703125 8.640625 -7.332031 8.640625 -4.59375 C 8.640625 -1.53125 7.203125 0 4.328125 0 Z M 0.90625 0" transform="translate(178.31 227.021)"/></g></g></g><g fill="#FFF1E3"><g><g><path d="M 6.875 -8.703125 L 6.875 -7.3125 L 2.515625 -7.3125 L 2.515625 -5.125 L 6.671875 -5.125 L 6.671875 -3.6875 L 2.5 -3.6875 L 2.5 -1.40625 L 6.953125 -1.40625 L 6.953125 0 L 0.90625 0 L 0.90625 -8.703125 Z M 6.875 -8.703125" transform="translate(191.712 227.021)"/></g></g></g><g fill="#FFF1E3"><g><g><path d="M 2.53125 -8.703125 L 2.53125 -1.40625 L 5.984375 -1.40625 L 5.984375 0 L 0.90625 0 L 0.90625 -8.703125 Z M 2.53125 -8.703125" transform="translate(200.028 227.021)"/></g></g></g><g fill="#FFF1E3"><g><g><path d="M 6.875 -8.703125 L 6.875 -7.3125 L 2.515625 -7.3125 L 2.515625 -5.125 L 6.671875 -5.125 L 6.671875 -3.6875 L 2.5 -3.6875 L 2.5 -1.40625 L 6.953125 -1.40625 L 6.953125 0 L 0.90625 0 L 0.90625 -8.703125 Z M 6.875 -8.703125" transform="translate(207.4 227.021)"/></g></g></g><g fill="#FFF1E3"><g><g><path d="M 7.859375 -0.359375 C 7.109375 -0.078125 6.253906 0.0625 5.296875 0.0625 C 2.171875 0.0625 0.609375 -1.445312 0.609375 -4.46875 C 0.609375 -7.332031 2.171875 -8.765625 5.296875 -8.765625 C 6.253906 -8.765625 7.109375 -8.625 7.859375 -8.34375 L 7.859375 -6.875 C 7.109375 -7.195312 6.296875 -7.359375 5.421875 -7.359375 C 3.328125 -7.359375 2.28125 -6.394531 2.28125 -4.46875 C 2.28125 -2.382812 3.328125 -1.34375 5.421875 -1.34375 C 6.296875 -1.34375 7.109375 -1.503906 7.859375 -1.828125 Z M 7.859375 -0.359375" transform="translate(215.716 227.021)"/></g></g></g><g fill="#FFF1E3"><g><g><path d="M 6.609375 -8.703125 L 6.609375 -7.3125 L 4.109375 -7.3125 L 4.109375 0 L 2.5 0 L 2.5 -7.3125 L 0 -7.3125 L 0 -8.703125 Z M 6.609375 -8.703125" transform="translate(224.957 227.021)"/></g></g></g><g fill="#FFF1E3"><g><g><path d="M 0.90625 -0.015625 L 0.90625 -8.703125 L 4.875 -8.703125 C 6.644531 -8.703125 7.53125 -7.925781 7.53125 -6.375 C 7.53125 -5.320312 6.84375 -4.453125 5.46875 -3.765625 L 8.21875 0 L 6.1875 0 L 3.53125 -3.796875 L 3.53125 -4.53125 C 5.070312 -4.789062 5.84375 -5.390625 5.84375 -6.328125 C 5.84375 -6.960938 5.484375 -7.28125 4.765625 -7.28125 L 2.5625 -7.28125 L 2.5625 -0.015625 Z M 0.90625 -0.015625" transform="translate(232.342 227.021)"/></g></g></g><g fill="#FFF1E3"><g><g><path d="M 2.53125 -8.703125 L 2.53125 0 L 0.90625 0 L 0.90625 -8.703125 Z M 2.53125 -8.703125" transform="translate(241.187 227.021)"/></g></g></g><g fill="#FFF1E3"><g><g><path d="M 7.859375 -0.359375 C 7.109375 -0.078125 6.253906 0.0625 5.296875 0.0625 C 2.171875 0.0625 0.609375 -1.445312 0.609375 -4.46875 C 0.609375 -7.332031 2.171875 -8.765625 5.296875 -8.765625 C 6.253906 -8.765625 7.109375 -8.625 7.859375 -8.34375 L 7.859375 -6.875 C 7.109375 -7.195312 6.296875 -7.359375 5.421875 -7.359375 C 3.328125 -7.359375 2.28125 -6.394531 2.28125 -4.46875 C 2.28125 -2.382812 3.328125 -1.34375 5.421875 -1.34375 C 6.296875 -1.34375 7.109375 -1.503906 7.859375 -1.828125 Z M 7.859375 -0.359375" transform="translate(245.41 227.021)"/></g></g></g><g fill="#FFF1E3"><g><g><path d="M 1.8125 0 L 0.15625 0 L 3.84375 -8.703125 L 5.578125 -8.703125 L 9.359375 0 L 7.625 0 L 6.625 -2.375 L 3.734375 -2.375 L 4.296875 -3.78125 L 6.046875 -3.78125 L 4.671875 -7.046875 Z M 1.8125 0" transform="translate(254.65 227.021)"/></g></g></g><g fill="#FFF1E3"><g><g><path d="M 2.53125 -8.703125 L 2.53125 -1.40625 L 5.984375 -1.40625 L 5.984375 0 L 0.90625 0 L 0.90625 -8.703125 Z M 2.53125 -8.703125" transform="translate(264.936 227.021)"/></g></g></g><g fill="#FF9100"><g><g><path d="M 6.765625 0 L 6.765625 -3.140625 C 6.765625 -3.597656 6.671875 -3.929688 6.484375 -4.140625 C 6.304688 -4.359375 6.03125 -4.46875 5.65625 -4.46875 C 5.164062 -4.46875 4.800781 -4.332031 4.5625 -4.0625 C 4.332031 -3.800781 4.21875 -3.378906 4.21875 -2.796875 L 4.21875 0 L 3.78125 0 L 3.78125 -3.265625 C 3.78125 -4.066406 3.410156 -4.46875 2.671875 -4.46875 C 2.171875 -4.46875 1.804688 -4.320312 1.578125 -4.03125 C 1.347656 -3.738281 1.234375 -3.273438 1.234375 -2.640625 L 1.234375 0 L 0.796875 0 L 0.796875 -4.78125 L 1.15625 -4.78125 L 1.25 -4.125 L 1.28125 -4.125 C 1.414062 -4.363281 1.601562 -4.546875 1.84375 -4.671875 C 2.082031 -4.804688 2.347656 -4.875 2.640625 -4.875 C 3.398438 -4.875 3.882812 -4.585938 4.09375 -4.015625 L 4.109375 -4.015625 C 4.265625 -4.296875 4.472656 -4.507812 4.734375 -4.65625 C 5.003906 -4.800781 5.304688 -4.875 5.640625 -4.875 C 6.160156 -4.875 6.550781 -4.734375 6.8125 -4.453125 C 7.070312 -4.171875 7.203125 -3.726562 7.203125 -3.125 L 7.203125 0 Z M 6.765625 0" transform="translate(143.03 234.624)"/></g></g><g><g><path d="M 3.703125 0 L 3.59375 -0.75 L 3.5625 -0.75 C 3.3125 -0.445312 3.0625 -0.226562 2.8125 -0.09375 C 2.5625 0.03125 2.265625 0.09375 1.921875 0.09375 C 1.453125 0.09375 1.085938 -0.0234375 0.828125 -0.265625 C 0.566406 -0.515625 0.4375 -0.847656 0.4375 -1.265625 C 0.4375 -1.734375 0.628906 -2.097656 1.015625 -2.359375 C 1.398438 -2.617188 1.960938 -2.753906 2.703125 -2.765625 L 3.609375 -2.796875 L 3.609375 -3.109375 C 3.609375 -3.554688 3.515625 -3.894531 3.328125 -4.125 C 3.140625 -4.363281 2.84375 -4.484375 2.4375 -4.484375 C 2 -4.484375 1.539062 -4.359375 1.0625 -4.109375 L 0.90625 -4.484375 C 1.425781 -4.734375 1.941406 -4.859375 2.453125 -4.859375 C 2.984375 -4.859375 3.375 -4.722656 3.625 -4.453125 C 3.882812 -4.179688 4.015625 -3.753906 4.015625 -3.171875 L 4.015625 0 Z M 1.9375 -0.3125 C 2.445312 -0.3125 2.847656 -0.457031 3.140625 -0.75 C 3.441406 -1.039062 3.59375 -1.441406 3.59375 -1.953125 L 3.59375 -2.4375 L 2.75 -2.390625 C 2.082031 -2.359375 1.601562 -2.253906 1.3125 -2.078125 C 1.03125 -1.898438 0.890625 -1.625 0.890625 -1.25 C 0.890625 -0.945312 0.976562 -0.710938 1.15625 -0.546875 C 1.34375 -0.390625 1.601562 -0.3125 1.9375 -0.3125 Z M 1.9375 -0.3125" transform="translate(150.975 234.624)"/></g></g><g><g><path d="M 1.21875 -2.09375 L 3.671875 -4.78125 L 4.1875 -4.78125 L 2.3125 -2.734375 L 4.359375 0 L 3.828125 0 L 2.015625 -2.40625 L 1.234375 -1.703125 L 1.234375 0 L 0.796875 0 L 0.796875 -6.84375 L 1.234375 -6.84375 L 1.234375 -3.40625 L 1.203125 -2.09375 Z M 1.21875 -2.09375" transform="translate(155.744 234.624)"/></g></g><g><g><path d="M 1.234375 0 L 0.796875 0 L 0.796875 -4.78125 L 1.234375 -4.78125 Z M 0.734375 -6.109375 C 0.734375 -6.390625 0.828125 -6.53125 1.015625 -6.53125 C 1.109375 -6.53125 1.179688 -6.492188 1.234375 -6.421875 C 1.285156 -6.347656 1.3125 -6.242188 1.3125 -6.109375 C 1.3125 -5.972656 1.285156 -5.863281 1.234375 -5.78125 C 1.179688 -5.707031 1.109375 -5.671875 1.015625 -5.671875 C 0.828125 -5.671875 0.734375 -5.816406 0.734375 -6.109375 Z M 0.734375 -6.109375" transform="translate(160.098 234.624)"/></g></g><g><g><path d="M 4.125 0 L 4.125 -3.09375 C 4.125 -3.570312 4.023438 -3.921875 3.828125 -4.140625 C 3.628906 -4.359375 3.316406 -4.46875 2.890625 -4.46875 C 2.316406 -4.46875 1.894531 -4.320312 1.625 -4.03125 C 1.363281 -3.75 1.234375 -3.285156 1.234375 -2.640625 L 1.234375 0 L 0.796875 0 L 0.796875 -4.78125 L 1.171875 -4.78125 L 1.25 -4.125 L 1.28125 -4.125 C 1.59375 -4.625 2.144531 -4.875 2.9375 -4.875 C 4.019531 -4.875 4.5625 -4.289062 4.5625 -3.125 L 4.5625 0 Z M 4.125 0" transform="translate(162.133 234.624)"/></g></g><g><g><path d="M 4.53125 -4.78125 L 4.53125 -4.46875 L 3.53125 -4.40625 C 3.800781 -4.082031 3.9375 -3.722656 3.9375 -3.328125 C 3.9375 -2.867188 3.78125 -2.492188 3.46875 -2.203125 C 3.164062 -1.921875 2.753906 -1.78125 2.234375 -1.78125 C 2.023438 -1.78125 1.875 -1.789062 1.78125 -1.8125 C 1.613281 -1.71875 1.484375 -1.609375 1.390625 -1.484375 C 1.296875 -1.367188 1.25 -1.238281 1.25 -1.09375 C 1.25 -0.945312 1.304688 -0.835938 1.421875 -0.765625 C 1.535156 -0.691406 1.734375 -0.65625 2.015625 -0.65625 L 2.84375 -0.65625 C 3.363281 -0.65625 3.757812 -0.550781 4.03125 -0.34375 C 4.3125 -0.132812 4.453125 0.171875 4.453125 0.578125 C 4.453125 1.085938 4.242188 1.476562 3.828125 1.75 C 3.421875 2.019531 2.84375 2.15625 2.09375 2.15625 C 1.488281 2.15625 1.019531 2.039062 0.6875 1.8125 C 0.363281 1.582031 0.203125 1.257812 0.203125 0.84375 C 0.203125 0.519531 0.300781 0.25 0.5 0.03125 C 0.707031 -0.1875 0.984375 -0.332031 1.328125 -0.40625 C 1.179688 -0.46875 1.066406 -0.554688 0.984375 -0.671875 C 0.898438 -0.785156 0.859375 -0.914062 0.859375 -1.0625 C 0.859375 -1.382812 1.0625 -1.664062 1.46875 -1.90625 C 1.1875 -2.019531 0.96875 -2.195312 0.8125 -2.4375 C 0.65625 -2.6875 0.578125 -2.96875 0.578125 -3.28125 C 0.578125 -3.757812 0.726562 -4.144531 1.03125 -4.4375 C 1.34375 -4.726562 1.753906 -4.875 2.265625 -4.875 C 2.578125 -4.875 2.820312 -4.84375 3 -4.78125 Z M 0.65625 0.8125 C 0.65625 1.46875 1.144531 1.796875 2.125 1.796875 C 3.375 1.796875 4 1.394531 4 0.59375 C 4 0.300781 3.898438 0.09375 3.703125 -0.03125 C 3.515625 -0.15625 3.195312 -0.21875 2.75 -0.21875 L 1.96875 -0.21875 C 1.09375 -0.21875 0.65625 0.125 0.65625 0.8125 Z M 1.03125 -3.28125 C 1.03125 -2.914062 1.140625 -2.628906 1.359375 -2.421875 C 1.585938 -2.222656 1.890625 -2.125 2.265625 -2.125 C 2.660156 -2.125 2.960938 -2.222656 3.171875 -2.421875 C 3.390625 -2.628906 3.5 -2.925781 3.5 -3.3125 C 3.5 -3.71875 3.390625 -4.019531 3.171875 -4.21875 C 2.953125 -4.425781 2.644531 -4.53125 2.25 -4.53125 C 1.863281 -4.53125 1.5625 -4.421875 1.34375 -4.203125 C 1.132812 -3.984375 1.03125 -3.675781 1.03125 -3.28125 Z M 1.03125 -3.28125" transform="translate(167.442 234.624)"/></g></g><g><g><path d="M 2.0625 -0.296875 C 2.332031 -0.296875 2.570312 -0.320312 2.78125 -0.375 L 2.78125 -0.015625 C 2.570312 0.0546875 2.328125 0.09375 2.046875 0.09375 C 1.628906 0.09375 1.316406 -0.0195312 1.109375 -0.25 C 0.910156 -0.476562 0.8125 -0.832031 0.8125 -1.3125 L 0.8125 -4.40625 L 0.109375 -4.40625 L 0.109375 -4.65625 L 0.8125 -4.859375 L 1.03125 -5.9375 L 1.265625 -5.9375 L 1.265625 -4.78125 L 2.65625 -4.78125 L 2.65625 -4.40625 L 1.265625 -4.40625 L 1.265625 -1.375 C 1.265625 -1.007812 1.328125 -0.738281 1.453125 -0.5625 C 1.578125 -0.382812 1.78125 -0.296875 2.0625 -0.296875 Z M 2.0625 -0.296875" transform="translate(174.486 234.624)"/></g></g><g><g><path d="M 4.125 0 L 4.125 -3.09375 C 4.125 -3.570312 4.023438 -3.921875 3.828125 -4.140625 C 3.628906 -4.359375 3.316406 -4.46875 2.890625 -4.46875 C 2.316406 -4.46875 1.894531 -4.320312 1.625 -4.03125 C 1.363281 -3.75 1.234375 -3.285156 1.234375 -2.640625 L 1.234375 0 L 0.796875 0 L 0.796875 -6.84375 L 1.234375 -6.84375 L 1.234375 -4.65625 L 1.21875 -4.046875 L 1.25 -4.046875 C 1.425781 -4.335938 1.648438 -4.546875 1.921875 -4.671875 C 2.191406 -4.804688 2.53125 -4.875 2.9375 -4.875 C 4.019531 -4.875 4.5625 -4.289062 4.5625 -3.125 L 4.5625 0 Z M 4.125 0" transform="translate(177.5 234.624)"/></g></g><g><g><path d="M 2.734375 0.09375 C 2.035156 0.09375 1.488281 -0.117188 1.09375 -0.546875 C 0.707031 -0.984375 0.515625 -1.582031 0.515625 -2.34375 C 0.515625 -3.113281 0.703125 -3.726562 1.078125 -4.1875 C 1.453125 -4.644531 1.960938 -4.875 2.609375 -4.875 C 3.171875 -4.875 3.613281 -4.675781 3.9375 -4.28125 C 4.257812 -3.882812 4.421875 -3.351562 4.421875 -2.6875 L 4.421875 -2.328125 L 0.984375 -2.328125 C 0.984375 -1.671875 1.132812 -1.171875 1.4375 -0.828125 C 1.738281 -0.484375 2.171875 -0.3125 2.734375 -0.3125 C 3.003906 -0.3125 3.238281 -0.328125 3.4375 -0.359375 C 3.644531 -0.398438 3.910156 -0.484375 4.234375 -0.609375 L 4.234375 -0.21875 C 3.960938 -0.101562 3.710938 -0.0234375 3.484375 0.015625 C 3.253906 0.0664062 3.003906 0.09375 2.734375 0.09375 Z M 2.609375 -4.484375 C 2.140625 -4.484375 1.765625 -4.332031 1.484375 -4.03125 C 1.210938 -3.726562 1.050781 -3.289062 1 -2.71875 L 3.953125 -2.71875 C 3.953125 -3.269531 3.832031 -3.703125 3.59375 -4.015625 C 3.351562 -4.328125 3.023438 -4.484375 2.609375 -4.484375 Z M 2.609375 -4.484375" transform="translate(182.81 234.624)"/></g></g><g><g><path d="M 2.703125 0.09375 C 2.023438 0.09375 1.488281 -0.117188 1.09375 -0.546875 C 0.707031 -0.984375 0.515625 -1.585938 0.515625 -2.359375 C 0.515625 -3.148438 0.71875 -3.765625 1.125 -4.203125 C 1.53125 -4.648438 2.078125 -4.875 2.765625 -4.875 C 3.179688 -4.875 3.578125 -4.800781 3.953125 -4.65625 L 3.84375 -4.265625 C 3.425781 -4.398438 3.066406 -4.46875 2.765625 -4.46875 C 2.179688 -4.46875 1.738281 -4.285156 1.4375 -3.921875 C 1.132812 -3.566406 0.984375 -3.050781 0.984375 -2.375 C 0.984375 -1.726562 1.132812 -1.222656 1.4375 -0.859375 C 1.738281 -0.492188 2.160156 -0.3125 2.703125 -0.3125 C 3.128906 -0.3125 3.53125 -0.390625 3.90625 -0.546875 L 3.90625 -0.140625 C 3.601562 0.015625 3.203125 0.09375 2.703125 0.09375 Z M 2.703125 0.09375" transform="translate(190.087 234.624)"/></g></g><g><g><path d="M 4.75 -2.390625 C 4.75 -1.609375 4.554688 -1 4.171875 -0.5625 C 3.796875 -0.125 3.28125 0.09375 2.625 0.09375 C 2.195312 0.09375 1.820312 -0.00390625 1.5 -0.203125 C 1.1875 -0.410156 0.941406 -0.703125 0.765625 -1.078125 C 0.597656 -1.460938 0.515625 -1.898438 0.515625 -2.390625 C 0.515625 -3.171875 0.703125 -3.78125 1.078125 -4.21875 C 1.460938 -4.65625 1.984375 -4.875 2.640625 -4.875 C 3.296875 -4.875 3.8125 -4.648438 4.1875 -4.203125 C 4.5625 -3.765625 4.75 -3.160156 4.75 -2.390625 Z M 0.984375 -2.390625 C 0.984375 -1.734375 1.125 -1.222656 1.40625 -0.859375 C 1.695312 -0.492188 2.109375 -0.3125 2.640625 -0.3125 C 3.160156 -0.3125 3.566406 -0.492188 3.859375 -0.859375 C 4.148438 -1.222656 4.296875 -1.734375 4.296875 -2.390625 C 4.296875 -3.054688 4.148438 -3.566406 3.859375 -3.921875 C 3.566406 -4.285156 3.15625 -4.46875 2.625 -4.46875 C 2.101562 -4.46875 1.695312 -4.285156 1.40625 -3.921875 C 1.125 -3.566406 0.984375 -3.054688 0.984375 -2.390625 Z M 0.984375 -2.390625" transform="translate(194.363 234.624)"/></g></g><g><g><path d="M 4.125 0 L 4.125 -3.09375 C 4.125 -3.570312 4.023438 -3.921875 3.828125 -4.140625 C 3.628906 -4.359375 3.316406 -4.46875 2.890625 -4.46875 C 2.316406 -4.46875 1.894531 -4.320312 1.625 -4.03125 C 1.363281 -3.75 1.234375 -3.285156 1.234375 -2.640625 L 1.234375 0 L 0.796875 0 L 0.796875 -4.78125 L 1.171875 -4.78125 L 1.25 -4.125 L 1.28125 -4.125 C 1.59375 -4.625 2.144531 -4.875 2.9375 -4.875 C 4.019531 -4.875 4.5625 -4.289062 4.5625 -3.125 L 4.5625 0 Z M 4.125 0" transform="translate(199.636 234.624)"/></g></g><g><g><path d="M 4.125 0 L 4.125 -3.09375 C 4.125 -3.570312 4.023438 -3.921875 3.828125 -4.140625 C 3.628906 -4.359375 3.316406 -4.46875 2.890625 -4.46875 C 2.316406 -4.46875 1.894531 -4.320312 1.625 -4.03125 C 1.363281 -3.75 1.234375 -3.285156 1.234375 -2.640625 L 1.234375 0 L 0.796875 0 L 0.796875 -4.78125 L 1.171875 -4.78125 L 1.25 -4.125 L 1.28125 -4.125 C 1.59375 -4.625 2.144531 -4.875 2.9375 -4.875 C 4.019531 -4.875 4.5625 -4.289062 4.5625 -3.125 L 4.5625 0 Z M 4.125 0" transform="translate(204.945 234.624)"/></g></g><g><g><path d="M 2.734375 0.09375 C 2.035156 0.09375 1.488281 -0.117188 1.09375 -0.546875 C 0.707031 -0.984375 0.515625 -1.582031 0.515625 -2.34375 C 0.515625 -3.113281 0.703125 -3.726562 1.078125 -4.1875 C 1.453125 -4.644531 1.960938 -4.875 2.609375 -4.875 C 3.171875 -4.875 3.613281 -4.675781 3.9375 -4.28125 C 4.257812 -3.882812 4.421875 -3.351562 4.421875 -2.6875 L 4.421875 -2.328125 L 0.984375 -2.328125 C 0.984375 -1.671875 1.132812 -1.171875 1.4375 -0.828125 C 1.738281 -0.484375 2.171875 -0.3125 2.734375 -0.3125 C 3.003906 -0.3125 3.238281 -0.328125 3.4375 -0.359375 C 3.644531 -0.398438 3.910156 -0.484375 4.234375 -0.609375 L 4.234375 -0.21875 C 3.960938 -0.101562 3.710938 -0.0234375 3.484375 0.015625 C 3.253906 0.0664062 3.003906 0.09375 2.734375 0.09375 Z M 2.609375 -4.484375 C 2.140625 -4.484375 1.765625 -4.332031 1.484375 -4.03125 C 1.210938 -3.726562 1.050781 -3.289062 1 -2.71875 L 3.953125 -2.71875 C 3.953125 -3.269531 3.832031 -3.703125 3.59375 -4.015625 C 3.351562 -4.328125 3.023438 -4.484375 2.609375 -4.484375 Z M 2.609375 -4.484375" transform="translate(210.253 234.624)"/></g></g><g><g><path d="M 2.703125 0.09375 C 2.023438 0.09375 1.488281 -0.117188 1.09375 -0.546875 C 0.707031 -0.984375 0.515625 -1.585938 0.515625 -2.359375 C 0.515625 -3.148438 0.71875 -3.765625 1.125 -4.203125 C 1.53125 -4.648438 2.078125 -4.875 2.765625 -4.875 C 3.179688 -4.875 3.578125 -4.800781 3.953125 -4.65625 L 3.84375 -4.265625 C 3.425781 -4.398438 3.066406 -4.46875 2.765625 -4.46875 C 2.179688 -4.46875 1.738281 -4.285156 1.4375 -3.921875 C 1.132812 -3.566406 0.984375 -3.050781 0.984375 -2.375 C 0.984375 -1.726562 1.132812 -1.222656 1.4375 -0.859375 C 1.738281 -0.492188 2.160156 -0.3125 2.703125 -0.3125 C 3.128906 -0.3125 3.53125 -0.390625 3.90625 -0.546875 L 3.90625 -0.140625 C 3.601562 0.015625 3.203125 0.09375 2.703125 0.09375 Z M 2.703125 0.09375" transform="translate(215.193 234.624)"/></g></g><g><g><path d="M 2.0625 -0.296875 C 2.332031 -0.296875 2.570312 -0.320312 2.78125 -0.375 L 2.78125 -0.015625 C 2.570312 0.0546875 2.328125 0.09375 2.046875 0.09375 C 1.628906 0.09375 1.316406 -0.0195312 1.109375 -0.25 C 0.910156 -0.476562 0.8125 -0.832031 0.8125 -1.3125 L 0.8125 -4.40625 L 0.109375 -4.40625 L 0.109375 -4.65625 L 0.8125 -4.859375 L 1.03125 -5.9375 L 1.265625 -5.9375 L 1.265625 -4.78125 L 2.65625 -4.78125 L 2.65625 -4.40625 L 1.265625 -4.40625 L 1.265625 -1.375 C 1.265625 -1.007812 1.328125 -0.738281 1.453125 -0.5625 C 1.578125 -0.382812 1.78125 -0.296875 2.0625 -0.296875 Z M 2.0625 -0.296875" transform="translate(219.469 234.624)"/></g></g><g><g><path d="M 1.234375 0 L 0.796875 0 L 0.796875 -4.78125 L 1.234375 -4.78125 Z M 0.734375 -6.109375 C 0.734375 -6.390625 0.828125 -6.53125 1.015625 -6.53125 C 1.109375 -6.53125 1.179688 -6.492188 1.234375 -6.421875 C 1.285156 -6.347656 1.3125 -6.242188 1.3125 -6.109375 C 1.3125 -5.972656 1.285156 -5.863281 1.234375 -5.78125 C 1.179688 -5.707031 1.109375 -5.671875 1.015625 -5.671875 C 0.828125 -5.671875 0.734375 -5.816406 0.734375 -6.109375 Z M 0.734375 -6.109375" transform="translate(222.483 234.624)"/></g></g><g><g><path d="M 4.75 -2.390625 C 4.75 -1.609375 4.554688 -1 4.171875 -0.5625 C 3.796875 -0.125 3.28125 0.09375 2.625 0.09375 C 2.195312 0.09375 1.820312 -0.00390625 1.5 -0.203125 C 1.1875 -0.410156 0.941406 -0.703125 0.765625 -1.078125 C 0.597656 -1.460938 0.515625 -1.898438 0.515625 -2.390625 C 0.515625 -3.171875 0.703125 -3.78125 1.078125 -4.21875 C 1.460938 -4.65625 1.984375 -4.875 2.640625 -4.875 C 3.296875 -4.875 3.8125 -4.648438 4.1875 -4.203125 C 4.5625 -3.765625 4.75 -3.160156 4.75 -2.390625 Z M 0.984375 -2.390625 C 0.984375 -1.734375 1.125 -1.222656 1.40625 -0.859375 C 1.695312 -0.492188 2.109375 -0.3125 2.640625 -0.3125 C 3.160156 -0.3125 3.566406 -0.492188 3.859375 -0.859375 C 4.148438 -1.222656 4.296875 -1.734375 4.296875 -2.390625 C 4.296875 -3.054688 4.148438 -3.566406 3.859375 -3.921875 C 3.566406 -4.285156 3.15625 -4.46875 2.625 -4.46875 C 2.101562 -4.46875 1.695312 -4.285156 1.40625 -3.921875 C 1.125 -3.566406 0.984375 -3.054688 0.984375 -2.390625 Z M 0.984375 -2.390625" transform="translate(224.518 234.624)"/></g></g><g><g><path d="M 4.125 0 L 4.125 -3.09375 C 4.125 -3.570312 4.023438 -3.921875 3.828125 -4.140625 C 3.628906 -4.359375 3.316406 -4.46875 2.890625 -4.46875 C 2.316406 -4.46875 1.894531 -4.320312 1.625 -4.03125 C 1.363281 -3.75 1.234375 -3.285156 1.234375 -2.640625 L 1.234375 0 L 0.796875 0 L 0.796875 -4.78125 L 1.171875 -4.78125 L 1.25 -4.125 L 1.28125 -4.125 C 1.59375 -4.625 2.144531 -4.875 2.9375 -4.875 C 4.019531 -4.875 4.5625 -4.289062 4.5625 -3.125 L 4.5625 0 Z M 4.125 0" transform="translate(229.791 234.624)"/></g></g></g></svg>