<svg width="176" height="50" viewBox="0 0 176 50" fill="none" xmlns="http://www.w3.org/2000/svg">
<path d="M49.1044 13.5327C49.0863 13.0919 49.061 12.6585 49.0177 12.2323C48.9779 11.8061 48.9237 11.3835 48.8587 10.9682C48.7611 10.349 48.6311 9.74428 48.4757 9.16145C48.3709 8.77167 48.2517 8.39283 48.118 8.02127C47.9843 7.64972 47.8398 7.28909 47.6772 6.93574C47.5146 6.58604 47.3412 6.24363 47.1497 5.91214C47.0558 5.74822 46.9546 5.58429 46.8535 5.42401C46.6475 5.1071 46.4271 4.79746 46.1887 4.5024C45.9538 4.20734 45.7009 3.92685 45.4299 3.65729C45.2818 3.50794 45.1264 3.36588 44.9711 3.22381C44.9205 3.1801 44.8663 3.13638 44.8157 3.09267C44.7073 3.0016 44.599 2.90689 44.4869 2.81947C44.4255 2.77211 44.3605 2.72111 44.2991 2.67376C44.1907 2.59362 44.0859 2.51348 43.9739 2.44062C43.9089 2.39327 43.8402 2.34956 43.7752 2.30584C43.6596 2.22935 43.5403 2.15649 43.4211 2.08364C43.3597 2.04721 43.2983 2.00714 43.2369 1.97071C43.067 1.87236 42.8936 1.77401 42.7166 1.68294C42.6841 1.66472 42.6479 1.65015 42.6154 1.63194C42.4528 1.54816 42.283 1.46802 42.1168 1.39152C42.0446 1.35874 41.9687 1.32959 41.8964 1.29681C41.7736 1.24217 41.6471 1.19117 41.5207 1.14017C41.4376 1.10739 41.3545 1.0746 41.2678 1.04546C41.1485 1.00175 41.0257 0.958036 40.9029 0.914323C40.8161 0.885181 40.7294 0.85604 40.6427 0.826898C40.5127 0.786828 40.3826 0.746758 40.2489 0.706688C40.1694 0.684832 40.0863 0.659333 40.0068 0.637476C39.8153 0.586478 39.6239 0.53548 39.4288 0.491767C39.3673 0.477197 39.3023 0.462626 39.2409 0.451698C39.0675 0.411628 38.8904 0.3752 38.7134 0.342416C38.6267 0.327845 38.5363 0.313274 38.4496 0.29506C38.3087 0.269561 38.1714 0.247705 38.0269 0.225849C37.933 0.211278 37.839 0.20035 37.7415 0.185779C37.6006 0.167565 37.4597 0.149352 37.3188 0.134781C37.2248 0.123853 37.1309 0.112924 37.0333 0.105639C36.8816 0.0910681 36.7262 0.0764972 36.5709 0.065569C36.4878 0.0582836 36.4047 0.0509981 36.3216 0.0473554C36.0867 0.0327845 35.8483 0.0218563 35.6098 0.0109282C35.5809 0.0109282 35.552 0.0109282 35.5195 0.0109282C35.3099 0.00364272 35.0932 0 34.8764 0C34.8077 0 34.7427 0 34.6741 0C34.45 0 34.2297 0.00364272 34.002 0.0109282C33.9262 0.0145709 33.8539 0.0145709 33.778 0.0182136C33.2072 0.0400699 32.6327 0.0801399 32.051 0.138423C31.9788 0.145709 31.9101 0.152994 31.8379 0.16028C31.5886 0.185779 31.3356 0.214921 31.0827 0.247705C31.0358 0.254991 30.9924 0.258633 30.9454 0.265919C30.6456 0.305989 30.3457 0.349701 30.0422 0.397057C29.9952 0.404342 29.9483 0.411628 29.8977 0.422556C29.6375 0.466268 29.3774 0.509981 29.1173 0.557336C29.0558 0.568265 28.9944 0.579193 28.9366 0.590121C28.326 0.706688 27.7118 0.837826 27.0976 0.983535C27.0398 0.998106 26.982 1.01268 26.9242 1.0236C26.646 1.09282 26.3642 1.16203 26.0823 1.23488C26.0534 1.24217 26.0245 1.24945 25.9956 1.25674C25.6813 1.34052 25.3634 1.42795 25.049 1.51902C25.0165 1.52994 24.984 1.53723 24.9515 1.54816C24.6697 1.6283 24.3915 1.71572 24.1097 1.80315C24.0591 1.81772 24.0085 1.83593 23.9579 1.8505C23.3365 2.04721 22.7186 2.25485 22.1044 2.47705C22.0539 2.49526 22.0033 2.51348 21.9527 2.53169C21.6709 2.63369 21.3855 2.73933 21.1036 2.84861C21.082 2.85589 21.0567 2.86682 21.035 2.87411C20.7243 2.99432 20.4136 3.11817 20.1065 3.24202C20.0775 3.25295 20.045 3.26752 20.0161 3.27845C19.7452 3.39137 19.4706 3.5043 19.2032 3.62087C19.1526 3.64272 19.102 3.66458 19.0551 3.68643C18.4589 3.94507 17.87 4.21463 17.2919 4.49148C17.2413 4.51698 17.1872 4.54247 17.1366 4.56797C16.8764 4.69183 16.6199 4.81932 16.3634 4.94682C16.3345 4.96139 16.302 4.97596 16.2695 4.99417C15.984 5.13988 15.6986 5.28559 15.4168 5.43494C15.3807 5.45316 15.3445 5.47501 15.3084 5.49322C15.0663 5.62072 14.8279 5.75186 14.5894 5.883C14.5352 5.91214 14.481 5.94492 14.4268 5.97406C13.8885 6.27641 13.3646 6.5824 12.8516 6.89567C12.7937 6.92846 12.7396 6.96488 12.6817 7.00131C12.465 7.13609 12.2518 7.27087 12.0386 7.40565C11.9989 7.43115 11.9555 7.45665 11.9158 7.48215C11.6701 7.64243 11.428 7.80271 11.186 7.96299C11.1426 7.99213 11.0993 8.02127 11.0559 8.05042C10.8608 8.1852 10.6657 8.31998 10.4742 8.45476C10.4164 8.49483 10.3586 8.5349 10.3008 8.57861C9.84554 8.90281 9.40837 9.2343 8.98565 9.56579C8.92784 9.6095 8.87365 9.65321 8.81945 9.69693C8.64964 9.83171 8.48344 9.96649 8.32086 10.1013C8.2775 10.1377 8.23415 10.1705 8.1944 10.2069C7.99569 10.3745 7.8042 10.5384 7.61632 10.706C7.57297 10.7424 7.53323 10.7825 7.48987 10.8189C7.34174 10.9537 7.1936 11.0884 7.04908 11.2232C6.9985 11.2706 6.94792 11.3179 6.89734 11.3653C6.7203 11.5329 6.54688 11.7041 6.38068 11.8716C5.84596 12.4144 5.34736 12.9754 4.88129 13.5546C4.41521 14.1338 3.98165 14.7348 3.58061 15.3468C3.17957 15.9624 2.81465 16.5926 2.48226 17.2337C2.31606 17.5543 2.15709 17.8785 2.00896 18.2063C1.70908 18.862 1.44533 19.5286 1.21048 20.2062C0.863635 21.2189 0.589047 22.2534 0.390333 23.3025C0.256652 23.9983 0.159101 24.7013 0.0940669 25.408C-0.00348396 26.4644 -0.0251619 27.5281 0.029033 28.5881C0.065163 29.2948 0.13381 30.0015 0.234974 30.7009C0.336138 31.4039 0.473431 32.0997 0.643242 32.7918C0.896152 33.8263 1.22493 34.8499 1.62959 35.8444C2.70626 38.5036 4.32127 40.9952 6.46739 43.148C6.73475 43.4176 7.00934 43.6762 7.28754 43.9276C7.36341 43.9968 7.4429 44.0587 7.51877 44.1279C7.7211 44.3064 7.92704 44.4886 8.13298 44.6561C8.2197 44.729 8.31363 44.7946 8.40034 44.8638C8.60267 45.024 8.80139 45.1843 9.00733 45.3373C9.10127 45.4065 9.1952 45.4685 9.29275 45.5377C9.4987 45.6834 9.70102 45.8291 9.91058 45.9675C10.0045 46.0294 10.0985 46.0841 10.1924 46.1424C10.4056 46.2771 10.6187 46.4156 10.8355 46.5431C10.9331 46.6013 11.0342 46.6523 11.1318 46.7106C11.3485 46.8345 11.5617 46.9583 11.7785 47.0713C11.8833 47.1259 11.9917 47.1769 12.0964 47.2279C12.3132 47.3372 12.5264 47.4465 12.7432 47.5485C12.8552 47.5994 12.9672 47.6468 13.0792 47.6942C13.2923 47.7889 13.5055 47.8872 13.7223 47.9746C13.8415 48.022 13.9644 48.0657 14.0872 48.1131C14.2968 48.1932 14.5063 48.277 14.7195 48.3498C14.8459 48.3936 14.976 48.4336 15.1061 48.4737C15.3156 48.5429 15.5216 48.6121 15.7311 48.674C15.8684 48.7141 16.0057 48.7469 16.1394 48.7833C16.3417 48.838 16.5476 48.8963 16.75 48.9473C16.8945 48.9837 17.0426 49.0092 17.1872 49.042C17.3859 49.0857 17.581 49.133 17.7797 49.1695C17.935 49.1986 18.0904 49.2205 18.2458 49.2496C18.4372 49.2824 18.6251 49.3188 18.8166 49.3443C18.9792 49.3662 19.1454 49.3844 19.308 49.4026C19.4922 49.4244 19.6765 49.45 19.8608 49.4682C20.027 49.4827 20.1968 49.4937 20.363 49.5046C20.5436 49.5192 20.7243 49.5337 20.9085 49.541C21.0783 49.5483 21.2482 49.5483 21.418 49.5519C21.5986 49.5556 21.7793 49.5629 21.9563 49.5629C22.1406 49.5629 22.3248 49.5556 22.5091 49.5483C22.6753 49.5447 22.8451 49.5447 23.0113 49.5337C23.1956 49.5228 23.3834 49.5082 23.5677 49.4937C23.7339 49.4827 23.9001 49.4718 24.0627 49.4572C24.2506 49.439 24.442 49.4135 24.6299 49.388C24.7889 49.3698 24.9515 49.3516 25.1105 49.3297C25.3056 49.3006 25.5043 49.2642 25.6994 49.2277C25.8511 49.2022 26.0029 49.1804 26.151 49.1476C26.3533 49.1075 26.5557 49.0602 26.758 49.0128C26.8989 48.98 27.0434 48.9509 27.1843 48.9181C27.3939 48.8671 27.5998 48.8052 27.8057 48.7469C27.9394 48.7105 28.0767 48.6777 28.2104 48.6376C28.42 48.5757 28.6295 48.5028 28.8391 48.4336C28.9691 48.3899 29.0956 48.3535 29.2257 48.3061C29.4388 48.2296 29.6484 48.1459 29.8615 48.0621C29.9844 48.0147 30.1036 47.971 30.2265 47.9236C30.4432 47.8362 30.6564 47.7379 30.8696 47.6395C30.9816 47.5885 31.0972 47.5412 31.2092 47.4902C31.426 47.3882 31.6427 47.2752 31.8595 47.166C31.9643 47.1113 32.0727 47.064 32.1775 47.0057C32.3906 46.8928 32.6038 46.7689 32.8134 46.6451C32.9145 46.5868 33.0193 46.5321 33.1241 46.4702C33.3372 46.3427 33.5468 46.2079 33.7527 46.0732C33.8503 46.0112 33.9515 45.9529 34.0454 45.8874C34.2549 45.7489 34.4573 45.5996 34.6632 45.4502C34.7572 45.381 34.8547 45.3191 34.9486 45.2499C35.151 45.1005 35.3461 44.9403 35.5412 44.7836C35.6351 44.7071 35.729 44.6379 35.823 44.5614C36.0325 44.3866 36.2385 44.2044 36.4408 44.0223C36.5167 43.9567 36.5926 43.8912 36.6684 43.8256C36.9466 43.5706 37.2176 43.3083 37.485 43.0388C37.886 42.6344 38.2834 42.1973 38.6809 41.7347C38.9446 41.425 39.2084 41.1045 39.4685 40.7766C41.0365 38.7877 42.5395 36.4017 43.8727 33.7935C44.0967 33.36 44.3135 32.9193 44.5267 32.4712C45.4841 30.4641 46.3332 28.3477 47.0377 26.1985C47.2726 25.4808 47.4893 24.7632 47.6881 24.042C47.9518 23.0803 48.1867 22.1186 48.3818 21.1606C48.4793 20.6834 48.5696 20.2025 48.6491 19.729C48.6889 19.4922 48.725 19.2554 48.7611 19.0187C48.9707 17.598 49.0935 16.2028 49.1116 14.8477C49.1152 14.6219 49.1152 14.3997 49.1116 14.1738C49.1188 13.9735 49.1116 13.7549 49.1044 13.5327ZM44.9603 22.5739C43.1574 29.5461 39.2915 36.9153 35.3461 40.9151C31.7692 44.5396 27.0073 46.5358 21.9382 46.5358C16.909 46.5358 12.1723 44.5651 8.60267 40.9879C1.21048 33.5786 1.17797 21.4811 8.53041 14.0281C11.2257 11.2961 15.5216 8.53854 20.3088 6.46947C25.4139 4.26198 30.5625 3.04896 34.8113 3.04896C38.6086 3.04896 41.4665 3.98149 43.2983 5.82107C46.326 8.85546 46.9329 14.9607 44.9603 22.5739Z" fill="#64F069"/>
<path d="M96.5791 41.1809C96.4274 40.4633 96.16 39.7821 95.7951 39.1446L81.3467 13.9115C80.0244 11.5983 77.7012 10.4363 75.3817 10.4327C73.0621 10.4363 70.739 11.5983 69.4166 13.9115L54.9683 39.1446C54.607 39.7785 54.3396 40.4633 54.1842 41.1809C53.9133 42.4741 53.9349 43.9239 54.3468 45.1842C54.6864 46.2334 55.3006 47.1877 56.1136 47.9272C56.9265 48.674 57.9309 49.2022 59.0076 49.4389C59.4556 49.5409 59.9144 49.5883 60.3733 49.5883C60.4492 49.5883 60.525 49.5883 60.6009 49.5847C60.8972 49.5664 61.1862 49.5409 61.4789 49.4936C61.7607 49.4389 62.0425 49.3734 62.3207 49.2823C62.5917 49.1949 62.8554 49.0892 63.1119 48.9654C63.3648 48.8415 63.6141 48.6995 63.8454 48.5465C64.0802 48.3862 64.3042 48.2186 64.5138 48.0365C64.7269 47.8471 64.9293 47.6504 65.1135 47.4391C65.3014 47.2278 65.4712 47.0056 65.6302 46.7688C65.7892 46.5321 65.9265 46.288 66.0565 46.0366C66.1794 45.778 66.2914 45.5121 66.3817 45.2425C66.5045 44.8673 66.6021 44.4776 66.6527 44.0878C66.6816 43.8437 66.7285 43.6033 66.7827 43.3592C66.8478 43.0788 66.9273 42.8019 67.0176 42.5287C67.1079 42.2591 67.2127 41.9932 67.3319 41.7309C67.4475 41.476 67.5704 41.221 67.7149 40.9769C67.8522 40.7328 68.0003 40.4924 68.1629 40.2629C68.3255 40.0334 68.4917 39.8112 68.6723 39.5927C68.853 39.3814 69.0445 39.1738 69.2432 38.9807C69.4455 38.784 69.6551 38.6019 69.8719 38.4234C70.085 38.2449 70.3162 38.0809 70.5511 37.9279C70.7859 37.775 71.0244 37.6292 71.2701 37.4945C71.5194 37.3633 71.7759 37.2431 72.0324 37.1338C72.2962 37.0282 72.5671 36.9335 72.8381 36.8497C73.1091 36.7623 73.3909 36.6967 73.6727 36.6384C73.9581 36.5801 74.2472 36.5364 74.5362 36.5146C74.818 36.4854 75.0962 36.4709 75.3781 36.4709C75.6599 36.4709 75.9381 36.4854 76.2199 36.5146C76.5125 36.5401 76.798 36.5801 77.0834 36.6384C77.3652 36.6967 77.647 36.7623 77.918 36.8497C78.189 36.9298 78.4636 37.0282 78.7237 37.1338C78.9802 37.2431 79.2403 37.3633 79.486 37.4945C79.7353 37.6292 79.9738 37.775 80.205 37.9279C80.4399 38.0809 80.6675 38.2449 80.8843 38.4234C81.1046 38.6019 81.3142 38.784 81.5129 38.9807C81.7116 39.1738 81.9031 39.3814 82.0874 39.5927C82.268 39.8076 82.4342 40.0298 82.5968 40.2629C82.7594 40.4888 82.9075 40.7292 83.0448 40.9769C83.1893 41.221 83.3122 41.476 83.4278 41.7309C83.547 41.9969 83.6518 42.2591 83.7421 42.5287C83.8325 42.8019 83.9083 43.0824 83.977 43.3592C84.0312 43.5997 84.0781 43.8401 84.107 44.0878C84.1612 44.4776 84.2552 44.8673 84.378 45.2425C84.4683 45.5121 84.5767 45.778 84.7032 46.0366C84.8333 46.288 84.9706 46.5321 85.1295 46.7688C85.2885 47.0056 85.4583 47.2278 85.6462 47.4391C85.8304 47.6504 86.0328 47.8471 86.2459 48.0365C86.4555 48.2186 86.6795 48.3862 86.9143 48.5465C87.1492 48.6995 87.3949 48.8415 87.6478 48.9654C87.9043 49.0892 88.1681 49.1949 88.439 49.2823C88.7172 49.3734 88.999 49.4426 89.2809 49.4936C89.5735 49.5409 89.8625 49.5664 90.1588 49.5847C90.2347 49.5883 90.3106 49.5883 90.3864 49.5883C90.8453 49.5883 91.3041 49.5409 91.7521 49.4389C92.8252 49.2022 93.8332 48.674 94.6462 47.9272C95.4591 47.1877 96.0733 46.2334 96.4129 45.1842C96.8284 43.9239 96.8501 42.4741 96.5791 41.1809Z" fill="#64F069"/>
<path d="M92.3845 18.8401C92.5362 19.5577 92.8036 20.2389 93.1685 20.8764L107.617 46.1095C108.939 48.4226 111.262 49.5847 113.582 49.5883C115.901 49.5847 118.225 48.4226 119.547 46.1095L133.995 20.8764C134.357 20.2425 134.624 19.5577 134.779 18.8401C135.05 17.5469 135.029 16.0971 134.617 14.8367C134.277 13.7876 133.663 12.8332 132.85 12.0938C132.037 11.347 131.033 10.8188 129.956 10.582C129.508 10.48 129.049 10.4327 128.59 10.4327C128.514 10.4327 128.439 10.4327 128.363 10.4363C128.066 10.4545 127.777 10.48 127.485 10.5274C127.203 10.582 126.921 10.6476 126.643 10.7387C126.372 10.8261 126.108 10.9317 125.852 11.0556C125.599 11.1794 125.349 11.3215 125.118 11.4745C124.883 11.6348 124.659 11.8023 124.45 11.9845C124.237 12.1739 124.034 12.3706 123.85 12.5819C123.662 12.7932 123.492 13.0154 123.333 13.2521C123.174 13.4889 123.037 13.733 122.907 13.9843C122.784 14.243 122.672 14.5089 122.582 14.7784C122.459 15.1536 122.362 15.5434 122.311 15.9332C122.282 16.1773 122.235 16.4177 122.181 16.6617C122.116 16.9422 122.036 17.2191 121.946 17.4923C121.856 17.7618 121.751 18.0278 121.632 18.29C121.516 18.545 121.393 18.8 121.249 19.0441C121.111 19.2881 120.963 19.5286 120.801 19.758C120.638 19.9875 120.472 20.2097 120.291 20.4283C120.111 20.6396 119.919 20.8472 119.72 21.0403C119.518 21.237 119.309 21.4191 119.092 21.5976C118.879 21.7761 118.647 21.94 118.413 22.093C118.178 22.246 117.939 22.3917 117.694 22.5265C117.444 22.6577 117.188 22.7779 116.931 22.8871C116.667 22.9928 116.396 23.0875 116.125 23.1713C115.854 23.2587 115.573 23.3243 115.291 23.3826C115.005 23.4408 114.716 23.4846 114.427 23.5064C114.146 23.5356 113.867 23.5501 113.586 23.5501C113.304 23.5501 113.026 23.5356 112.744 23.5064C112.451 23.4809 112.166 23.4408 111.88 23.3826C111.598 23.3243 111.317 23.2587 111.046 23.1713C110.775 23.0911 110.5 22.9928 110.24 22.8871C109.983 22.7779 109.723 22.6577 109.478 22.5265C109.228 22.3917 108.99 22.246 108.759 22.093C108.524 21.94 108.296 21.7761 108.079 21.5976C107.859 21.4191 107.649 21.237 107.451 21.0403C107.252 20.8472 107.06 20.6396 106.88 20.4283C106.699 20.2134 106.533 19.9912 106.37 19.758C106.208 19.5322 106.06 19.2918 105.922 19.0441C105.778 18.8 105.655 18.545 105.539 18.29C105.42 18.0241 105.315 17.7618 105.225 17.4923C105.135 17.2191 105.059 16.9386 104.99 16.6617C104.936 16.4213 104.889 16.1809 104.86 15.9332C104.806 15.5434 104.712 15.1536 104.589 14.7784C104.499 14.5089 104.39 14.243 104.264 13.9843C104.134 13.733 103.997 13.4889 103.838 13.2521C103.679 13.0154 103.509 12.7932 103.321 12.5819C103.137 12.3706 102.934 12.1739 102.721 11.9845C102.512 11.8023 102.288 11.6348 102.053 11.4745C101.818 11.3215 101.572 11.1794 101.319 11.0556C101.063 10.9317 100.799 10.8261 100.528 10.7387C100.25 10.6476 99.9682 10.5784 99.6863 10.5274C99.3937 10.48 99.1047 10.4545 98.8084 10.4363C98.7325 10.4327 98.6566 10.4327 98.5808 10.4327C98.1219 10.4327 97.6631 10.48 97.2151 10.582C96.142 10.8188 95.134 11.347 94.321 12.0938C93.5081 12.8332 92.8939 13.7876 92.5543 14.8367C92.1352 16.0971 92.1099 17.5469 92.3845 18.8401Z" fill="#64F069"/>
<path d="M156.175 10.0248C145.228 10.0248 136.351 18.9749 136.351 30.0124C136.351 41.0498 145.228 50 156.175 50C167.123 50 176 41.0498 176 30.0124C176 18.9749 167.126 10.0248 156.175 10.0248ZM156.175 38.9298C151.291 38.9298 147.331 34.9373 147.331 30.0124C147.331 25.0874 151.291 21.095 156.175 21.095C161.06 21.095 165.02 25.0874 165.02 30.0124C165.02 34.9373 161.06 38.9298 156.175 38.9298Z" fill="#64F069"/>
<path d="M43.3018 5.821C41.4664 3.98143 38.6122 3.04889 34.8149 3.04889C30.566 3.04889 25.4139 4.26556 20.3124 6.4694C15.5215 8.53847 11.2293 11.296 8.53399 14.0281C1.17793 21.4811 1.21045 33.5785 8.60264 40.9915C12.1687 44.5686 16.9053 46.5393 21.9382 46.5393C27.0109 46.5393 31.7728 44.5431 35.346 40.9186C39.2914 36.9189 43.1537 29.546 44.9602 22.5775C46.9329 14.9606 46.3259 8.85539 43.3018 5.821ZM21.8443 39.3705C15.3264 39.3705 10.0442 34.0448 10.0442 27.4733C10.0442 20.9019 15.3264 15.5762 21.8443 15.5762C28.3621 15.5762 33.6443 20.9019 33.6443 27.4733C33.6443 34.0448 28.3621 39.3705 21.8443 39.3705Z" fill="#BEFFBE"/>
<path d="M21.8479 39.3704C28.3649 39.3704 33.648 34.0439 33.648 27.4733C33.648 20.9027 28.3649 15.5761 21.8479 15.5761C15.3309 15.5761 10.0479 20.9027 10.0479 27.4733C10.0479 34.0439 15.3309 39.3704 21.8479 39.3704Z" fill="#F3E2C0"/>
<path d="M23.7088 28.8832C23.5317 28.763 23.3149 28.712 23.0982 28.7411H23.0909C22.9392 28.763 22.8236 28.8212 22.7549 28.854C22.6827 28.8868 22.6104 28.9123 22.5381 28.9342C22.39 28.9815 22.2347 29.0143 22.0829 29.0325C21.8553 29.058 21.6277 29.0507 21.4073 29.007C21.2989 28.9852 21.1941 28.956 21.0821 28.9123C21.0568 28.9014 21.0279 28.8941 21.0062 28.8832C20.9195 28.8285 20.6883 28.6792 20.3703 28.7156C19.8754 28.7812 19.5141 29.2547 19.5719 29.7793C19.7056 31.0214 20.6811 31.9576 21.8372 31.9649C21.8408 31.9649 21.8408 31.9649 21.8444 31.9649C22.997 31.9649 23.9761 31.036 24.117 29.7975C24.1604 29.4369 23.9978 29.0799 23.7088 28.8832Z" fill="#054B32"/>
<path d="M16.4249 27.1784C17.2131 27.1784 17.852 26.5342 17.852 25.7395C17.852 24.9448 17.2131 24.3006 16.4249 24.3006C15.6367 24.3006 14.9977 24.9448 14.9977 25.7395C14.9977 26.5342 15.6367 27.1784 16.4249 27.1784Z" fill="#054B32"/>
<path d="M27.2675 27.1784C28.0556 27.1784 28.6946 26.5342 28.6946 25.7395C28.6946 24.9448 28.0556 24.3006 27.2675 24.3006C26.4793 24.3006 25.8403 24.9448 25.8403 25.7395C25.8403 26.5342 26.4793 27.1784 27.2675 27.1784Z" fill="#054B32"/>
</svg>
