<svg xmlns="http://www.w3.org/2000/svg" width="375" viewBox="0 0 375 375" height="375" version="1.0"><defs><clipPath id="a"><path d="M 140 143 L 206 143 L 206 215.410156 L 140 215.410156 Z M 140 143"/></clipPath><clipPath id="b"><path d="M 126.683594 127.660156 L 219.683594 127.660156 L 219.683594 175 L 126.683594 175 Z M 126.683594 127.660156"/></clipPath><clipPath id="c"><path d="M 166 157 L 209 157 L 209 195 L 166 195 Z M 166 157"/></clipPath><clipPath id="d"><path d="M 178.015625 148.113281 L 216.089844 179.746094 L 196.917969 202.820312 L 158.84375 171.191406 Z M 178.015625 148.113281"/></clipPath><clipPath id="e"><path d="M 178.089844 148.023438 L 216.167969 179.652344 L 196.519531 203.304688 L 158.441406 171.675781 Z M 178.089844 148.023438"/></clipPath></defs><g clip-path="url(#a)"><path fill="#788C9D" d="M 205.808594 172.261719 Z M 205.808594 172.261719 L 173.191406 143.433594 L 140.554688 172.277344 L 140.554688 213.484375 C 140.554688 214.550781 141.417969 215.402344 142.484375 215.402344 L 162.878906 215.402344 L 162.878906 197.335938 C 162.878906 196.269531 163.734375 195.410156 164.800781 195.410156 L 181.5625 195.410156 C 182.628906 195.410156 183.484375 196.269531 183.484375 197.335938 L 183.484375 215.402344 L 203.886719 215.402344 C 204.953125 215.402344 205.808594 214.550781 205.808594 213.484375 Z M 140.554688 172.277344 Z M 140.554688 172.277344"/></g><g clip-path="url(#b)"><path fill="#788C9D" d="M 173.003906 127.660156 L 126.714844 168.5625 L 131.589844 174.050781 L 173.191406 137.285156 L 214.785156 174.050781 L 219.652344 168.5625 L 173.371094 127.660156 L 173.191406 127.867188 Z M 173.003906 127.660156"/></g><path fill="#788C9D" d="M 140.554688 133.546875 L 152.289062 133.546875 L 152.1875 140.484375 L 140.554688 150.96875 Z M 140.554688 133.546875"/><g clip-path="url(#c)"><g clip-path="url(#d)"><g clip-path="url(#e)"><path d="M 207.582031 187.710938 C 207.582031 187.710938 205.957031 186.363281 205.058594 185.617188 C 206.722656 181.589844 206.167969 177.113281 203.582031 173.683594 C 204.160156 172.988281 204.839844 172.171875 204.839844 172.171875 C 205.359375 171.542969 205.285156 170.621094 204.664062 170.105469 L 201.59375 167.554688 C 200.976562 167.039062 200.050781 167.132812 199.53125 167.761719 L 196.089844 171.902344 L 192.699219 169.085938 C 192.082031 168.574219 191.160156 168.667969 190.636719 169.296875 C 190.113281 169.921875 190.191406 170.847656 190.8125 171.359375 L 194.199219 174.175781 L 187.300781 182.484375 L 183.910156 179.667969 C 183.292969 179.152344 182.367188 179.246094 181.847656 179.875 C 181.324219 180.503906 181.402344 181.425781 182.023438 181.941406 L 185.410156 184.757812 L 181.773438 189.132812 C 181.253906 189.761719 181.332031 190.6875 181.949219 191.199219 L 185.023438 193.75 C 185.640625 194.265625 186.5625 194.171875 187.085938 193.546875 C 187.085938 193.546875 187.761719 192.730469 188.339844 192.035156 C 192.1875 193.941406 196.6875 193.667969 200.339844 191.296875 C 201.238281 192.042969 202.863281 193.390625 202.863281 193.390625 C 203.480469 193.902344 204.402344 193.816406 204.925781 193.183594 L 207.757812 189.777344 C 208.277344 189.148438 208.199219 188.222656 207.582031 187.710938 Z M 192.660156 160.128906 L 189.589844 157.578125 C 188.972656 157.066406 188.050781 157.160156 187.527344 157.785156 C 187.527344 157.785156 186.847656 158.605469 186.269531 159.300781 C 182.425781 157.390625 177.921875 157.65625 174.265625 160.03125 C 173.371094 159.285156 171.746094 157.9375 171.746094 157.9375 C 171.128906 157.425781 170.203125 157.519531 169.679688 158.144531 L 166.851562 161.554688 C 166.328125 162.183594 166.40625 163.109375 167.027344 163.621094 C 167.027344 163.621094 168.648438 164.96875 169.542969 165.710938 C 167.882812 169.742188 168.445312 174.21875 171.027344 177.648438 C 170.449219 178.34375 169.769531 179.160156 169.769531 179.160156 C 169.25 179.789062 169.328125 180.714844 169.945312 181.226562 L 173.015625 183.777344 C 173.632812 184.292969 174.5625 184.199219 175.082031 183.574219 L 178.742188 179.167969 L 175.140625 176.175781 C 174.523438 175.664062 174.445312 174.738281 174.964844 174.109375 C 175.488281 173.484375 176.410156 173.390625 177.03125 173.902344 L 180.628906 176.894531 L 187.539062 168.578125 L 183.9375 165.585938 C 183.320312 165.074219 183.242188 164.148438 183.761719 163.519531 C 184.28125 162.894531 185.207031 162.800781 185.824219 163.316406 L 189.425781 166.304688 L 192.839844 162.199219 C 193.359375 161.570312 193.28125 160.644531 192.660156 160.128906 Z M 192.660156 160.128906"/></g></g></g><g fill="#640F24"><g><g><path d="M 22.726562 0 L 22.726562 -33.339844 L 13.617188 -33.339844 L 13.617188 -21.226562 L 10.613281 -21.226562 L 10.613281 -33.339844 L 1.503906 -33.339844 L 1.503906 0 L 10.613281 0 L 10.613281 -12.113281 L 13.617188 -12.113281 L 13.617188 0 Z M 22.726562 0" transform="translate(83.171 233.503)"/></g></g></g><g fill="#640F24"><g><g><path d="M 13.617188 -6.058594 L 10.613281 -6.058594 L 10.613281 -18.171875 L 13.617188 -18.171875 Z M 22.726562 -19.675781 C 22.726562 -22.144531 20.644531 -24.230469 18.171875 -24.230469 L 6.058594 -24.230469 C 3.585938 -24.230469 1.503906 -22.144531 1.503906 -19.675781 L 1.503906 -4.554688 C 1.503906 -2.082031 3.585938 0 6.058594 0 L 18.171875 0 C 20.644531 0 22.726562 -2.082031 22.726562 -4.554688 Z M 22.726562 -19.675781" transform="translate(108.12 233.503)"/></g></g></g><g fill="#640F24"><g><g><path d="M 22.726562 -4.554688 L 22.726562 -24.230469 L 13.617188 -24.230469 L 13.617188 -6.058594 L 10.613281 -6.058594 L 10.613281 -24.230469 L 1.503906 -24.230469 L 1.503906 -4.554688 C 1.503906 -2.082031 3.585938 0 6.058594 0 L 18.171875 0 C 20.644531 0 22.726562 -2.082031 22.726562 -4.554688 Z M 22.726562 -4.554688" transform="translate(133.07 233.503)"/></g></g></g><g fill="#640F24"><g><g><path d="M 19.675781 -4.554688 L 19.675781 -10.613281 C 19.675781 -13.082031 17.589844 -15.117188 15.117188 -15.117188 L 10.613281 -15.117188 L 10.613281 -18.171875 L 18.460938 -18.171875 L 18.460938 -24.230469 L 6.058594 -24.230469 C 3.585938 -24.230469 1.503906 -22.144531 1.503906 -19.675781 L 1.503906 -13.617188 C 1.503906 -11.144531 3.585938 -9.109375 6.058594 -9.109375 L 10.613281 -9.109375 L 10.613281 -6.058594 L 1.503906 -6.058594 L 1.503906 0 L 15.117188 0 C 17.589844 0 19.675781 -2.082031 19.675781 -4.554688 Z M 19.675781 -4.554688" transform="translate(158.02 233.503)"/></g></g></g><g fill="#640F24"><g><g><path d="M 13.617188 -15.117188 L 10.613281 -15.117188 L 10.613281 -18.171875 L 13.617188 -18.171875 Z M 22.726562 -13.617188 L 22.726562 -19.675781 C 22.726562 -22.144531 20.644531 -24.230469 18.171875 -24.230469 L 6.058594 -24.230469 C 3.585938 -24.230469 1.503906 -22.144531 1.503906 -19.675781 L 1.503906 -4.554688 C 1.503906 -2.082031 3.585938 0 6.058594 0 L 21.226562 0 L 21.226562 -6.058594 L 10.613281 -6.058594 L 10.613281 -9.109375 L 18.171875 -9.109375 C 20.644531 -9.109375 22.726562 -11.144531 22.726562 -13.617188 Z M 22.726562 -13.617188" transform="translate(179.918 233.503)"/></g></g></g><g fill="#FF0019"><g><g><path d="M 13.617188 -18.171875 L 10.613281 -18.171875 L 10.613281 -24.230469 L 13.617188 -24.230469 Z M 22.726562 -13.617188 L 22.726562 -28.785156 C 22.726562 -31.253906 20.644531 -33.339844 18.171875 -33.339844 L 1.503906 -33.339844 L 1.503906 0 L 10.613281 0 L 10.613281 -9.109375 L 18.171875 -9.109375 C 20.644531 -9.109375 22.726562 -11.144531 22.726562 -13.617188 Z M 22.726562 -13.617188" transform="translate(204.86 233.503)"/></g></g></g><g fill="#FF0019"><g><g><path d="M 10.613281 0 L 10.613281 -33.339844 L 1.503906 -33.339844 L 1.503906 0 Z M 10.613281 0" transform="translate(229.81 233.503)"/></g></g></g><g fill="#FF0019"><g><g><path d="M 22.726562 -4.554688 L 22.726562 -24.230469 L 13.617188 -24.230469 L 13.617188 -6.058594 L 10.613281 -6.058594 L 10.613281 -24.230469 L 1.503906 -24.230469 L 1.503906 -4.554688 C 1.503906 -2.082031 3.585938 0 6.058594 0 L 18.171875 0 C 20.644531 0 22.726562 -2.082031 22.726562 -4.554688 Z M 22.726562 -4.554688" transform="translate(242.648 233.503)"/></g></g></g><g fill="#FF0019"><g><g><path d="M 13.617188 -6.058594 L 10.613281 -6.058594 L 10.613281 -18.171875 L 13.617188 -18.171875 Z M 22.726562 4.554688 L 22.726562 -24.230469 L 6.058594 -24.230469 C 3.585938 -24.230469 1.503906 -22.144531 1.503906 -19.675781 L 1.503906 -4.554688 C 1.503906 -2.082031 3.585938 0 6.058594 0 L 13.617188 0 L 13.617188 3.003906 L 3.003906 3.003906 L 3.003906 9.109375 L 18.171875 9.109375 C 20.644531 9.109375 22.726562 7.027344 22.726562 4.554688 Z M 22.726562 4.554688" transform="translate(267.598 233.503)"/></g></g></g></svg>