<?xml version="1.0" encoding="utf-8"?>
<!-- Generator: Adobe Illustrator 21.0.2, SVG Export Plug-In . SVG Version: 6.00 Build 0)  -->
<svg version="1.1" id="Layer_1" xmlns="http://www.w3.org/2000/svg" xmlns:xlink="http://www.w3.org/1999/xlink" x="0px" y="0px"
	 viewBox="0 0 375 375" style="enable-background:new 0 0 375 375;" xml:space="preserve">
<style type="text/css">
	.st0{fill:#FFFFFF;}
	.st1{fill:#0068B4;}
	.st2{fill:#006838;}
	.st3{fill:#FF2D0A;}
	.st4{fill:#CE0084;}
</style>
<rect width="375" height="375"/>
<g>
	<path class="st0" d="M246,136.1c0,0,4-12.5,11.6,0c-1.4,8.4-6.7,14-9.6,16.5c-1.1,1-2.7,0.9-3.8,0c-4-3.4-12.5-11.9-7.7-17.3
		C242.6,128.5,246,136.1,246,136.1z"/>
	<circle class="st0" cx="245.2" cy="129.4" r="2.1"/>
</g>
<path class="st1" d="M179,245.6c9.6,6.7,21.1,10.9,33.5,11.4c16.7,0.7,32-5,43.7-14.9c3.2-2.7,4.5-6.7,3.9-10.4
	c-2,1.2-4.1,2.3-6.2,3.3c-9,4.3-19.1,7-29.3,7.2c-7.4,0.2-14.9-1-21.8-3.6c-2.7-1-5.2-2.2-7.7-3.6c-4.2-2.3-8.1-5.2-11.4-8.6
	c-3.8-3.8-6.9-8.1-9.3-12.7c4.1,4.4,8.6,8.3,13.4,11.5c3.1,2.1,6.3,3.8,9.6,5.2c5,2.2,10.2,3.7,15.6,4.5c3.8,0.6,7.7,0.8,11.6,0.7
	c9.3-0.2,18.6-2.2,27.5-5.4c2.3-0.8,4.5-1.7,6.8-2.7c-1-1.7-2.4-3.2-4.2-4.3c-2.4-1.4-4.7-2.6-7-3.5c-11.6-4.8-21.5-3.9-31.8-4.5
	c-6.7-0.4-13.5-1.5-21.1-5.2c-19.9-9.7-33.1-29.6-27.1-53c0.5-1.8-1.8-2.9-2.9-1.5c-8,10.5-12.8,23.6-12.8,37.9c0,1.5,0,3.1,0.1,4.6
	c0.2,2.6,0.5,5.1,1,7.6c1.8,9.3,5.7,18,11.2,25.5C168.3,236.7,173.3,241.6,179,245.6"/>
<path class="st2" d="M250.9,152.1c-8.7-7.9-19.6-13.4-31.8-15.5c-16.5-2.8-32.4,1-45.2,9.4c-3.5,2.3-5.3,6.1-5.2,9.8
	c2.2-0.9,4.3-1.8,6.6-2.5c9.5-3.2,19.8-4.6,30-3.6c7.4,0.7,14.6,2.8,21.2,6.2c2.5,1.3,4.9,2.8,7.2,4.5c3.9,2.8,7.4,6.2,10.3,9.9
	c3.3,4.2,5.9,8.8,7.7,13.7c-3.5-4.9-7.5-9.3-11.9-13c-2.8-2.4-5.7-4.5-8.9-6.4c-4.7-2.8-9.7-4.9-14.9-6.4c-3.7-1.1-7.5-1.8-11.4-2.1
	c-9.2-0.9-18.7-0.1-28,2c-2.4,0.5-4.7,1.1-7.1,1.8c0.7,1.8,2,3.5,3.6,4.8c2.2,1.7,4.4,3.1,6.5,4.3c10.9,6.2,20.8,6.5,31,8.4
	c6.6,1.2,13.2,3.1,20.3,7.7c18.6,12.1,29.2,33.4,20.4,55.9c-0.7,1.7,1.5,3.1,2.7,1.8c9.2-9.5,15.6-21.9,17.4-36
	c0.2-1.5,0.3-3,0.4-4.6c0.1-2.6,0.1-5.1,0-7.7c-0.7-9.5-3.5-18.6-8-26.6C260.4,162.3,256,156.8,250.9,152.1"/>
<g>
	<path class="st3" d="M194.2,124.9c0,0-4-12.5-11.6,0c1.4,8.4,6.7,14,9.6,16.5c1.1,1,2.7,0.9,3.8,0c4-3.4,12.5-11.9,7.7-17.3
		C197.6,117.3,194.2,124.9,194.2,124.9z"/>
	<circle class="st3" cx="195.7" cy="117.8" r="2.1"/>
</g>
<path class="st4" d="M218.1,134.5c0,0,4-12.5,11.6,0c-1.4,8.4-6.7,14-9.6,16.5c-1.1,1-2.7,0.9-3.8,0c-4-3.4-12.5-11.9-7.7-17.3
	C214.7,126.9,218.1,134.5,218.1,134.5z"/>
<g>
	<path class="st0" d="M107.4,194.3h-3.2c0-1.1,0-2,0.1-2.6c0.1-0.6,0.3-1.2,0.6-1.6c0.3-0.5,0.7-0.9,1.3-1.1
		c0.6-0.3,1.3-0.4,2.1-0.4c1.4,0,2.4,0.4,3.1,1.1s1.1,1.7,1.1,3.1c0,0.7-0.1,1.4-0.4,2.2s-0.7,1.7-1.2,2.6l-1.8,3.1h1.5
		c0.8,0,1.5,0.7,1.5,1.5v0c0,0.8-0.7,1.5-1.5,1.5h-4.3c-1.1,0-1.8-1.2-1.3-2.2l3.5-5.9c0.6-1,0.9-1.9,0.9-2.7c0-0.4-0.1-0.7-0.3-1
		s-0.4-0.4-0.7-0.4c-0.4,0-0.7,0.2-0.8,0.5c-0.1,0.3-0.2,1-0.2,2V194.3z"/>
	<path class="st0" d="M122.4,188.9h0.4c0.8,0,1.5,0.7,1.5,1.5V202c0,0.8-0.7,1.5-1.5,1.5h-0.4c-0.8,0-1.5-0.7-1.5-1.5v-11.7
		C121,189.5,121.6,188.9,122.4,188.9z"/>
	<path class="st0" d="M129,188.9h1c0.6,0,1.1,0.3,1.3,0.8l3.8,7.6l-0.1-1.6v-5.4c0-0.8,0.7-1.5,1.5-1.5h0.4c0.8,0,1.5,0.7,1.5,1.5
		V202c0,0.8-0.7,1.5-1.5,1.5h-1c-0.6,0-1.1-0.3-1.3-0.8l-3.7-7.5l0.1,1.8v5c0,0.8-0.7,1.5-1.5,1.5H129c-0.8,0-1.5-0.7-1.5-1.5v-11.7
		C127.5,189.5,128.2,188.9,129,188.9z"/>
	<path class="st0" d="M148.4,188.9h0.4c0.8,0,1.5,0.7,1.5,1.5v2.5c0,0.8,0.7,1.5,1.5,1.5l0,0c0.8,0,1.5-0.7,1.5-1.5v-2.5
		c0-0.8,0.7-1.5,1.5-1.5h0.4c0.8,0,1.5,0.7,1.5,1.5V202c0,0.8-0.7,1.5-1.5,1.5h-0.4c-0.8,0-1.5-0.7-1.5-1.5v-3.1
		c0-0.8-0.7-1.5-1.5-1.5l0,0c-0.8,0-1.5,0.7-1.5,1.5v3.1c0,0.8-0.7,1.5-1.5,1.5h-0.4c-0.8,0-1.5-0.7-1.5-1.5v-11.7
		C146.9,189.5,147.6,188.9,148.4,188.9z"/>
	<path class="st0" d="M167.9,203.5h-0.4c-0.7,0-1.3-0.5-1.4-1.1l0-0.2c-0.2-0.7-0.7-1.1-1.4-1.1h-1.2c-0.7,0-1.3,0.5-1.4,1.1l0,0.2
		c-0.2,0.7-0.8,1.1-1.4,1.1h-0.3c-1,0-1.7-0.9-1.4-1.9l2.9-11c0.3-1.1,1.2-1.8,2.3-1.8l0,0c1.1,0,2.1,0.7,2.3,1.8l2.9,11
		C169.6,202.6,168.9,203.5,167.9,203.5z M165.2,198.4c-0.5-2.2-0.9-4.2-1.1-6.2h0c-0.3,2-0.6,4.1-1.1,6.2H165.2z"/>
	<path class="st0" d="M171.5,190.4c0-0.8,0.7-1.5,1.5-1.5h2.4c1.6,0,2.8,0.4,3.7,1.2c0.9,0.8,1.4,1.9,1.4,3.3c0,0.7-0.2,1.4-0.5,2.1
		c-0.2,0.3-0.4,0.6-0.7,0.9c-0.5,0.4-0.7,1.1-0.4,1.7l1.4,3.5c0.4,1-0.3,2-1.4,2h-0.3c-0.6,0-1.1-0.4-1.4-0.9l-2.3-5.7h-0.1v5.2
		c0,0.8-0.7,1.5-1.5,1.5H173c-0.8,0-1.5-0.7-1.5-1.5V190.4z M174.9,191.7v3.5c1.5,0,2.2-0.5,2.2-1.5c0-0.7-0.2-1.2-0.5-1.5
		C176.2,191.9,175.6,191.7,174.9,191.7z"/>
	<path class="st0" d="M185.3,188.9h1.6c0.7,0,1.3,0.5,1.5,1.2c0.5,2.6,0.9,4.9,1.2,6.9l0.4-2.3c0.1-0.9,0.3-1.7,0.5-2.6l0.4-2.1
		c0.1-0.7,0.7-1.2,1.4-1.2h1.8c0.7,0,1.4,0.6,1.5,1.3l1.3,11.7c0.1,0.9-0.6,1.6-1.5,1.6h-0.3c-0.8,0-1.4-0.6-1.5-1.3l-0.8-8.7
		l-2,10.1h-2.2l-2.1-10.1l-0.7,8.7c-0.1,0.8-0.7,1.3-1.5,1.3h-0.1c-0.9,0-1.6-0.8-1.5-1.6l1.3-11.7
		C184,189.5,184.6,188.9,185.3,188.9z"/>
	<path class="st0" d="M204.4,203.9c-1.8,0-3.1-0.7-4-2c-0.9-1.4-1.4-3.3-1.4-5.9c0-2.4,0.5-4.2,1.4-5.5c0.9-1.3,2.2-2,3.9-2
		c1.8,0,3.1,0.7,4.1,2c0.9,1.3,1.4,3.2,1.4,5.7c0,2.5-0.5,4.4-1.4,5.7S206.1,203.9,204.4,203.9z M204.3,191.8
		c-1.2,0-1.8,1.4-1.8,4.2c0,1.8,0.2,3,0.5,3.6c0.3,0.6,0.7,0.9,1.3,0.9c0.6,0,1.1-0.3,1.4-0.9s0.5-1.8,0.5-3.6
		C206.2,193.2,205.6,191.8,204.3,191.8z"/>
	<path class="st0" d="M213.7,188.9h1c0.6,0,1.1,0.3,1.3,0.8l3.8,7.6l-0.1-1.6v-5.4c0-0.8,0.7-1.5,1.5-1.5h0.4c0.8,0,1.5,0.7,1.5,1.5
		V202c0,0.8-0.7,1.5-1.5,1.5h-1c-0.6,0-1.1-0.3-1.3-0.8l-3.7-7.5l0.1,1.8v5c0,0.8-0.7,1.5-1.5,1.5h-0.4c-0.8,0-1.5-0.7-1.5-1.5
		v-11.7C212.2,189.5,212.9,188.9,213.7,188.9z"/>
	<path class="st0" d="M227.1,188.9h0.4c0.6,0,1.2,0.4,1.4,0.9c0.6,1.6,1.1,3,1.4,3.9h0c0.3-1,0.8-2.3,1.4-3.9c0.2-0.6,0.8-1,1.4-1
		h0.4c1.1,0,1.8,1.1,1.3,2.1l-2.7,5.6c-0.1,0.2-0.2,0.4-0.2,0.6v4.8c0,0.8-0.7,1.5-1.5,1.5h-0.4c-0.8,0-1.5-0.7-1.5-1.5v-4.8
		c0-0.2-0.1-0.4-0.1-0.6l-2.7-5.6C225.3,190,226,188.9,227.1,188.9z"/>
</g>
<polygon class="st1" points="165.6,201.4 162.6,201.4 162.9,198.4 165.3,198.4 "/>
</svg>
