<svg xmlns="http://www.w3.org/2000/svg" width="375" viewBox="0 0 375 375" height="375" version="1.0"><defs><clipPath id="a"><path d="M 112 114 L 259 114 L 259 217.558594 L 112 217.558594 Z M 112 114"/></clipPath></defs><path fill="#FFF" d="M-37.5 -37.5H412.5V412.5H-37.5z"/><path fill="#FFF" d="M-37.5 -37.5H412.5V412.5H-37.5z"/><path fill="#FFF" d="M-37.5 -37.5H412.5V412.5H-37.5z"/><path d="M 114.9375 140.832031 C 114.753906 140.832031 114.59375 140.691406 114.574219 140.503906 C 112.976562 125.832031 117.820312 110.585938 128.214844 97.578125 C 137.277344 86.234375 149.792969 77.570312 161.691406 74.398438 C 184.332031 68.367188 198.429688 73.546875 198.570312 73.597656 C 198.757812 73.667969 198.855469 73.878906 198.78125 74.070312 C 198.710938 74.257812 198.5 74.355469 198.3125 74.28125 C 198.175781 74.230469 184.277344 69.136719 161.878906 75.105469 C 140.550781 80.789062 111.691406 107.320312 115.300781 140.425781 C 115.320312 140.625 115.175781 140.808594 114.976562 140.828125 C 114.960938 140.832031 114.949219 140.832031 114.9375 140.832031"/><path d="M 202.945312 75.628906 C 203.914062 76.160156 204.863281 76.710938 205.804688 77.253906 C 206.601562 77.71875 207.402344 78.183594 208.207031 78.632812 C 209.761719 79.496094 210.332031 79.421875 210.398438 79.351562 C 210.503906 79.167969 209.972656 78.074219 208.355469 77.011719 C 206.828125 76 204.953125 75.628906 202.945312 75.628906 Z M 183.453125 73.835938 C 181.792969 73.835938 180.882812 74.796875 179.71875 76.027344 C 179.210938 76.5625 178.636719 77.167969 177.945312 77.742188 C 177.476562 78.132812 176.871094 78.429688 176.289062 78.71875 C 174.855469 79.421875 174.003906 79.933594 174.246094 81.070312 C 174.410156 81.824219 174.761719 82.320312 175.324219 82.582031 C 177.488281 83.59375 182.246094 81.085938 185.71875 79.257812 C 186.835938 78.667969 187.808594 78.15625 188.582031 77.8125 C 188.613281 77.285156 188.519531 76.792969 188.296875 76.339844 C 187.792969 75.3125 186.628906 74.503906 185.019531 74.070312 C 184.425781 73.910156 183.914062 73.835938 183.453125 73.835938 Z M 175.644531 99.621094 C 175.484375 100.992188 176.019531 102.652344 176.929688 103.554688 C 177.4375 104.058594 178.324219 104.515625 178.925781 104.40625 C 179.203125 104.359375 179.402344 104.191406 179.542969 103.898438 C 180.078125 102.753906 177.640625 100.433594 176.425781 99.71875 C 176.285156 99.636719 176.140625 99.554688 176 99.476562 C 175.882812 99.519531 175.761719 99.570312 175.644531 99.621094 Z M 212.515625 170.328125 C 212.535156 170.386719 212.554688 170.441406 212.570312 170.5 C 213.085938 172.136719 213.621094 173.832031 213.167969 175.726562 C 213.023438 176.316406 212.554688 177.0625 212.007812 177.925781 C 211.132812 179.304688 210.046875 181.027344 210.644531 181.867188 C 210.703125 181.949219 210.796875 182.039062 211.03125 182.019531 C 212.671875 181.914062 216.425781 177.707031 216.902344 176.816406 C 217.652344 175.417969 218.117188 173.015625 217.5 171.320312 C 217.191406 170.46875 216.648438 169.882812 215.878906 169.574219 C 214.691406 169.097656 213.566406 169.484375 212.515625 170.328125 Z M 182.476562 200.816406 C 181.007812 200.816406 179.597656 200.492188 178.34375 199.703125 C 175.921875 198.183594 175.902344 195.613281 175.886719 193.125 C 175.878906 192.34375 175.875 191.535156 175.796875 190.75 C 175.480469 187.480469 174.804688 186.019531 172.933594 183.292969 C 170.402344 179.609375 170.210938 176.109375 172.3125 171.949219 C 174.289062 168.039062 174.269531 160.996094 172.265625 155.566406 C 171.328125 153.023438 169.550781 149.71875 166.421875 148.417969 C 162.167969 146.648438 158.40625 147.394531 154.050781 148.257812 L 153.144531 148.4375 C 146.703125 149.699219 143.9375 149.589844 140.410156 143.375 C 140.074219 142.785156 139.734375 142.21875 139.40625 141.664062 C 137.417969 138.332031 135.703125 135.449219 136.515625 130.804688 C 138.269531 120.785156 145.605469 113.972656 149.820312 110.800781 C 156.210938 106 160.265625 104.191406 169.816406 108.332031 C 171.054688 108.871094 172.328125 109.46875 173.558594 110.050781 C 176.21875 111.300781 178.96875 112.597656 181.675781 113.421875 C 186.265625 114.8125 193.097656 115.667969 197.265625 113.492188 C 198.707031 112.738281 199.550781 111.777344 199.773438 110.632812 C 200.019531 109.347656 199.46875 107.875 198.179688 106.371094 C 196.148438 103.996094 194.808594 104.066406 192.585938 104.175781 C 191.953125 104.210938 191.234375 104.246094 190.421875 104.226562 C 187.863281 104.164062 185.820312 102.808594 183.84375 101.503906 C 181.660156 100.054688 179.578125 98.679688 176.972656 99.199219 C 178.136719 99.960938 181.027344 102.453125 180.199219 104.210938 C 179.960938 104.71875 179.566406 105.035156 179.054688 105.125 C 178.136719 105.289062 177.046875 104.695312 176.417969 104.074219 C 175.292969 102.957031 174.675781 100.953125 174.949219 99.308594 C 174.96875 99.199219 175.03125 99.109375 175.125 99.054688 C 173.191406 98.207031 171.160156 97.921875 169.386719 98.28125 C 167.007812 98.753906 165.683594 100.191406 164.277344 101.710938 C 163.175781 102.902344 162.03125 104.140625 160.351562 104.867188 L 160.113281 104.972656 C 158.15625 105.824219 154.507812 107.417969 152.976562 104.894531 C 152.375 103.90625 152.273438 102.382812 152.703125 100.917969 C 153.117188 99.523438 153.914062 98.457031 154.898438 97.980469 C 155.671875 97.609375 156.417969 97.726562 157.078125 97.828125 C 157.816406 97.945312 158.453125 98.042969 159.132812 97.5625 C 160.027344 96.925781 160.082031 96.308594 160.164062 95.371094 C 160.183594 95.128906 160.207031 94.875 160.246094 94.609375 C 160.46875 93.050781 161.15625 91.289062 161.996094 90.121094 C 163.535156 87.984375 167.066406 86.695312 168.96875 86.003906 C 171.011719 85.257812 173.171875 84.925781 175.261719 84.605469 C 176.59375 84.398438 177.972656 84.1875 179.292969 83.871094 L 179.742188 83.765625 C 182.660156 83.070312 187.070312 82.027344 188.246094 79.179688 C 188.3125 79.015625 188.371094 78.851562 188.417969 78.695312 C 187.742188 79.019531 186.929688 79.445312 186.058594 79.902344 C 182.25 81.910156 177.507812 84.410156 175.015625 83.242188 C 174.246094 82.882812 173.746094 82.203125 173.535156 81.226562 C 173.152344 79.449219 174.648438 78.710938 175.96875 78.0625 C 176.511719 77.792969 177.078125 77.515625 177.480469 77.179688 C 178.136719 76.636719 178.671875 76.070312 179.191406 75.523438 C 180.722656 73.90625 182.046875 72.507812 185.210938 73.363281 C 187.023438 73.855469 188.351562 74.796875 188.953125 76.019531 C 189.183594 76.492188 189.304688 76.992188 189.316406 77.519531 C 189.476562 77.46875 189.621094 77.425781 189.75 77.398438 C 190.8125 77.183594 191.992188 76.882812 193.242188 76.5625 C 195.441406 76 197.875 75.375 200.265625 75.074219 C 199.714844 74.816406 199.160156 74.566406 198.59375 74.339844 C 198.40625 74.261719 198.316406 74.050781 198.390625 73.863281 C 198.464844 73.675781 198.679688 73.585938 198.867188 73.660156 C 199.816406 74.042969 200.738281 74.476562 201.648438 74.941406 C 204.261719 74.765625 206.753906 75.078125 208.757812 76.398438 C 210.5 77.550781 211.472656 78.980469 211.019531 79.730469 C 210.632812 80.375 209.566406 80.222656 207.855469 79.269531 C 207.046875 78.820312 206.242188 78.355469 205.4375 77.886719 C 204.152344 77.144531 202.84375 76.382812 201.496094 75.6875 C 198.796875 75.894531 195.953125 76.621094 193.425781 77.269531 C 192.164062 77.59375 190.976562 77.894531 189.898438 78.117188 C 189.722656 78.152344 189.507812 78.222656 189.257812 78.324219 C 189.191406 78.691406 189.078125 79.070312 188.917969 79.460938 C 187.601562 82.652344 182.972656 83.75 179.90625 84.476562 L 179.460938 84.582031 C 178.113281 84.902344 176.71875 85.117188 175.375 85.324219 C 173.320312 85.644531 171.191406 85.96875 169.214844 86.691406 C 167.390625 87.355469 163.992188 88.59375 162.585938 90.550781 C 161.820312 91.609375 161.171875 93.285156 160.96875 94.710938 C 160.933594 94.964844 160.910156 95.203125 160.890625 95.433594 C 160.804688 96.410156 160.722656 97.328125 159.554688 98.15625 C 158.632812 98.8125 157.746094 98.675781 156.964844 98.550781 C 156.359375 98.457031 155.785156 98.367188 155.210938 98.640625 C 154.425781 99.019531 153.75 99.949219 153.402344 101.125 C 153.027344 102.398438 153.101562 103.695312 153.597656 104.515625 C 154.800781 106.492188 157.941406 105.121094 159.820312 104.300781 L 160.058594 104.199219 C 161.601562 103.527344 162.644531 102.402344 163.746094 101.210938 C 165.164062 99.675781 166.636719 98.085938 169.242188 97.5625 C 171.363281 97.136719 173.804688 97.546875 176.054688 98.683594 C 179.320312 97.632812 181.820312 99.289062 184.246094 100.890625 C 186.136719 102.144531 188.089844 103.4375 190.441406 103.496094 C 191.222656 103.515625 191.929688 103.476562 192.550781 103.445312 C 194.824219 103.332031 196.46875 103.25 198.734375 105.894531 C 200.171875 107.574219 200.777344 109.261719 200.488281 110.773438 C 200.222656 112.144531 199.253906 113.277344 197.601562 114.136719 C 193.246094 116.414062 186.410156 115.621094 181.464844 114.121094 C 178.707031 113.28125 175.933594 111.976562 173.25 110.710938 C 172.023438 110.132812 170.753906 109.535156 169.527344 109.003906 C 160.285156 104.996094 156.558594 106.652344 150.257812 111.386719 C 146.128906 114.492188 138.941406 121.160156 137.234375 130.929688 C 136.464844 135.308594 138.117188 138.082031 140.03125 141.289062 C 140.363281 141.847656 140.703125 142.417969 141.042969 143.015625 C 144.222656 148.609375 146.324219 149.027344 153.003906 147.722656 L 153.910156 147.542969 C 158.378906 146.65625 162.242188 145.886719 166.703125 147.742188 C 170.074219 149.144531 171.960938 152.632812 172.949219 155.3125 C 175.050781 161.003906 175.054688 168.140625 172.964844 172.28125 C 170.972656 176.226562 171.140625 179.394531 173.535156 182.878906 C 175.484375 185.722656 176.191406 187.25 176.523438 190.679688 C 176.601562 191.496094 176.609375 192.324219 176.613281 193.121094 C 176.632812 195.621094 176.648438 197.777344 178.730469 199.085938 C 183.238281 201.917969 190.101562 198.128906 193.792969 195.621094 C 197.890625 192.832031 200.257812 190.050781 201.96875 186.023438 C 202.214844 185.441406 202.433594 184.894531 202.640625 184.375 C 203.433594 182.390625 204.117188 180.675781 205.769531 178.675781 C 206.253906 178.085938 206.832031 177.097656 207.496094 175.953125 C 208.652344 173.96875 210.046875 171.582031 211.679688 170.085938 C 211.335938 168.964844 211.042969 167.804688 211.109375 166.558594 C 211.28125 163.453125 213.132812 161.496094 214.921875 159.601562 C 215.804688 158.667969 216.542969 157.632812 217.257812 156.628906 C 217.9375 155.671875 218.636719 154.683594 219.46875 153.78125 C 219.753906 153.46875 220.363281 152.96875 221.128906 152.335938 C 223.367188 150.5 227.53125 147.078125 227.144531 145.136719 C 227.03125 144.566406 226.480469 144.132812 225.503906 143.839844 C 225.3125 143.78125 225.203125 143.578125 225.261719 143.382812 C 225.320312 143.191406 225.523438 143.082031 225.714844 143.136719 C 226.964844 143.515625 227.6875 144.136719 227.859375 144.992188 C 228.332031 147.363281 224.277344 150.695312 221.59375 152.902344 C 220.875 153.492188 220.257812 154 220.003906 154.273438 C 219.207031 155.148438 218.515625 156.117188 217.851562 157.050781 C 217.121094 158.074219 216.371094 159.132812 215.453125 160.105469 C 213.671875 161.984375 211.992188 163.757812 211.839844 166.597656 C 211.785156 167.628906 212 168.59375 212.289062 169.578125 C 213.460938 168.703125 214.746094 168.332031 216.152344 168.894531 C 217.117188 169.28125 217.804688 170.015625 218.1875 171.070312 C 218.882812 172.984375 218.390625 175.582031 217.546875 177.160156 C 217.085938 178.019531 213.140625 182.617188 211.078125 182.75 C 210.527344 182.789062 210.214844 182.519531 210.050781 182.289062 C 209.167969 181.050781 210.347656 179.179688 211.390625 177.53125 C 211.882812 176.757812 212.34375 176.027344 212.457031 175.554688 C 212.851562 173.910156 212.414062 172.425781 211.921875 170.863281 C 210.476562 172.292969 209.195312 174.492188 208.125 176.324219 C 207.445312 177.492188 206.855469 178.503906 206.332031 179.140625 C 204.753906 181.054688 204.121094 182.640625 203.316406 184.648438 C 203.109375 185.171875 202.890625 185.71875 202.640625 186.308594 C 200.894531 190.421875 198.371094 193.390625 194.203125 196.226562 C 191.355469 198.160156 186.683594 200.816406 182.476562 200.816406"/><g clip-path="url(#a)"><path d="M 183.40625 217.4375 C 179.59375 217.4375 175.882812 217.167969 172.289062 216.632812 C 160.496094 214.875 147.875 209.070312 137.65625 200.710938 C 128.125 192.90625 121.09375 182.902344 116.761719 170.96875 C 112.828125 160.140625 111.324219 147.988281 112.414062 135.832031 C 112.429688 135.628906 112.609375 135.480469 112.808594 135.5 C 113.007812 135.515625 113.15625 135.695312 113.140625 135.894531 C 110.820312 161.835938 119.925781 185.253906 138.121094 200.144531 C 148.234375 208.421875 160.730469 214.167969 172.398438 215.910156 C 183.140625 217.511719 194.9375 216.691406 207.464844 213.472656 C 223.402344 209.375 240.738281 194.441406 246.929688 183.0625 C 246.933594 183.050781 246.941406 183.035156 246.953125 183.023438 C 246.964844 183.003906 248.328125 181.066406 251.242188 175.222656 C 254.207031 169.277344 258.21875 154.210938 257.414062 140.757812 C 256.378906 123.460938 250.648438 114.835938 250.59375 114.75 C 250.480469 114.585938 250.523438 114.355469 250.6875 114.242188 C 250.855469 114.128906 251.082031 114.171875 251.195312 114.339844 C 251.253906 114.425781 257.09375 123.21875 258.144531 140.714844 C 258.957031 154.300781 254.894531 169.535156 251.894531 175.550781 C 249.066406 181.222656 247.714844 183.207031 247.558594 183.429688 C 241.3125 194.894531 224.285156 209.902344 207.644531 214.179688 C 199.207031 216.347656 191.09375 217.4375 183.40625 217.4375"/></g><path d="M 227.074219 88.953125 C 226.9375 88.953125 226.804688 88.96875 226.679688 88.996094 C 226.183594 89.109375 225.851562 89.472656 225.660156 90.109375 C 224.933594 92.511719 230.292969 96.699219 233.167969 98.945312 C 234 99.59375 234.714844 100.152344 235.148438 100.550781 C 236.644531 101.921875 238.664062 103.386719 240.804688 104.9375 C 242.175781 105.933594 243.5625 106.9375 244.875 107.960938 C 243.839844 106.0625 242.679688 104.238281 241.40625 102.511719 C 238.308594 98.316406 236.992188 96.710938 233.574219 92.980469 C 232.738281 92.066406 229.175781 88.953125 227.074219 88.953125 Z M 220.710938 114.472656 C 220.355469 114.472656 220.03125 114.582031 219.765625 114.796875 C 219.3125 115.160156 219.109375 115.757812 219.207031 116.4375 C 219.453125 118.148438 221.386719 120.082031 223.035156 120.816406 C 224.265625 121.359375 225.808594 121.175781 227.335938 120.9375 C 226.582031 120.167969 225.914062 119.277344 225.308594 118.472656 C 224.964844 118.019531 224.644531 117.589844 224.335938 117.222656 L 224.179688 117.035156 C 223.398438 116.09375 222.515625 115.027344 221.417969 114.609375 C 221.175781 114.519531 220.9375 114.472656 220.710938 114.472656 Z M 229.011719 121.417969 C 229.644531 121.855469 230.324219 122.144531 231.054688 122.183594 C 231.628906 122.210938 232.1875 122.082031 232.742188 121.878906 C 231.757812 121.1875 230.460938 121.222656 229.011719 121.417969 Z M 202.273438 118.582031 C 202.050781 120.972656 203.394531 122.347656 204.9375 123.921875 C 205.546875 124.542969 206.171875 125.179688 206.71875 125.90625 C 207.910156 127.496094 208.605469 129.402344 209.28125 131.25 C 209.878906 132.882812 210.496094 134.574219 211.449219 136.007812 C 211.667969 136.335938 211.878906 136.65625 212.082031 136.972656 C 213.613281 139.355469 214.71875 141.074219 217.726562 140.351562 C 217.980469 140.292969 218.242188 140.222656 218.515625 140.140625 C 214.027344 136.820312 210.878906 129.523438 210.433594 128.445312 C 208.621094 124.078125 206.089844 121.015625 202.273438 118.582031 Z M 250.625 139.28125 C 250.609375 140 250.648438 140.710938 250.757812 141.410156 C 250.875 142.132812 251.066406 142.5625 251.339844 142.722656 C 251.535156 142.839844 251.8125 142.832031 252.164062 142.699219 C 252.261719 142.664062 252.429688 142.589844 252.46875 142.492188 C 252.539062 142.300781 252.300781 141.871094 252.09375 141.488281 L 251.96875 141.265625 C 251.566406 140.511719 251.109375 139.835938 250.625 139.28125 Z M 251.664062 143.535156 C 251.40625 143.535156 251.175781 143.476562 250.972656 143.355469 C 250.339844 142.984375 250.136719 142.132812 250.039062 141.523438 C 249.878906 140.542969 249.867188 139.546875 249.925781 138.554688 C 247.710938 136.246094 246.628906 133.238281 245.582031 130.324219 C 244.277344 126.691406 243.042969 123.257812 239.796875 121.019531 C 238.136719 119.875 236.664062 120.675781 234.960938 121.609375 C 234.652344 121.777344 234.335938 121.949219 234.019531 122.109375 C 234.300781 122.496094 234.550781 122.96875 234.753906 123.550781 C 235.503906 125.65625 235.28125 127.835938 234.09375 130.035156 C 231.613281 134.617188 225.109375 138.574219 220.195312 140.359375 C 221.238281 140.886719 222.335938 141.152344 223.46875 141.023438 C 223.671875 141 223.851562 141.144531 223.875 141.34375 C 223.898438 141.542969 223.753906 141.726562 223.550781 141.75 C 222.050781 141.917969 220.621094 141.480469 219.292969 140.667969 C 218.804688 140.824219 218.335938 140.957031 217.894531 141.0625 C 214.386719 141.90625 213.035156 139.804688 211.46875 137.371094 C 211.269531 137.058594 211.0625 136.738281 210.84375 136.414062 C 209.839844 134.90625 209.207031 133.175781 208.597656 131.5 C 207.910156 129.621094 207.261719 127.847656 206.136719 126.347656 C 205.617188 125.660156 205.007812 125.035156 204.417969 124.433594 C 202.773438 122.753906 201.070312 121.015625 201.632812 117.910156 C 201.65625 117.792969 201.734375 117.695312 201.84375 117.644531 C 201.953125 117.59375 202.078125 117.601562 202.179688 117.664062 C 206.402344 120.230469 209.15625 123.46875 211.105469 128.164062 C 211.558594 129.25 214.851562 136.902344 219.371094 139.875 C 224.203125 138.257812 230.957031 134.296875 233.453125 129.683594 C 234.535156 127.679688 234.742188 125.695312 234.066406 123.792969 C 233.867188 123.226562 233.621094 122.78125 233.332031 122.429688 C 232.597656 122.742188 231.832031 122.953125 231.019531 122.910156 C 229.886719 122.855469 228.894531 122.320312 228.011719 121.570312 C 227.96875 121.578125 227.921875 121.582031 227.878906 121.589844 C 226.109375 121.875 224.28125 122.167969 222.738281 121.484375 C 220.917969 120.675781 218.773438 118.554688 218.484375 116.542969 C 218.351562 115.613281 218.660156 114.746094 219.308594 114.226562 C 219.953125 113.707031 220.816406 113.597656 221.675781 113.925781 C 222.953125 114.414062 223.902344 115.558594 224.738281 116.566406 L 224.898438 116.753906 C 225.214844 117.136719 225.542969 117.570312 225.890625 118.03125 C 226.582031 118.953125 227.359375 119.988281 228.238281 120.792969 C 230.1875 120.488281 232.136719 120.289062 233.511719 121.542969 C 233.882812 121.367188 234.25 121.164062 234.613281 120.964844 C 236.367188 120.007812 238.183594 119.015625 240.210938 120.417969 C 243.648438 122.789062 244.980469 126.496094 246.269531 130.078125 C 247.214844 132.710938 248.191406 135.421875 250.007812 137.558594 C 250.09375 136.746094 250.210938 135.941406 250.332031 135.144531 C 250.535156 133.773438 250.742188 132.359375 250.761719 130.996094 C 250.796875 127.695312 250.449219 124.324219 249.726562 120.972656 C 248.875 117.035156 247.519531 113.1875 245.722656 109.582031 C 244.027344 108.175781 242.144531 106.8125 240.378906 105.53125 C 238.21875 103.96875 236.183594 102.492188 234.65625 101.089844 C 234.246094 100.710938 233.539062 100.160156 232.722656 99.523438 C 229.285156 96.835938 224.09375 92.78125 224.960938 89.894531 C 225.230469 89 225.753906 88.457031 226.515625 88.285156 C 229.078125 87.699219 233.371094 91.679688 234.113281 92.484375 C 237.550781 96.242188 238.875 97.855469 241.992188 102.078125 C 243.617188 104.28125 245.058594 106.636719 246.296875 109.101562 C 248.253906 110.734375 249.941406 112.410156 251.003906 114.152344 C 251.105469 114.324219 251.050781 114.550781 250.878906 114.65625 C 250.707031 114.757812 250.484375 114.703125 250.378906 114.53125 C 249.609375 113.269531 248.453125 112.007812 247.097656 110.773438 C 248.566406 113.988281 249.691406 117.371094 250.4375 120.820312 C 251.175781 124.222656 251.527344 127.652344 251.488281 131.003906 C 251.472656 132.417969 251.257812 133.859375 251.050781 135.25 C 250.902344 136.25 250.753906 137.261719 250.675781 138.273438 C 250.6875 138.285156 250.699219 138.296875 250.710938 138.308594 C 251.402344 138.980469 252.058594 139.882812 252.613281 140.917969 L 252.730469 141.136719 C 253.042969 141.707031 253.339844 142.246094 253.148438 142.75 C 253.042969 143.03125 252.796875 143.246094 252.414062 143.386719 C 252.144531 143.484375 251.894531 143.535156 251.664062 143.535156"/><path d="M 137.296875 162.742188 C 137.285156 162.742188 137.277344 162.742188 137.265625 162.742188 C 137.160156 162.75 137.035156 162.78125 136.949219 162.984375 C 136.75 163.453125 136.90625 164.382812 137.257812 164.988281 C 137.402344 164.742188 137.597656 164.320312 137.742188 163.886719 C 137.832031 163.625 138.015625 163.289062 138.238281 162.933594 C 137.902344 162.839844 137.507812 162.742188 137.296875 162.742188 Z M 129.921875 166.6875 C 129.863281 166.6875 129.804688 166.675781 129.746094 166.652344 C 129.375 166.515625 129.042969 166.085938 128.800781 162.167969 C 128.734375 161.074219 128.578125 158.519531 128.210938 157.65625 C 128.011719 157.183594 127.132812 156.566406 126.355469 156.027344 C 125.851562 155.675781 125.375 155.34375 125.019531 155.015625 C 123.832031 153.925781 123.398438 152.984375 123.769531 152.292969 C 123.90625 152.035156 124.132812 151.855469 124.417969 151.777344 C 125.03125 151.605469 125.914062 151.863281 127.105469 152.570312 C 127.59375 152.859375 127.980469 153.136719 128.324219 153.382812 C 129.125 153.953125 129.707031 154.367188 130.945312 154.488281 C 132.039062 154.597656 134.328125 154.011719 136.164062 153.539062 C 137.386719 153.226562 138.351562 152.976562 138.804688 152.972656 C 139.398438 152.960938 139.75 153.132812 139.851562 153.476562 C 139.96875 153.863281 139.683594 154.308594 139.074219 154.703125 L 138.390625 155.144531 C 137.234375 155.886719 135.085938 157.265625 134.535156 157.667969 C 134.527344 157.902344 135.3125 158.496094 135.648438 158.75 C 135.839844 158.898438 136.015625 159.03125 136.144531 159.140625 C 136.292969 159.273438 136.308594 159.503906 136.179688 159.65625 C 136.046875 159.808594 135.816406 159.824219 135.664062 159.691406 C 135.546875 159.589844 135.386719 159.46875 135.210938 159.335938 C 134.375 158.703125 133.785156 158.214844 133.789062 157.664062 C 133.789062 157.503906 133.84375 157.269531 134.101562 157.078125 C 134.671875 156.660156 136.753906 155.328125 137.996094 154.527344 L 138.679688 154.089844 C 138.90625 153.945312 139.039062 153.808594 139.101562 153.722656 C 139.042969 153.710938 138.953125 153.699219 138.8125 153.703125 C 138.449219 153.707031 137.425781 153.96875 136.34375 154.246094 C 134.453125 154.734375 132.101562 155.339844 130.875 155.21875 C 129.441406 155.078125 128.761719 154.59375 127.902344 153.976562 C 127.570312 153.742188 127.195312 153.472656 126.734375 153.199219 C 125.375 152.394531 124.800781 152.429688 124.613281 152.480469 C 124.515625 152.507812 124.453125 152.554688 124.410156 152.636719 C 124.273438 152.894531 124.480469 153.527344 125.511719 154.476562 C 125.832031 154.769531 126.289062 155.089844 126.773438 155.425781 C 127.714844 156.082031 128.601562 156.703125 128.882812 157.371094 C 129.246094 158.230469 129.40625 160.164062 129.53125 162.121094 C 129.675781 164.523438 129.855469 165.453125 129.972656 165.8125 C 130.21875 165.421875 130.597656 164.4375 130.839844 163.40625 C 130.910156 163.113281 130.957031 162.746094 131.011719 162.355469 C 131.167969 161.191406 131.332031 159.980469 132.171875 159.96875 C 132.472656 159.96875 132.761719 160.089844 133.089844 160.234375 C 133.71875 160.519531 134.582031 160.90625 136.277344 160.617188 C 136.878906 160.515625 137.386719 160.421875 137.816406 160.34375 C 139.359375 160.0625 139.933594 159.957031 140.460938 160.191406 C 140.585938 160.246094 140.914062 160.394531 140.957031 160.734375 C 141.003906 161.109375 140.691406 161.351562 140.175781 161.753906 L 140.136719 161.785156 C 139.925781 161.949219 139.683594 162.207031 139.445312 162.5 C 140.480469 162.792969 141.453125 163.234375 142.292969 163.632812 C 142.476562 163.71875 142.554688 163.9375 142.46875 164.121094 C 142.382812 164.304688 142.164062 164.382812 141.984375 164.292969 C 141.09375 163.871094 140.058594 163.402344 138.980469 163.132812 C 138.722656 163.515625 138.515625 163.882812 138.433594 164.125 C 138.222656 164.742188 137.796875 165.796875 137.316406 165.886719 C 137.15625 165.917969 136.992188 165.855469 136.882812 165.726562 C 136.300781 165.035156 135.910156 163.5625 136.28125 162.695312 C 136.457031 162.28125 136.792969 162.039062 137.222656 162.015625 C 137.5625 161.992188 138.0625 162.125 138.675781 162.296875 C 138.675781 162.296875 138.679688 162.296875 138.683594 162.296875 C 139.023438 161.851562 139.390625 161.441406 139.6875 161.207031 L 139.726562 161.175781 C 139.871094 161.0625 140.03125 160.941406 140.132812 160.847656 C 139.808594 160.722656 139.210938 160.832031 137.945312 161.0625 C 137.515625 161.140625 137.003906 161.234375 136.398438 161.339844 C 134.488281 161.664062 133.464844 161.207031 132.789062 160.902344 C 132.535156 160.789062 132.335938 160.695312 132.183594 160.699219 C 131.960938 160.785156 131.800781 161.957031 131.734375 162.457031 C 131.679688 162.863281 131.625 163.246094 131.550781 163.574219 C 131.523438 163.683594 130.925781 166.21875 130.1875 166.617188 C 130.101562 166.660156 130.011719 166.6875 129.921875 166.6875"/><path d="M 257.199219 171.171875 C 257.132812 171.171875 257.066406 171.15625 257.003906 171.117188 C 256.835938 171.011719 256.785156 170.785156 256.890625 170.613281 C 259.941406 165.742188 256.9375 161.34375 255.503906 159.675781 C 253.550781 157.40625 250.519531 155.992188 247.535156 154.800781 C 238.621094 151.246094 228.152344 152.570312 219.089844 154.328125 C 210.378906 156.023438 201.777344 158.746094 193.460938 161.378906 L 193.121094 161.484375 C 191.082031 162.132812 188.902344 162.886719 186.59375 163.6875 C 173.269531 168.304688 156.683594 174.054688 145.007812 166.273438 C 144.839844 166.160156 144.792969 165.933594 144.90625 165.765625 C 145.015625 165.597656 145.242188 165.550781 145.410156 165.664062 C 156.785156 173.246094 173.179688 167.5625 186.355469 162.996094 C 188.667969 162.195312 190.851562 161.4375 192.902344 160.789062 L 193.242188 160.679688 C 201.578125 158.042969 210.199219 155.3125 218.949219 153.613281 C 228.117188 151.832031 238.714844 150.5 247.804688 154.121094 C 250.875 155.347656 254 156.808594 256.058594 159.199219 C 257.597656 160.988281 260.816406 165.71875 257.507812 171.003906 C 257.4375 171.113281 257.320312 171.171875 257.199219 171.171875"/><g><g><g><path d="M 3.773438 2.570312 C 7.710938 2.570312 15.742188 -2.730469 22.886719 -8.671875 C 23.210938 -8.914062 23.53125 -9.074219 23.289062 -8.433594 C 22.40625 -6.265625 21.683594 -3.773438 21.683594 -1.847656 C 21.683594 -0.402344 22.566406 0.480469 24.09375 0.480469 C 31.242188 0.480469 43.449219 -15.742188 44.25 -19.675781 L 44.25 -19.757812 C 44.25 -19.996094 44.011719 -20.238281 43.769531 -20.238281 C 43.527344 -20.238281 43.367188 -20.078125 43.285156 -19.835938 C 42.5625 -16.140625 30.757812 -0.402344 24.09375 -0.402344 C 23.050781 -0.402344 22.566406 -0.882812 22.566406 -1.847656 C 22.566406 -4.097656 23.691406 -7.308594 25.378906 -10.679688 C 25.378906 -10.761719 25.457031 -10.761719 25.457031 -10.84375 C 31.722656 -16.304688 36.78125 -21.765625 36.78125 -23.773438 C 36.78125 -24.171875 36.460938 -24.496094 36.058594 -24.496094 C 33.085938 -24.496094 27.867188 -17.828125 24.574219 -11.242188 C 24.574219 -11.164062 24.496094 -11.082031 24.414062 -11.082031 C 16.945312 -4.65625 7.871094 1.6875 3.773438 1.6875 C 2.8125 1.6875 2.25 1.042969 2.25 0 C 2.25 -6.988281 17.265625 -26.179688 23.773438 -26.179688 C 24.09375 -26.179688 24.253906 -26.339844 24.253906 -26.582031 C 24.253906 -26.824219 24.09375 -27.066406 23.773438 -27.066406 C 16.785156 -27.066406 1.367188 -7.308594 1.367188 0 C 1.367188 1.527344 2.328125 2.570312 3.773438 2.570312 Z M 26.339844 -12.769531 C 29.234375 -17.910156 33.972656 -23.449219 35.65625 -23.449219 C 35.738281 -23.449219 35.816406 -23.449219 35.816406 -23.289062 C 35.816406 -22.164062 31 -16.945312 26.339844 -12.769531 Z M 26.339844 -12.769531" transform="translate(82.978 266.73)"/></g></g></g><g><g><g><path d="M -0.480469 0.640625 C 2.089844 0.640625 4.578125 -3.695312 4.097656 -6.828125 C 4.097656 -6.988281 4.175781 -7.148438 4.335938 -6.988281 C 8.996094 -4.097656 15.179688 -3.773438 19.355469 -6.183594 C 19.515625 -6.265625 19.675781 -6.425781 19.675781 -6.585938 C 19.675781 -6.828125 19.433594 -6.988281 19.195312 -6.988281 L 18.953125 -6.988281 C 15.097656 -4.738281 9.476562 -5.058594 5.140625 -7.628906 C 4.980469 -7.710938 4.980469 -7.789062 5.140625 -7.871094 C 5.21875 -7.949219 5.378906 -7.949219 5.460938 -8.03125 C 5.703125 -8.03125 5.78125 -8.191406 5.78125 -8.433594 C 5.78125 -8.671875 5.621094 -8.914062 5.378906 -8.914062 C 5.300781 -8.914062 5.21875 -8.914062 5.21875 -8.835938 C 4.820312 -8.753906 4.417969 -8.59375 4.097656 -8.433594 C 3.933594 -8.351562 3.933594 -8.351562 3.773438 -8.433594 C 3.453125 -8.511719 3.132812 -8.273438 2.972656 -7.949219 C 2.972656 -7.871094 2.890625 -7.871094 2.890625 -7.789062 C 0.0820312 -6.105469 -2.007812 -3.453125 -2.007812 -1.203125 C -2.007812 -0.0820312 -1.445312 0.640625 -0.480469 0.640625 Z M -0.480469 -0.242188 C -0.882812 -0.242188 -1.125 -0.5625 -1.125 -1.203125 C -1.125 -3.050781 0.722656 -5.378906 3.210938 -6.90625 C 3.613281 -4.335938 1.445312 -0.242188 -0.480469 -0.242188 Z M -0.480469 -0.242188" transform="translate(123.293 266.73)"/></g></g></g><g><g><g><path d="M 1.042969 8.671875 C 5.863281 8.671875 19.835938 -0.402344 27.867188 -6.183594 C 27.949219 -6.265625 28.027344 -6.425781 28.027344 -6.585938 C 28.027344 -6.828125 27.867188 -6.988281 27.546875 -6.988281 C 27.464844 -6.988281 27.386719 -6.988281 27.304688 -6.90625 C 19.355469 -1.125 5.621094 7.710938 1.042969 7.710938 C 0.0820312 7.710938 -0.242188 7.386719 -0.242188 6.585938 C -0.242188 4.257812 3.855469 0.242188 7.789062 -3.613281 C 11.242188 -7.066406 14.695312 -10.441406 14.695312 -12.367188 C 14.695312 -13.332031 13.574219 -13.972656 12.207031 -15.257812 C 15.257812 -18.550781 17.507812 -21.523438 17.507812 -22.648438 C 17.507812 -23.210938 17.1875 -23.609375 16.625 -23.609375 C 14.132812 -23.609375 8.511719 -19.355469 8.511719 -17.347656 C 8.511719 -16.625 9.316406 -16.0625 10.761719 -15.097656 C 8.109375 -12.289062 4.738281 -9.234375 1.527344 -6.90625 C 1.445312 -6.828125 1.367188 -6.664062 1.367188 -6.585938 C 1.367188 -6.265625 1.527344 -6.105469 1.765625 -6.105469 C 1.925781 -6.105469 2.007812 -6.105469 2.089844 -6.183594 C 4.980469 -8.273438 8.59375 -11.484375 11.566406 -14.617188 C 13.171875 -13.492188 13.734375 -12.929688 13.734375 -12.367188 C 13.734375 -10.84375 10.601562 -7.710938 7.148438 -4.335938 C 3.210938 -0.402344 -1.125 3.855469 -1.125 6.585938 C -1.125 7.871094 -0.480469 8.671875 1.042969 8.671875 Z M 11.402344 -15.742188 C 9.957031 -16.703125 9.476562 -17.1875 9.476562 -17.347656 C 9.476562 -18.710938 14.054688 -22.164062 16.222656 -22.566406 C 16.464844 -22.648438 16.625 -22.488281 16.542969 -22.246094 C 15.980469 -20.878906 13.089844 -17.507812 11.402344 -15.742188 Z M 11.402344 -15.742188" transform="translate(140.64 266.73)"/></g></g></g><g><g><g><path d="M 0.480469 3.535156 C 3.613281 3.535156 12.6875 -1.445312 19.515625 -6.183594 C 19.59375 -6.265625 19.675781 -6.34375 19.675781 -6.503906 C 19.675781 -6.746094 19.515625 -6.988281 19.273438 -6.988281 C 19.113281 -6.988281 19.035156 -6.988281 18.953125 -6.90625 C 11.324219 -1.605469 3.050781 2.648438 0.480469 2.648438 C -0.882812 2.648438 -1.285156 2.328125 -1.285156 1.203125 C -1.285156 -0.402344 -0.242188 -2.890625 1.605469 -5.78125 C 15.257812 -14.054688 39.109375 -34.933594 39.109375 -39.59375 C 39.109375 -40.636719 38.46875 -41.199219 37.34375 -41.199219 C 30.597656 -41.199219 -2.167969 -8.273438 -2.167969 1.203125 C -2.167969 2.8125 -1.367188 3.535156 0.480469 3.535156 Z M 2.8125 -7.550781 C 11.644531 -20.558594 32.363281 -40.316406 37.34375 -40.316406 C 37.988281 -40.316406 38.226562 -40.074219 38.226562 -39.59375 C 38.226562 -35.738281 17.027344 -16.703125 2.8125 -7.550781 Z M 2.8125 -7.550781" transform="translate(166.419 266.73)"/></g></g></g><g><g><g><path d="M 8.109375 0.0820312 C 11.164062 0.0820312 18.3125 -2.410156 23.773438 -6.183594 C 23.933594 -6.265625 24.011719 -6.425781 24.011719 -6.585938 C 24.011719 -6.828125 23.851562 -7.066406 23.53125 -7.066406 C 23.449219 -7.066406 23.371094 -6.988281 23.289062 -6.988281 C 17.988281 -3.292969 11.003906 -0.882812 8.109375 -0.882812 C 6.746094 -0.882812 6.105469 -1.285156 6.105469 -2.328125 C 6.105469 -3.050781 6.90625 -4.496094 8.109375 -6.503906 C 8.109375 -6.503906 8.109375 -6.503906 8.109375 -6.425781 C 8.109375 -6.183594 8.351562 -5.941406 8.59375 -5.941406 C 8.835938 -5.941406 8.996094 -6.105469 9.074219 -6.34375 C 9.074219 -6.828125 8.996094 -7.226562 8.835938 -7.550781 L 10.359375 -9.796875 C 22.328125 -20.878906 38.789062 -38.066406 38.789062 -40.15625 C 38.789062 -40.796875 38.386719 -41.199219 37.664062 -41.199219 C 34.773438 -41.199219 18.230469 -22.328125 9.957031 -10.679688 C 9.15625 -9.957031 8.433594 -9.316406 7.710938 -8.59375 C 7.386719 -8.835938 6.90625 -8.914062 6.425781 -8.914062 C 2.8125 -8.914062 -2.8125 -4.175781 -2.8125 -1.203125 C -2.8125 -0.480469 -2.328125 -0.0820312 -1.765625 -0.0820312 C -0.402344 -0.0820312 2.570312 -2.648438 6.746094 -6.503906 C 7.066406 -6.746094 7.226562 -6.585938 6.988281 -6.265625 C 5.863281 -4.417969 5.21875 -3.050781 5.21875 -2.328125 C 5.21875 -0.722656 6.265625 0.0820312 8.109375 0.0820312 Z M 13.574219 -14.132812 C 22.246094 -25.457031 35.496094 -40.316406 37.664062 -40.316406 C 37.90625 -40.316406 37.90625 -40.234375 37.90625 -40.15625 C 37.90625 -38.628906 24.734375 -24.894531 13.574219 -14.132812 Z M -1.605469 -1.042969 C -1.6875 -1.042969 -1.847656 -1.042969 -1.847656 -1.285156 C -1.847656 -3.695312 3.371094 -7.949219 6.425781 -7.949219 L 6.988281 -7.949219 C 2.488281 -3.773438 -0.804688 -1.042969 -1.605469 -1.042969 Z M -1.605469 -1.042969" transform="translate(183.926 266.73)"/></g></g></g><g><g><g><path d="M -3.773438 3.933594 C -1.765625 3.933594 2.730469 0.722656 5.542969 -1.847656 C 5.78125 -2.089844 5.941406 -1.925781 5.863281 -1.6875 C 5.621094 -0.964844 5.378906 -0.0820312 5.378906 0.5625 C 5.378906 1.527344 5.863281 2.089844 6.746094 2.089844 C 9.316406 2.089844 13.972656 -3.050781 15.179688 -6.746094 C 15.257812 -6.90625 15.339844 -6.90625 15.417969 -6.828125 C 16.863281 -6.023438 19.59375 -4.578125 23.050781 -4.578125 C 26.019531 -4.578125 27.789062 -5.058594 29.796875 -6.183594 C 29.875 -6.265625 30.035156 -6.425781 30.035156 -6.585938 C 30.035156 -6.828125 29.796875 -6.988281 29.554688 -6.988281 L 29.3125 -6.988281 C 27.464844 -5.863281 25.859375 -5.542969 23.050781 -5.542969 C 19.59375 -5.542969 16.863281 -7.066406 15.582031 -7.871094 C 15.5 -7.871094 15.5 -7.949219 15.5 -8.109375 L 15.5 -8.433594 C 15.5 -9.234375 15.257812 -9.796875 14.617188 -9.796875 C 14.054688 -9.796875 13.734375 -9.476562 13.734375 -8.914062 C 13.734375 -8.511719 13.972656 -7.949219 14.375 -7.628906 C 14.457031 -7.550781 14.457031 -7.46875 14.457031 -7.386719 C 13.492188 -4.097656 8.996094 1.203125 6.746094 1.203125 C 6.425781 1.203125 6.34375 0.882812 6.34375 0.5625 C 6.34375 -0.480469 6.988281 -2.488281 7.789062 -3.933594 C 7.949219 -4.175781 7.871094 -4.417969 7.628906 -4.578125 C 7.386719 -4.738281 7.148438 -4.738281 6.988281 -4.496094 C 5.058594 -2.328125 -1.445312 3.050781 -3.773438 3.050781 C -3.933594 3.050781 -4.097656 2.972656 -4.097656 2.730469 C -4.097656 0.640625 1.125 -5.941406 4.417969 -8.03125 C 4.578125 -8.109375 4.65625 -8.273438 4.65625 -8.433594 C 4.65625 -8.671875 4.417969 -8.914062 4.175781 -8.914062 C 4.097656 -8.914062 4.015625 -8.835938 3.933594 -8.835938 C 0.640625 -6.828125 -5.058594 0.160156 -5.058594 2.8125 C -5.058594 3.535156 -4.578125 3.933594 -3.773438 3.933594 Z M -3.773438 3.933594" transform="translate(205.69 266.73)"/></g></g></g><g><g><g><path d="M 5.78125 -10.359375 C 5.941406 -10.359375 6.023438 -10.359375 6.105469 -10.519531 L 6.425781 -10.84375 C 6.664062 -11.242188 6.988281 -11.644531 7.148438 -11.804688 C 7.226562 -11.886719 7.226562 -12.046875 7.226562 -12.125 C 7.226562 -12.367188 7.066406 -12.609375 6.828125 -12.609375 C 6.664062 -12.609375 6.503906 -12.527344 6.425781 -12.449219 C 6.265625 -12.207031 5.941406 -11.726562 5.703125 -11.402344 L 5.378906 -11.082031 C 5.300781 -11.003906 5.300781 -10.921875 5.300781 -10.761719 C 5.300781 -10.519531 5.542969 -10.359375 5.78125 -10.359375 Z M 0.640625 0.480469 C 3.371094 0.480469 11.804688 -3.453125 16.140625 -6.183594 C 16.222656 -6.265625 16.304688 -6.425781 16.304688 -6.585938 C 16.304688 -6.828125 16.140625 -6.988281 15.820312 -6.988281 L 15.582031 -6.988281 C 11.402344 -4.257812 3.132812 -0.480469 0.640625 -0.480469 C -0.242188 -0.480469 -0.640625 -0.804688 -0.640625 -1.605469 C -0.640625 -2.730469 1.285156 -5.460938 4.015625 -8.273438 C 4.097656 -8.351562 4.175781 -8.433594 4.175781 -8.59375 C 4.175781 -8.835938 3.933594 -8.996094 3.695312 -8.996094 C 3.535156 -8.996094 3.453125 -8.996094 3.371094 -8.914062 C 0.402344 -5.863281 -1.527344 -3.132812 -1.527344 -1.605469 C -1.527344 -0.320312 -0.722656 0.480469 0.640625 0.480469 Z M 0.640625 0.480469" transform="translate(233.396 266.73)"/></g></g></g><g><g><g><path d="M 8.109375 0.0820312 C 11.164062 0.0820312 18.3125 -2.410156 23.773438 -6.183594 C 23.933594 -6.265625 24.011719 -6.425781 24.011719 -6.585938 C 24.011719 -6.828125 23.851562 -7.066406 23.53125 -7.066406 C 23.449219 -7.066406 23.371094 -6.988281 23.289062 -6.988281 C 17.988281 -3.292969 11.003906 -0.882812 8.109375 -0.882812 C 6.746094 -0.882812 6.105469 -1.285156 6.105469 -2.328125 C 6.105469 -3.050781 6.90625 -4.496094 8.109375 -6.503906 C 8.109375 -6.503906 8.109375 -6.503906 8.109375 -6.425781 C 8.109375 -6.183594 8.351562 -5.941406 8.59375 -5.941406 C 8.835938 -5.941406 8.996094 -6.105469 9.074219 -6.34375 C 9.074219 -6.828125 8.996094 -7.226562 8.835938 -7.550781 L 10.359375 -9.796875 C 22.328125 -20.878906 38.789062 -38.066406 38.789062 -40.15625 C 38.789062 -40.796875 38.386719 -41.199219 37.664062 -41.199219 C 34.773438 -41.199219 18.230469 -22.328125 9.957031 -10.679688 C 9.15625 -9.957031 8.433594 -9.316406 7.710938 -8.59375 C 7.386719 -8.835938 6.90625 -8.914062 6.425781 -8.914062 C 2.8125 -8.914062 -2.8125 -4.175781 -2.8125 -1.203125 C -2.8125 -0.480469 -2.328125 -0.0820312 -1.765625 -0.0820312 C -0.402344 -0.0820312 2.570312 -2.648438 6.746094 -6.503906 C 7.066406 -6.746094 7.226562 -6.585938 6.988281 -6.265625 C 5.863281 -4.417969 5.21875 -3.050781 5.21875 -2.328125 C 5.21875 -0.722656 6.265625 0.0820312 8.109375 0.0820312 Z M 13.574219 -14.132812 C 22.246094 -25.457031 35.496094 -40.316406 37.664062 -40.316406 C 37.90625 -40.316406 37.90625 -40.234375 37.90625 -40.15625 C 37.90625 -38.628906 24.734375 -24.894531 13.574219 -14.132812 Z M -1.605469 -1.042969 C -1.6875 -1.042969 -1.847656 -1.042969 -1.847656 -1.285156 C -1.847656 -3.695312 3.371094 -7.949219 6.425781 -7.949219 L 6.988281 -7.949219 C 2.488281 -3.773438 -0.804688 -1.042969 -1.605469 -1.042969 Z M -1.605469 -1.042969" transform="translate(247.45 266.73)"/></g></g></g><g><g><g><path d="M 2.648438 0.242188 C 5.140625 0.242188 12.929688 -2.007812 18.550781 -6.183594 C 18.710938 -6.265625 18.792969 -6.425781 18.792969 -6.585938 C 18.792969 -6.828125 18.550781 -6.988281 18.3125 -6.988281 C 18.230469 -6.988281 18.148438 -6.988281 18.070312 -6.90625 C 12.527344 -2.890625 4.980469 -0.722656 2.648438 -0.722656 C 0.804688 -0.722656 -0.160156 -1.203125 -0.160156 -2.25 C -0.160156 -3.292969 0.640625 -4.578125 1.6875 -5.703125 C 2.167969 -5.460938 2.8125 -5.378906 3.695312 -5.378906 C 5.140625 -5.378906 6.988281 -6.585938 6.988281 -7.628906 C 6.988281 -8.433594 6.425781 -8.914062 5.542969 -8.914062 C 2.890625 -8.914062 -1.125 -4.898438 -1.125 -2.25 C -1.125 -0.640625 0.320312 0.242188 2.648438 0.242188 Z M 3.695312 -6.265625 C 3.132812 -6.265625 2.730469 -6.34375 2.410156 -6.425781 C 3.453125 -7.308594 4.578125 -7.949219 5.542969 -7.949219 C 5.941406 -7.949219 6.105469 -7.871094 6.105469 -7.628906 C 6.105469 -7.148438 4.578125 -6.265625 3.695312 -6.265625 Z M 3.695312 -6.265625" transform="translate(269.214 266.73)"/></g></g></g><g><g><g><path d="M 3.296875 -6.109375 C 3.835938 -6.109375 4.300781 -5.972656 4.6875 -5.703125 C 5.082031 -5.429688 5.378906 -5.0625 5.578125 -4.59375 C 5.773438 -4.132812 5.875 -3.625 5.875 -3.0625 C 5.875 -2.488281 5.773438 -1.96875 5.578125 -1.5 C 5.378906 -1.039062 5.082031 -0.675781 4.6875 -0.40625 C 4.300781 -0.132812 3.835938 0 3.296875 0 L 1.140625 0 C 1.023438 0 0.925781 -0.0390625 0.84375 -0.125 C 0.757812 -0.207031 0.71875 -0.304688 0.71875 -0.421875 L 0.71875 -5.6875 C 0.71875 -5.8125 0.757812 -5.910156 0.84375 -5.984375 C 0.925781 -6.066406 1.023438 -6.109375 1.140625 -6.109375 Z M 3.203125 -0.796875 C 3.796875 -0.796875 4.238281 -1.003906 4.53125 -1.421875 C 4.832031 -1.847656 4.984375 -2.394531 4.984375 -3.0625 C 4.984375 -3.707031 4.832031 -4.242188 4.53125 -4.671875 C 4.238281 -5.097656 3.796875 -5.3125 3.203125 -5.3125 L 1.59375 -5.3125 L 1.59375 -0.796875 Z M 3.203125 -0.796875" transform="translate(135.102 287.035)"/></g></g></g><g><g><g><path d="M 4.1875 -0.796875 C 4.3125 -0.796875 4.410156 -0.753906 4.484375 -0.671875 C 4.566406 -0.597656 4.609375 -0.503906 4.609375 -0.390625 C 4.609375 -0.273438 4.566406 -0.179688 4.484375 -0.109375 C 4.410156 -0.0351562 4.3125 0 4.1875 0 L 1.140625 0 C 1.023438 0 0.925781 -0.0390625 0.84375 -0.125 C 0.757812 -0.207031 0.71875 -0.304688 0.71875 -0.421875 L 0.71875 -5.6875 C 0.71875 -5.8125 0.757812 -5.910156 0.84375 -5.984375 C 0.925781 -6.066406 1.023438 -6.109375 1.140625 -6.109375 L 4.1875 -6.109375 C 4.3125 -6.109375 4.410156 -6.070312 4.484375 -6 C 4.566406 -5.925781 4.609375 -5.828125 4.609375 -5.703125 C 4.609375 -5.585938 4.566406 -5.492188 4.484375 -5.421875 C 4.410156 -5.347656 4.3125 -5.3125 4.1875 -5.3125 L 1.59375 -5.3125 L 1.59375 -3.53125 L 3.796875 -3.53125 C 3.910156 -3.53125 4.003906 -3.488281 4.078125 -3.40625 C 4.160156 -3.332031 4.203125 -3.238281 4.203125 -3.125 C 4.203125 -3 4.160156 -2.898438 4.078125 -2.828125 C 4.003906 -2.765625 3.910156 -2.734375 3.796875 -2.734375 L 1.59375 -2.734375 L 1.59375 -0.796875 Z M 4.1875 -0.796875" transform="translate(148.34 287.035)"/></g></g></g><g><g><g><path d="M 4.09375 -0.8125 C 4.21875 -0.8125 4.316406 -0.769531 4.390625 -0.6875 C 4.472656 -0.613281 4.515625 -0.519531 4.515625 -0.40625 C 4.515625 -0.289062 4.472656 -0.191406 4.390625 -0.109375 C 4.316406 -0.0351562 4.21875 0 4.09375 0 L 1.140625 0 C 1.015625 0 0.910156 -0.0390625 0.828125 -0.125 C 0.753906 -0.207031 0.71875 -0.304688 0.71875 -0.421875 L 0.71875 -5.6875 C 0.71875 -5.8125 0.757812 -5.910156 0.84375 -5.984375 C 0.925781 -6.066406 1.03125 -6.109375 1.15625 -6.109375 C 1.28125 -6.109375 1.382812 -6.066406 1.46875 -5.984375 C 1.550781 -5.910156 1.59375 -5.8125 1.59375 -5.6875 L 1.59375 -0.8125 Z M 4.09375 -0.8125" transform="translate(160.297 287.035)"/></g></g></g><g><g><g><path d="M 1.59375 -0.421875 C 1.59375 -0.304688 1.546875 -0.207031 1.453125 -0.125 C 1.367188 -0.0390625 1.269531 0 1.15625 0 C 1.019531 0 0.910156 -0.0390625 0.828125 -0.125 C 0.753906 -0.207031 0.71875 -0.304688 0.71875 -0.421875 L 0.71875 -5.6875 C 0.71875 -5.8125 0.757812 -5.910156 0.84375 -5.984375 C 0.925781 -6.066406 1.03125 -6.109375 1.15625 -6.109375 C 1.28125 -6.109375 1.382812 -6.066406 1.46875 -5.984375 C 1.550781 -5.910156 1.59375 -5.8125 1.59375 -5.6875 Z M 1.59375 -0.421875" transform="translate(172.078 287.035)"/></g></g></g><g><g><g><path d="M 5.171875 -6.125 C 5.285156 -6.125 5.382812 -6.082031 5.46875 -6 C 5.550781 -5.925781 5.59375 -5.835938 5.59375 -5.734375 C 5.59375 -5.671875 5.582031 -5.601562 5.5625 -5.53125 L 3.328125 -0.265625 C 3.285156 -0.179688 3.226562 -0.113281 3.15625 -0.0625 C 3.082031 -0.0195312 3.003906 0 2.921875 0 C 2.835938 -0.0078125 2.765625 -0.0351562 2.703125 -0.078125 C 2.640625 -0.117188 2.585938 -0.179688 2.546875 -0.265625 L 0.3125 -5.53125 C 0.289062 -5.582031 0.28125 -5.644531 0.28125 -5.71875 C 0.28125 -5.84375 0.320312 -5.941406 0.40625 -6.015625 C 0.5 -6.085938 0.597656 -6.125 0.703125 -6.125 C 0.867188 -6.125 0.992188 -6.035156 1.078125 -5.859375 L 2.984375 -1.359375 L 4.78125 -5.859375 C 4.820312 -5.941406 4.875 -6.003906 4.9375 -6.046875 C 5.007812 -6.097656 5.085938 -6.125 5.171875 -6.125 Z M 5.171875 -6.125" transform="translate(181.372 287.035)"/></g></g></g><g><g><g><path d="M 4.1875 -0.796875 C 4.3125 -0.796875 4.410156 -0.753906 4.484375 -0.671875 C 4.566406 -0.597656 4.609375 -0.503906 4.609375 -0.390625 C 4.609375 -0.273438 4.566406 -0.179688 4.484375 -0.109375 C 4.410156 -0.0351562 4.3125 0 4.1875 0 L 1.140625 0 C 1.023438 0 0.925781 -0.0390625 0.84375 -0.125 C 0.757812 -0.207031 0.71875 -0.304688 0.71875 -0.421875 L 0.71875 -5.6875 C 0.71875 -5.8125 0.757812 -5.910156 0.84375 -5.984375 C 0.925781 -6.066406 1.023438 -6.109375 1.140625 -6.109375 L 4.1875 -6.109375 C 4.3125 -6.109375 4.410156 -6.070312 4.484375 -6 C 4.566406 -5.925781 4.609375 -5.828125 4.609375 -5.703125 C 4.609375 -5.585938 4.566406 -5.492188 4.484375 -5.421875 C 4.410156 -5.347656 4.3125 -5.3125 4.1875 -5.3125 L 1.59375 -5.3125 L 1.59375 -3.53125 L 3.796875 -3.53125 C 3.910156 -3.53125 4.003906 -3.488281 4.078125 -3.40625 C 4.160156 -3.332031 4.203125 -3.238281 4.203125 -3.125 C 4.203125 -3 4.160156 -2.898438 4.078125 -2.828125 C 4.003906 -2.765625 3.910156 -2.734375 3.796875 -2.734375 L 1.59375 -2.734375 L 1.59375 -0.796875 Z M 4.1875 -0.796875" transform="translate(194.218 287.035)"/></g></g></g><g><g><g><path d="M 5.375 -0.703125 C 5.4375 -0.660156 5.484375 -0.609375 5.515625 -0.546875 C 5.554688 -0.484375 5.578125 -0.421875 5.578125 -0.359375 C 5.578125 -0.234375 5.535156 -0.140625 5.453125 -0.078125 C 5.378906 -0.0234375 5.285156 0 5.171875 0 C 5.054688 0 4.960938 -0.0195312 4.890625 -0.0625 C 4.710938 -0.164062 4.566406 -0.328125 4.453125 -0.546875 C 4.347656 -0.765625 4.296875 -1.09375 4.296875 -1.53125 C 4.296875 -1.820312 4.207031 -2.035156 4.03125 -2.171875 C 3.851562 -2.316406 3.628906 -2.390625 3.359375 -2.390625 L 1.59375 -2.390625 L 1.59375 -0.421875 C 1.59375 -0.296875 1.554688 -0.191406 1.484375 -0.109375 C 1.410156 -0.0351562 1.320312 0 1.21875 0 C 1.082031 0 0.960938 -0.0390625 0.859375 -0.125 C 0.765625 -0.207031 0.71875 -0.304688 0.71875 -0.421875 L 0.71875 -5.6875 C 0.71875 -5.8125 0.757812 -5.910156 0.84375 -5.984375 C 0.925781 -6.066406 1.023438 -6.109375 1.140625 -6.109375 L 3.59375 -6.109375 C 3.90625 -6.109375 4.191406 -6.03125 4.453125 -5.875 C 4.722656 -5.726562 4.9375 -5.519531 5.09375 -5.25 C 5.25 -4.976562 5.328125 -4.671875 5.328125 -4.328125 C 5.328125 -4.003906 5.238281 -3.703125 5.0625 -3.421875 C 4.882812 -3.140625 4.660156 -2.925781 4.390625 -2.78125 C 4.609375 -2.675781 4.78125 -2.523438 4.90625 -2.328125 C 5.03125 -2.128906 5.097656 -1.898438 5.109375 -1.640625 C 5.128906 -1.304688 5.15625 -1.078125 5.1875 -0.953125 C 5.21875 -0.835938 5.28125 -0.753906 5.375 -0.703125 Z M 3.578125 -3.109375 C 3.722656 -3.117188 3.859375 -3.175781 3.984375 -3.28125 C 4.117188 -3.382812 4.226562 -3.523438 4.3125 -3.703125 C 4.394531 -3.878906 4.4375 -4.082031 4.4375 -4.3125 C 4.4375 -4.582031 4.347656 -4.816406 4.171875 -5.015625 C 4.003906 -5.210938 3.800781 -5.3125 3.5625 -5.3125 L 1.59375 -5.3125 L 1.59375 -3.109375 Z M 3.578125 -3.109375" transform="translate(206.174 287.035)"/></g></g></g><g><g><g><path d="M 4.921875 -5.71875 C 4.921875 -5.632812 4.894531 -5.546875 4.84375 -5.453125 L 2.96875 -2.8125 L 2.96875 -0.421875 C 2.96875 -0.304688 2.925781 -0.207031 2.84375 -0.125 C 2.769531 -0.0390625 2.675781 0 2.5625 0 C 2.445312 0 2.347656 -0.0390625 2.265625 -0.125 C 2.191406 -0.207031 2.15625 -0.304688 2.15625 -0.421875 L 2.15625 -2.875 L 0.28125 -5.40625 C 0.195312 -5.507812 0.15625 -5.613281 0.15625 -5.71875 C 0.15625 -5.832031 0.203125 -5.929688 0.296875 -6.015625 C 0.390625 -6.097656 0.492188 -6.140625 0.609375 -6.140625 C 0.734375 -6.140625 0.84375 -6.078125 0.9375 -5.953125 L 2.578125 -3.671875 L 4.171875 -5.9375 C 4.265625 -6.070312 4.378906 -6.140625 4.515625 -6.140625 C 4.628906 -6.140625 4.722656 -6.097656 4.796875 -6.015625 C 4.878906 -5.929688 4.921875 -5.832031 4.921875 -5.71875 Z M 4.921875 -5.71875" transform="translate(219.09 287.035)"/></g></g></g></svg>