<svg xmlns="http://www.w3.org/2000/svg" width="375" viewBox="0 0 375 375" height="375" version="1.0"><defs><clipPath id="a"><path d="M 108.585938 105.449219 L 269.835938 105.449219 L 269.835938 266.699219 L 108.585938 266.699219 Z M 108.585938 105.449219"/></clipPath><clipPath id="b"><path d="M 207 191 L 212 191 L 212 196 L 207 196 Z M 207 191"/></clipPath><clipPath id="c"><path d="M 175.402344 147.0625 L 224.148438 203.070312 L 160.789062 258.21875 L 112.039062 202.210938 Z M 175.402344 147.0625"/></clipPath><clipPath id="d"><path d="M 175.402344 147.0625 L 224.148438 203.070312 L 160.789062 258.21875 L 112.039062 202.210938 Z M 175.402344 147.0625"/></clipPath><clipPath id="e"><path d="M 201 187 L 207 187 L 207 192 L 201 192 Z M 201 187"/></clipPath><clipPath id="f"><path d="M 175.402344 147.0625 L 224.148438 203.070312 L 160.789062 258.21875 L 112.039062 202.210938 Z M 175.402344 147.0625"/></clipPath><clipPath id="g"><path d="M 175.402344 147.0625 L 224.148438 203.070312 L 160.789062 258.21875 L 112.039062 202.210938 Z M 175.402344 147.0625"/></clipPath><clipPath id="h"><path d="M 195 184 L 200 184 L 200 189 L 195 189 Z M 195 184"/></clipPath><clipPath id="i"><path d="M 175.402344 147.0625 L 224.148438 203.070312 L 160.789062 258.21875 L 112.039062 202.210938 Z M 175.402344 147.0625"/></clipPath><clipPath id="j"><path d="M 175.402344 147.0625 L 224.148438 203.070312 L 160.789062 258.21875 L 112.039062 202.210938 Z M 175.402344 147.0625"/></clipPath><clipPath id="k"><path d="M 187 182 L 193 182 L 193 188 L 187 188 Z M 187 182"/></clipPath><clipPath id="l"><path d="M 175.402344 147.0625 L 224.148438 203.070312 L 160.789062 258.21875 L 112.039062 202.210938 Z M 175.402344 147.0625"/></clipPath><clipPath id="m"><path d="M 175.402344 147.0625 L 224.148438 203.070312 L 160.789062 258.21875 L 112.039062 202.210938 Z M 175.402344 147.0625"/></clipPath><clipPath id="n"><path d="M 136 180 L 142 180 L 142 186 L 136 186 Z M 136 180"/></clipPath><clipPath id="o"><path d="M 175.402344 147.0625 L 224.148438 203.070312 L 160.789062 258.21875 L 112.039062 202.210938 Z M 175.402344 147.0625"/></clipPath><clipPath id="p"><path d="M 175.402344 147.0625 L 224.148438 203.070312 L 160.789062 258.21875 L 112.039062 202.210938 Z M 175.402344 147.0625"/></clipPath><clipPath id="q"><path d="M 130 184 L 136 184 L 136 190 L 130 190 Z M 130 184"/></clipPath><clipPath id="r"><path d="M 175.402344 147.0625 L 224.148438 203.070312 L 160.789062 258.21875 L 112.039062 202.210938 Z M 175.402344 147.0625"/></clipPath><clipPath id="s"><path d="M 175.402344 147.0625 L 224.148438 203.070312 L 160.789062 258.21875 L 112.039062 202.210938 Z M 175.402344 147.0625"/></clipPath><clipPath id="t"><path d="M 126 190 L 132 190 L 132 195 L 126 195 Z M 126 190"/></clipPath><clipPath id="u"><path d="M 175.402344 147.0625 L 224.148438 203.070312 L 160.789062 258.21875 L 112.039062 202.210938 Z M 175.402344 147.0625"/></clipPath><clipPath id="v"><path d="M 175.402344 147.0625 L 224.148438 203.070312 L 160.789062 258.21875 L 112.039062 202.210938 Z M 175.402344 147.0625"/></clipPath><clipPath id="w"><path d="M 123 196 L 129 196 L 129 201 L 123 201 Z M 123 196"/></clipPath><clipPath id="x"><path d="M 175.402344 147.0625 L 224.148438 203.070312 L 160.789062 258.21875 L 112.039062 202.210938 Z M 175.402344 147.0625"/></clipPath><clipPath id="y"><path d="M 175.402344 147.0625 L 224.148438 203.070312 L 160.789062 258.21875 L 112.039062 202.210938 Z M 175.402344 147.0625"/></clipPath><clipPath id="z"><path d="M 210 196 L 222 196 L 222 208 L 210 208 Z M 210 196"/></clipPath><clipPath id="A"><path d="M 175.402344 147.0625 L 224.148438 203.070312 L 160.789062 258.21875 L 112.039062 202.210938 Z M 175.402344 147.0625"/></clipPath><clipPath id="B"><path d="M 175.402344 147.0625 L 224.148438 203.070312 L 160.789062 258.21875 L 112.039062 202.210938 Z M 175.402344 147.0625"/></clipPath><clipPath id="C"><path d="M 216.691406 194.503906 L 224.183594 203.109375 L 215.542969 210.628906 L 208.050781 202.023438 Z M 216.691406 194.503906"/></clipPath><clipPath id="D"><path d="M 216.691406 194.503906 L 224.007812 202.90625 L 215.367188 210.429688 L 208.050781 202.023438 Z M 216.691406 194.503906"/></clipPath><clipPath id="E"><path d="M 121 205 L 133 205 L 133 217 L 121 217 Z M 121 205"/></clipPath><clipPath id="F"><path d="M 175.402344 147.0625 L 224.148438 203.070312 L 160.789062 258.21875 L 112.039062 202.210938 Z M 175.402344 147.0625"/></clipPath><clipPath id="G"><path d="M 175.402344 147.0625 L 224.148438 203.070312 L 160.789062 258.21875 L 112.039062 202.210938 Z M 175.402344 147.0625"/></clipPath><clipPath id="H"><path d="M 144 162 L 184 162 L 184 201 L 144 201 Z M 144 162"/></clipPath><clipPath id="I"><path d="M 175.402344 147.0625 L 224.148438 203.070312 L 160.789062 258.21875 L 112.039062 202.210938 Z M 175.402344 147.0625"/></clipPath><clipPath id="J"><path d="M 175.402344 147.0625 L 224.148438 203.070312 L 160.789062 258.21875 L 112.039062 202.210938 Z M 175.402344 147.0625"/></clipPath></defs><path fill="#FFF" d="M-37.5 -37.5H412.5V412.5H-37.5z"/><path fill="#FFF" d="M-37.5 -37.5H412.5V412.5H-37.5z"/><path fill="#120940" d="M-37.5 -37.5H412.5V412.5H-37.5z"/><g clip-path="url(#a)"><path fill="#F8EBFF" d="M 189.210938 105.449219 C 144.742188 105.449219 108.585938 141.605469 108.585938 186.074219 C 108.585938 230.542969 144.742188 266.699219 189.210938 266.699219 C 233.679688 266.699219 269.835938 230.542969 269.835938 186.074219 C 269.835938 141.605469 233.679688 105.449219 189.210938 105.449219 Z M 261.773438 165.035156 C 257.867188 163.777344 253.585938 165.164062 250.308594 166.296875 C 249.554688 166.546875 248.671875 166.800781 248.042969 167.050781 C 245.523438 164.28125 241.492188 163.019531 238.46875 162.894531 C 236.074219 162.769531 233.679688 163.777344 232.167969 165.667969 C 230.53125 167.554688 230.027344 169.949219 230.53125 172.34375 C 230.78125 173.476562 231.285156 174.484375 231.664062 175.367188 C 231.917969 175.996094 232.421875 176.878906 232.421875 177.382812 C 232.292969 177.507812 232.167969 177.507812 231.789062 177.632812 C 230.78125 178.011719 228.390625 177.382812 227.128906 176.625 C 226.246094 175.996094 223.980469 174.484375 221.335938 175.367188 C 218.941406 176.121094 217.175781 178.390625 216.671875 181.160156 C 215.792969 185.320312 218.058594 187.710938 220.074219 189.980469 C 220.453125 190.359375 220.703125 190.609375 221.082031 190.988281 C 223.351562 193.507812 226.246094 194.640625 228.894531 195.523438 C 229.269531 195.648438 229.648438 195.773438 230.027344 195.902344 C 229.902344 196.152344 229.773438 196.40625 229.648438 196.53125 C 229.398438 197.035156 229.019531 197.539062 228.765625 198.042969 C 228.261719 198.925781 227.632812 199.933594 227.128906 200.8125 C 226.375 201.949219 225.617188 202.957031 224.734375 204.089844 C 222.71875 206.609375 220.703125 209.253906 219.570312 212.53125 C 218.5625 215.300781 218.3125 218.199219 218.058594 220.96875 C 217.933594 222.984375 217.679688 224.875 217.304688 226.765625 C 216.925781 228.402344 215.792969 229.914062 214.40625 231.550781 C 212.136719 234.324219 209.113281 236.71875 206.34375 238.734375 C 204.453125 240.117188 201.808594 241.378906 200.042969 239.613281 C 198.027344 237.597656 196.644531 234.449219 195.761719 230.542969 C 195.382812 229.03125 195.382812 227.269531 195.257812 225.503906 C 195.132812 223.113281 195.132812 220.59375 194.25 218.074219 C 193.996094 217.066406 193.492188 216.308594 193.117188 215.554688 C 192.484375 214.292969 192.109375 213.410156 192.109375 212.65625 C 192.484375 208.246094 191.476562 204.84375 188.832031 202.578125 C 184.296875 198.546875 176.863281 199.554688 175.605469 199.804688 C 172.582031 200.058594 170.1875 198.796875 167.164062 197.414062 L 166.535156 196.78125 C 161.621094 194.515625 159.730469 190.359375 160.363281 183.304688 C 160.992188 176.375 166.660156 169.824219 173.464844 168.058594 C 179.761719 166.421875 185.933594 168.058594 193.367188 170.328125 C 195.003906 170.832031 198.785156 171.210938 205.460938 171.585938 L 205.839844 171.585938 C 209.617188 171.839844 212.390625 170.957031 214.40625 169.195312 C 216.421875 167.304688 216.671875 165.164062 216.671875 164.910156 C 216.925781 161.132812 215.917969 157.980469 213.777344 155.589844 C 209.617188 151.179688 202.3125 150.800781 197.148438 150.800781 C 195.761719 150.800781 194.375 150.925781 192.988281 151.054688 C 189.839844 151.304688 186.691406 151.558594 184.171875 150.800781 C 183.792969 150.675781 183.542969 150.550781 183.542969 150.550781 C 183.414062 149.667969 183.917969 149.289062 185.933594 147.902344 C 186.941406 147.273438 188.078125 146.519531 188.832031 145.511719 C 191.226562 142.738281 191.476562 138.582031 191.476562 137.195312 L 191.476562 137.070312 C 191.855469 134.550781 198.785156 133.667969 203.445312 134.046875 C 203.570312 134.046875 203.699219 134.046875 203.699219 134.046875 C 206.46875 134.046875 208.105469 132.785156 208.863281 131.652344 C 211.128906 128.503906 209.746094 123.714844 209.367188 122.457031 C 208.234375 117.542969 210.753906 114.644531 211.382812 114.015625 C 235.570312 121.195312 254.71875 140.597656 261.773438 165.035156 Z M 144.992188 124.851562 C 145.371094 126.363281 145.621094 128.628906 145.75 129.636719 C 145.875 130.519531 145.875 131.273438 146 131.777344 C 146.378906 133.921875 146.628906 136.0625 146 137.953125 C 145.246094 139.96875 143.605469 141.480469 140.457031 142.992188 C 139.953125 143.242188 139.449219 143.496094 138.945312 143.746094 C 135.417969 145.257812 131.890625 146.894531 128.867188 150.421875 C 126.472656 153.195312 122.820312 155.964844 120.679688 155.839844 C 120.425781 155.839844 120.175781 155.839844 119.921875 155.589844 C 125.464844 143.242188 134.160156 132.660156 144.992188 124.851562 Z M 114.507812 174.738281 C 117.78125 174.988281 124.710938 175.871094 124.960938 180.28125 C 124.710938 184.183594 124.710938 187.839844 125.089844 191.367188 C 125.71875 196.65625 129.496094 199.933594 132.898438 202.703125 C 135.921875 205.347656 138.566406 207.617188 138.820312 210.890625 C 138.945312 212.65625 138.316406 214.546875 137.558594 216.433594 C 137.054688 217.695312 136.550781 219.082031 136.300781 220.464844 L 136.300781 220.71875 C 135.796875 222.984375 135.292969 225.378906 135.796875 227.898438 C 136.300781 230.796875 136.046875 233.191406 134.914062 234.324219 C 134.285156 234.953125 133.277344 235.207031 131.765625 235.078125 C 120.425781 221.976562 113.625 204.84375 113.625 186.074219 C 113.625 182.296875 113.875 178.515625 114.507812 174.738281 Z M 160.867188 256.117188 C 167.039062 253.09375 181.527344 248.433594 194.5 261.410156 C 192.738281 261.535156 190.972656 261.660156 189.210938 261.660156 C 179.132812 261.660156 169.683594 259.644531 160.867188 256.117188 Z M 200.800781 260.777344 C 181.398438 237.726562 157.085938 252.339844 155.195312 253.472656 C 148.015625 249.820312 141.589844 245.15625 135.921875 239.488281 C 137.054688 238.984375 137.9375 238.355469 138.566406 237.726562 C 141.71875 234.449219 141.085938 229.160156 140.710938 227.015625 C 140.457031 225.378906 140.710938 223.742188 141.214844 221.726562 L 141.214844 221.472656 C 141.464844 220.339844 141.84375 219.332031 142.222656 218.074219 C 143.101562 215.804688 143.984375 213.285156 143.734375 210.386719 C 143.355469 204.972656 139.449219 201.695312 136.046875 198.796875 C 133.023438 196.152344 130.378906 194.011719 130 190.734375 C 129.625 187.585938 129.625 184.058594 129.875 180.53125 C 129.875 180.40625 129.875 180.28125 129.875 180.28125 C 129.75 174.359375 124.332031 170.578125 115.386719 169.824219 C 116.144531 166.546875 117.027344 163.398438 118.160156 160.375 C 118.914062 160.628906 119.671875 160.878906 120.554688 160.878906 C 120.679688 160.878906 120.679688 160.878906 120.804688 160.878906 C 126.222656 160.878906 131.640625 154.832031 132.648438 153.699219 C 134.914062 151.054688 137.6875 149.792969 140.960938 148.40625 C 141.464844 148.15625 141.96875 147.902344 142.597656 147.652344 C 145.371094 146.390625 149.148438 144.125 150.789062 139.714844 C 151.796875 136.691406 151.417969 133.667969 151.039062 131.023438 C 150.914062 130.644531 150.914062 129.890625 150.789062 129.132812 C 150.410156 126.234375 150.15625 123.714844 149.402344 121.953125 C 157.84375 116.660156 167.542969 113.007812 177.746094 111.371094 C 177.871094 111.75 177.871094 112.628906 177.871094 113.765625 L 177.871094 114.269531 C 177.871094 116.660156 177.871094 118.300781 176.738281 119.179688 C 175.855469 119.8125 174.722656 120.316406 173.464844 120.820312 C 172.832031 121.070312 172.078125 121.324219 171.449219 121.574219 C 168.425781 122.960938 165.023438 124.597656 162.503906 127.117188 C 160.488281 129.132812 159.859375 131.148438 160.738281 133.164062 C 161.117188 134.046875 162.125 134.675781 163.007812 134.675781 C 163.386719 134.675781 163.761719 134.550781 164.015625 134.425781 C 165.148438 133.921875 165.777344 132.660156 165.402344 131.402344 C 165.527344 131.273438 165.652344 131.023438 166.03125 130.769531 C 167.921875 128.882812 170.945312 127.496094 173.464844 126.363281 C 173.96875 126.109375 174.597656 125.859375 175.226562 125.730469 C 176.738281 125.226562 178.503906 124.597656 180.015625 123.339844 C 183.164062 120.820312 183.039062 117.164062 183.039062 114.519531 L 183.039062 114.140625 C 183.039062 113.386719 183.039062 112.253906 182.910156 111.246094 C 184.925781 110.613281 187.070312 110.488281 189.210938 110.488281 C 195.003906 110.488281 200.675781 111.117188 206.089844 112.378906 C 204.707031 114.644531 203.195312 118.425781 204.453125 123.589844 C 204.453125 123.714844 204.453125 123.714844 204.453125 123.84375 C 204.957031 125.480469 205.210938 127.875 204.707031 128.628906 C 204.578125 128.882812 204.203125 128.882812 203.699219 128.882812 C 201.554688 128.753906 187.445312 127.875 186.4375 136.3125 C 186.4375 136.441406 186.4375 136.566406 186.4375 136.816406 C 186.3125 139.96875 185.558594 141.480469 184.925781 142.109375 C 184.550781 142.613281 183.792969 142.992188 183.039062 143.496094 C 181.023438 144.753906 178 146.769531 178.375 150.925781 C 178.628906 153.195312 180.015625 154.707031 182.535156 155.460938 C 185.933594 156.46875 189.839844 156.21875 193.242188 155.964844 C 194.628906 155.839844 195.886719 155.714844 197.019531 155.714844 C 203.570312 155.589844 207.855469 156.722656 209.996094 158.863281 C 211.257812 160.125 211.761719 161.886719 211.507812 164.28125 C 211.507812 164.53125 211.003906 166.546875 206.089844 166.296875 L 205.714844 166.296875 C 197.777344 165.917969 195.507812 165.539062 194.878906 165.289062 C 188.453125 163.398438 180.519531 160.878906 172.328125 163.019531 C 163.386719 165.289062 156.332031 173.601562 155.449219 182.671875 C 154.566406 191.871094 157.464844 197.917969 164.519531 201.191406 L 165.273438 201.570312 C 168.800781 203.207031 172.078125 204.71875 176.488281 204.46875 C 176.613281 204.46875 176.738281 204.46875 176.738281 204.46875 C 178.375 204.089844 183.289062 203.835938 185.808594 205.980469 C 187.195312 207.238281 187.699219 209.128906 187.445312 211.898438 C 187.195312 214.292969 188.203125 216.058594 188.957031 217.570312 C 189.335938 218.199219 189.589844 218.828125 189.839844 219.332031 C 190.46875 221.097656 190.46875 223.238281 190.597656 225.378906 C 190.722656 227.269531 190.722656 229.285156 191.101562 231.300781 C 192.109375 236.214844 193.996094 239.992188 196.644531 242.765625 C 198.15625 244.402344 200.171875 245.15625 202.3125 245.15625 C 204.578125 245.15625 207.097656 244.277344 209.492188 242.386719 C 212.515625 240.246094 215.917969 237.597656 218.4375 234.324219 C 219.695312 232.6875 221.460938 230.417969 222.214844 227.519531 C 222.71875 225.253906 222.972656 223.113281 223.097656 220.96875 C 223.351562 218.449219 223.476562 216.058594 224.230469 213.914062 C 225.113281 211.394531 226.878906 209.128906 228.640625 206.859375 C 229.523438 205.726562 230.40625 204.59375 231.285156 203.332031 C 231.917969 202.324219 232.546875 201.316406 233.175781 200.308594 C 233.429688 199.804688 233.804688 199.300781 234.058594 198.796875 C 234.8125 197.539062 235.949219 195.773438 235.316406 193.757812 C 235.066406 192.878906 234.308594 191.742188 232.546875 191.113281 C 231.917969 190.863281 231.285156 190.609375 230.65625 190.484375 C 228.261719 189.601562 226.246094 188.847656 224.863281 187.335938 C 224.484375 186.957031 224.105469 186.578125 223.855469 186.199219 C 221.839844 184.058594 221.335938 183.304688 221.710938 181.917969 C 221.839844 181.160156 222.34375 180.152344 223.097656 179.902344 C 223.222656 179.902344 223.601562 179.902344 224.484375 180.53125 C 226.375 181.917969 230.53125 183.304688 233.679688 182.167969 C 235.570312 181.539062 236.828125 180.53125 237.332031 179.144531 C 238.214844 177.003906 237.207031 174.738281 236.453125 172.972656 C 236.074219 172.21875 235.820312 171.460938 235.695312 170.957031 C 235.445312 170.074219 235.695312 169.320312 236.324219 168.5625 C 236.703125 168.1875 237.332031 167.554688 238.46875 167.683594 C 240.734375 167.808594 243.507812 168.691406 244.890625 170.578125 C 246.53125 172.847656 249.300781 171.839844 252.199219 170.957031 C 254.96875 170.074219 258.75 168.816406 261.144531 170.074219 C 262.402344 170.707031 263.285156 172.089844 263.914062 174.234375 C 264.039062 174.484375 264.039062 174.738281 264.292969 174.863281 C 264.542969 178.515625 264.796875 182.296875 264.796875 186.074219 C 264.796875 223.867188 236.957031 255.234375 200.800781 260.777344 Z M 200.800781 260.777344"/></g><path fill="#F8EBFF" d="M 245.773438 209.003906 C 244.515625 209.632812 244.136719 211.019531 244.640625 212.277344 C 244.765625 212.78125 244.386719 214.671875 242.875 217.191406 C 241.238281 219.960938 239.476562 221.222656 239.097656 221.347656 C 237.710938 221.601562 236.828125 222.984375 237.207031 224.371094 C 237.460938 225.503906 238.46875 226.386719 239.726562 226.386719 C 239.851562 226.386719 240.105469 226.386719 240.230469 226.386719 C 243.632812 225.632812 246.53125 221.222656 247.285156 219.835938 C 248.167969 218.324219 250.9375 213.285156 249.300781 210.136719 C 248.546875 208.875 247.035156 208.371094 245.773438 209.003906 Z M 245.773438 209.003906"/><g clip-path="url(#b)"><g clip-path="url(#c)"><g clip-path="url(#d)"><path fill="#FBB152" d="M 211.15625 195.324219 C 212.128906 194.476562 212.238281 193.011719 211.402344 192.046875 C 210.566406 191.078125 209.101562 190.976562 208.136719 191.816406 C 208.128906 191.820312 208.125 191.828125 208.117188 191.832031 C 207.144531 192.667969 207.035156 194.132812 207.871094 195.101562 C 208.707031 196.066406 210.171875 196.167969 211.144531 195.332031 C 211.152344 195.328125 211.15625 195.324219 211.15625 195.324219"/></g></g></g><g clip-path="url(#e)"><g clip-path="url(#f)"><g clip-path="url(#g)"><path fill="#FBB152" d="M 205.511719 191.164062 C 206.492188 190.324219 206.601562 188.859375 205.761719 187.898438 C 204.929688 186.929688 203.464844 186.824219 202.492188 187.660156 C 202.484375 187.664062 202.480469 187.671875 202.472656 187.675781 C 201.5 188.511719 201.390625 189.976562 202.230469 190.941406 C 203.0625 191.910156 204.527344 192.011719 205.5 191.175781 C 205.507812 191.171875 205.507812 191.171875 205.511719 191.164062"/></g></g></g><g clip-path="url(#h)"><g clip-path="url(#i)"><g clip-path="url(#j)"><path fill="#FBB152" d="M 198.851562 188.113281 C 199.824219 187.273438 199.933594 185.8125 199.09375 184.847656 C 198.261719 183.878906 196.796875 183.773438 195.824219 184.613281 C 195.816406 184.617188 195.816406 184.617188 195.8125 184.621094 C 194.84375 185.464844 194.734375 186.925781 195.566406 187.894531 C 196.402344 188.863281 197.871094 188.964844 198.839844 188.121094 C 198.839844 188.121094 198.84375 188.117188 198.851562 188.113281"/></g></g></g><g clip-path="url(#k)"><g clip-path="url(#l)"><g clip-path="url(#m)"><path fill="#FBB152" d="M 191.425781 186.488281 C 192.398438 185.652344 192.507812 184.1875 191.667969 183.222656 C 190.835938 182.253906 189.371094 182.152344 188.398438 182.988281 C 188.394531 182.992188 188.394531 182.992188 188.386719 182.996094 C 187.414062 183.835938 187.3125 185.304688 188.144531 186.273438 C 188.976562 187.242188 190.449219 187.339844 191.414062 186.5 C 191.414062 186.5 191.421875 186.492188 191.425781 186.488281"/></g></g></g><g clip-path="url(#n)"><g clip-path="url(#o)"><g clip-path="url(#p)"><path fill="#FBB152" d="M 140.605469 184.664062 C 141.578125 183.828125 141.6875 182.363281 140.847656 181.402344 C 140.011719 180.425781 138.546875 180.324219 137.578125 181.164062 C 137.578125 181.164062 137.574219 181.171875 137.566406 181.175781 C 136.59375 182.011719 136.484375 183.476562 137.316406 184.445312 C 138.15625 185.417969 139.625 185.515625 140.589844 184.679688 C 140.597656 184.671875 140.597656 184.671875 140.605469 184.664062"/></g></g></g><g clip-path="url(#q)"><g clip-path="url(#r)"><g clip-path="url(#s)"><path fill="#FBB152" d="M 134.570312 188.921875 C 135.542969 188.085938 135.652344 186.621094 134.820312 185.652344 C 133.988281 184.683594 132.523438 184.582031 131.542969 185.421875 C 131.542969 185.421875 131.539062 185.425781 131.535156 185.429688 C 130.5625 186.269531 130.453125 187.730469 131.285156 188.699219 C 132.121094 189.675781 133.585938 189.777344 134.558594 188.933594 C 134.566406 188.925781 134.566406 188.925781 134.570312 188.921875"/></g></g></g><g clip-path="url(#t)"><g clip-path="url(#u)"><g clip-path="url(#v)"><path fill="#FBB152" d="M 130.332031 194.136719 C 131.304688 193.300781 131.414062 191.835938 130.578125 190.863281 C 129.738281 189.898438 128.273438 189.796875 127.3125 190.632812 C 127.304688 190.636719 127.300781 190.644531 127.292969 190.648438 C 126.320312 191.484375 126.210938 192.949219 127.046875 193.917969 C 127.882812 194.878906 129.347656 194.984375 130.320312 194.148438 C 130.328125 194.144531 130.332031 194.136719 130.332031 194.136719"/></g></g></g><g clip-path="url(#w)"><g clip-path="url(#x)"><g clip-path="url(#y)"><path fill="#FBB152" d="M 127.632812 200.121094 C 128.597656 199.28125 128.710938 197.816406 127.875 196.847656 C 127.042969 195.878906 125.578125 195.773438 124.601562 196.617188 C 124.601562 196.617188 124.59375 196.621094 124.589844 196.625 C 123.621094 197.46875 123.511719 198.933594 124.34375 199.902344 C 125.183594 200.863281 126.648438 200.96875 127.621094 200.132812 C 127.625 200.128906 127.625 200.128906 127.632812 200.121094"/></g></g></g><g clip-path="url(#z)"><g clip-path="url(#A)"><g clip-path="url(#B)"><g clip-path="url(#C)"><g clip-path="url(#D)"><path fill="#FBB152" d="M 219.839844 206.523438 C 222.136719 204.554688 222.40625 201.101562 220.445312 198.816406 C 218.484375 196.527344 215.027344 196.269531 212.730469 198.246094 C 212.714844 198.261719 212.691406 198.28125 212.675781 198.292969 C 210.378906 200.265625 210.109375 203.71875 212.074219 206.007812 C 214.035156 208.285156 217.488281 208.550781 219.785156 206.574219 C 219.804688 206.554688 219.824219 206.539062 219.839844 206.523438"/></g></g></g></g></g><g clip-path="url(#E)"><g clip-path="url(#F)"><g clip-path="url(#G)"><path fill="#FBB152" d="M 130.367188 214.863281 C 132.664062 212.886719 132.933594 209.441406 130.972656 207.152344 C 129.007812 204.863281 125.550781 204.613281 123.257812 206.578125 C 123.238281 206.59375 123.21875 206.613281 123.199219 206.628906 C 120.902344 208.597656 120.632812 212.050781 122.597656 214.339844 C 124.5625 216.632812 128.015625 216.882812 130.3125 214.914062 C 130.328125 214.898438 130.347656 214.882812 130.367188 214.863281"/></g></g></g><g clip-path="url(#H)"><g clip-path="url(#I)"><g clip-path="url(#J)"><path fill="#FBB152" d="M 183.078125 181.769531 C 179.90625 180.136719 176.351562 179.371094 172.78125 179.546875 C 172.566406 179.554688 172.375 179.4375 172.285156 179.238281 L 164.792969 163.226562 C 164.714844 163.058594 164.546875 162.941406 164.355469 162.929688 L 161.199219 162.722656 C 160.621094 162.683594 160.128906 163.113281 160.085938 163.691406 C 160.078125 163.808594 160.089844 163.925781 160.125 164.042969 L 164.265625 178.636719 C 164.339844 178.914062 164.183594 179.199219 163.902344 179.277344 C 163.859375 179.292969 163.8125 179.296875 163.765625 179.300781 C 159.3125 179.332031 154.859375 179.566406 150.429688 180.003906 C 150.226562 180.023438 150.027344 179.917969 149.929688 179.738281 L 147.71875 175.824219 C 147.613281 175.632812 147.398438 175.535156 147.179688 175.566406 L 145.757812 175.820312 C 145.472656 175.867188 145.28125 176.132812 145.328125 176.417969 C 145.332031 176.433594 145.335938 176.449219 145.339844 176.464844 L 146.40625 180.574219 C 146.433594 180.683594 146.425781 180.800781 146.386719 180.902344 L 144.746094 184.832031 C 144.636719 185.09375 144.761719 185.398438 145.027344 185.511719 C 145.042969 185.519531 145.050781 185.523438 145.066406 185.53125 L 146.441406 185.964844 C 146.648438 186.03125 146.882812 185.957031 147.015625 185.78125 L 149.765625 182.195312 C 149.890625 182.03125 150.101562 181.957031 150.300781 182.003906 C 154.628906 183.035156 158.996094 183.863281 163.398438 184.492188 C 163.679688 184.53125 163.882812 184.796875 163.84375 185.078125 C 163.835938 185.125 163.820312 185.167969 163.800781 185.214844 L 157.628906 199.113281 C 157.398438 199.640625 157.632812 200.253906 158.160156 200.484375 C 158.273438 200.535156 158.386719 200.5625 158.507812 200.578125 L 161.664062 200.785156 C 161.851562 200.796875 162.039062 200.703125 162.140625 200.546875 L 171.828125 185.691406 C 171.953125 185.515625 172.160156 185.421875 172.363281 185.464844 C 175.882812 186.113281 179.507812 185.824219 182.882812 184.636719 C 183.703125 184.347656 184.132812 183.460938 183.847656 182.644531 C 183.71875 182.265625 183.449219 181.957031 183.09375 181.777344 L 183.078125 181.769531"/></g></g></g><g fill="#00C9A2"><g><g><path d="M -11.359375 -15.375 C -11.578125 -15.65625 -11.703125 -15.957031 -11.734375 -16.28125 C -11.773438 -16.601562 -11.664062 -16.863281 -11.40625 -17.0625 L -2.21875 -24.140625 C -1.957031 -24.335938 -1.679688 -24.382812 -1.390625 -24.28125 C -1.097656 -24.175781 -0.84375 -23.984375 -0.625 -23.703125 C -0.382812 -23.390625 -0.25 -23.070312 -0.21875 -22.75 C -0.195312 -22.425781 -0.304688 -22.171875 -0.546875 -21.984375 L -3.953125 -19.359375 L 6.28125 -6.078125 C 6.457031 -5.835938 6.476562 -5.554688 6.34375 -5.234375 C 6.21875 -4.910156 6.003906 -4.628906 5.703125 -4.390625 C 5.367188 -4.140625 5.035156 -3.992188 4.703125 -3.953125 C 4.367188 -3.921875 4.113281 -4.023438 3.9375 -4.265625 L -6.296875 -17.546875 L -9.734375 -14.90625 C -9.972656 -14.71875 -10.242188 -14.675781 -10.546875 -14.78125 C -10.859375 -14.882812 -11.128906 -15.082031 -11.359375 -15.375 Z M -11.359375 -15.375" transform="translate(121.431 116.91)"/></g></g></g><g fill="#00C9A2"><g><g><path d="M 0.8125 -1.640625 L -5.046875 -11.328125 C -5.191406 -11.566406 -5.195312 -11.832031 -5.0625 -12.125 C -4.925781 -12.414062 -4.6875 -12.664062 -4.34375 -12.875 C -4.019531 -13.070312 -3.695312 -13.160156 -3.375 -13.140625 C -3.0625 -13.128906 -2.832031 -13.003906 -2.6875 -12.765625 L -2.0625 -11.71875 C -2.125 -12.4375 -2 -13.15625 -1.6875 -13.875 C -1.375 -14.601562 -0.890625 -15.164062 -0.234375 -15.5625 L 0.53125 -16.03125 C 0.789062 -16.1875 1.078125 -16.210938 1.390625 -16.109375 C 1.710938 -16.015625 1.960938 -15.816406 2.140625 -15.515625 C 2.328125 -15.210938 2.394531 -14.894531 2.34375 -14.5625 C 2.289062 -14.226562 2.132812 -13.984375 1.875 -13.828125 L 1.109375 -13.359375 C 0.335938 -12.898438 -0.140625 -12.164062 -0.328125 -11.15625 C -0.515625 -10.144531 -0.289062 -9.117188 0.34375 -8.078125 L 3.3125 -3.171875 C 3.445312 -2.953125 3.4375 -2.675781 3.28125 -2.34375 C 3.132812 -2.019531 2.882812 -1.75 2.53125 -1.53125 C 2.1875 -1.320312 1.847656 -1.234375 1.515625 -1.265625 C 1.179688 -1.296875 0.945312 -1.421875 0.8125 -1.640625 Z M 0.8125 -1.640625" transform="translate(131.918 108.899)"/></g></g></g><g fill="#00C9A2"><g><g><path d="M -0.84375 -3.4375 C -1.476562 -4.789062 -1.414062 -5.96875 -0.65625 -6.96875 C 0.101562 -7.976562 1.445312 -8.9375 3.375 -9.84375 L 4.484375 -10.359375 L 4.265625 -10.828125 C 3.921875 -11.578125 3.414062 -12.125 2.75 -12.46875 C 2.082031 -12.8125 1.328125 -12.785156 0.484375 -12.390625 C -0.242188 -12.046875 -0.820312 -11.613281 -1.25 -11.09375 C -1.675781 -10.582031 -1.914062 -10.316406 -1.96875 -10.296875 C -2.257812 -10.160156 -2.554688 -10.191406 -2.859375 -10.390625 C -3.160156 -10.585938 -3.390625 -10.851562 -3.546875 -11.1875 C -3.753906 -11.632812 -3.523438 -12.207031 -2.859375 -12.90625 C -2.203125 -13.613281 -1.414062 -14.179688 -0.5 -14.609375 C 1.238281 -15.429688 2.742188 -15.566406 4.015625 -15.015625 C 5.296875 -14.472656 6.265625 -13.503906 6.921875 -12.109375 L 9.90625 -5.75 C 10.019531 -5.507812 9.992188 -5.242188 9.828125 -4.953125 C 9.671875 -4.660156 9.410156 -4.429688 9.046875 -4.265625 C 8.703125 -4.097656 8.367188 -4.046875 8.046875 -4.109375 C 7.734375 -4.179688 7.519531 -4.335938 7.40625 -4.578125 L 7 -5.453125 C 6.488281 -3.609375 5.519531 -2.351562 4.09375 -1.6875 C 3.113281 -1.21875 2.171875 -1.125 1.265625 -1.40625 C 0.367188 -1.6875 -0.332031 -2.363281 -0.84375 -3.4375 Z M 1.6875 -5.046875 C 1.945312 -4.492188 2.289062 -4.148438 2.71875 -4.015625 C 3.15625 -3.878906 3.617188 -3.925781 4.109375 -4.15625 C 4.742188 -4.457031 5.222656 -5.015625 5.546875 -5.828125 C 5.878906 -6.648438 5.90625 -7.363281 5.625 -7.96875 L 5.171875 -8.90625 L 4.546875 -8.609375 C 3.785156 -8.253906 3.179688 -7.925781 2.734375 -7.625 C 2.285156 -7.332031 1.941406 -6.953125 1.703125 -6.484375 C 1.460938 -6.023438 1.457031 -5.546875 1.6875 -5.046875 Z M 1.6875 -5.046875" transform="translate(139.54 104.123)"/></g></g></g><g fill="#00C9A2"><g><g><path d="M -3.609375 -11.578125 C -3.710938 -11.890625 -3.597656 -12.234375 -3.265625 -12.609375 C -2.929688 -12.992188 -2.5625 -13.253906 -2.15625 -13.390625 C -1.71875 -13.546875 -1.382812 -13.472656 -1.15625 -13.171875 L 4.8125 -5.828125 L 5.203125 -15.234375 C 5.210938 -15.648438 5.429688 -15.929688 5.859375 -16.078125 C 6.191406 -16.179688 6.625 -16.179688 7.15625 -16.078125 C 7.6875 -15.972656 8 -15.773438 8.09375 -15.484375 C 8.132812 -15.359375 8.144531 -15.191406 8.125 -14.984375 L 7.25 -2.75 C 7.21875 -2.320312 6.851562 -1.992188 6.15625 -1.765625 C 5.46875 -1.535156 4.984375 -1.582031 4.703125 -1.90625 L -3.3125 -11.171875 C -3.46875 -11.316406 -3.566406 -11.453125 -3.609375 -11.578125 Z M -3.609375 -11.578125" transform="translate(150.06 99.094)"/></g></g></g><g fill="#00C9A2"><g><g><path d="M -0.0625 -5.4375 L -0.59375 -8.046875 C -0.894531 -9.492188 -0.597656 -10.851562 0.296875 -12.125 C 1.203125 -13.40625 2.441406 -14.207031 4.015625 -14.53125 C 5.515625 -14.84375 6.898438 -14.628906 8.171875 -13.890625 C 9.441406 -13.148438 10.222656 -12.050781 10.515625 -10.59375 C 10.628906 -10.039062 10.65625 -9.582031 10.59375 -9.21875 C 10.539062 -8.863281 10.390625 -8.585938 10.140625 -8.390625 C 9.890625 -8.191406 9.644531 -8.050781 9.40625 -7.96875 C 9.175781 -7.882812 8.875 -7.804688 8.5 -7.734375 L 2.703125 -6.53125 L 2.84375 -5.890625 C 3.03125 -4.984375 3.503906 -4.328125 4.265625 -3.921875 C 5.035156 -3.515625 5.953125 -3.421875 7.015625 -3.640625 C 7.765625 -3.796875 8.4375 -4.113281 9.03125 -4.59375 C 9.632812 -5.082031 10.007812 -5.34375 10.15625 -5.375 C 10.46875 -5.4375 10.765625 -5.34375 11.046875 -5.09375 C 11.328125 -4.851562 11.492188 -4.59375 11.546875 -4.3125 C 11.640625 -3.851562 11.296875 -3.300781 10.515625 -2.65625 C 9.734375 -2.007812 8.703125 -1.554688 7.421875 -1.296875 C 5.554688 -0.910156 3.925781 -1.097656 2.53125 -1.859375 C 1.132812 -2.617188 0.269531 -3.8125 -0.0625 -5.4375 Z M 2.34375 -8.3125 L 6.90625 -9.25 C 7.300781 -9.332031 7.554688 -9.441406 7.671875 -9.578125 C 7.785156 -9.722656 7.804688 -9.960938 7.734375 -10.296875 C 7.585938 -11.015625 7.195312 -11.578125 6.5625 -11.984375 C 5.925781 -12.390625 5.21875 -12.507812 4.4375 -12.34375 C 3.675781 -12.1875 3.066406 -11.804688 2.609375 -11.203125 C 2.160156 -10.609375 2.015625 -9.9375 2.171875 -9.1875 Z M 2.34375 -8.3125" transform="translate(161.051 95.333)"/></g></g></g><g fill="#00C9A2"><g><g><path d="M 1.671875 -1.1875 L -0.484375 -20.296875 C -0.515625 -20.578125 -0.40625 -20.816406 -0.15625 -21.015625 C 0.09375 -21.222656 0.429688 -21.347656 0.859375 -21.390625 C 1.253906 -21.441406 1.609375 -21.394531 1.921875 -21.25 C 2.234375 -21.113281 2.40625 -20.90625 2.4375 -20.625 L 4.59375 -1.515625 C 4.625 -1.265625 4.5 -1.019531 4.21875 -0.78125 C 3.945312 -0.550781 3.617188 -0.410156 3.234375 -0.359375 C 2.816406 -0.316406 2.457031 -0.378906 2.15625 -0.546875 C 1.863281 -0.722656 1.703125 -0.9375 1.671875 -1.1875 Z M 1.671875 -1.1875" transform="translate(173.142 92.958)"/></g></g></g><g fill="#00C9A2"><g><g><path d="M 0.4375 -1.21875 C 0.445312 -1.332031 0.460938 -1.414062 0.484375 -1.46875 L 6.78125 -19.359375 C 7.039062 -20.035156 7.6875 -20.351562 8.71875 -20.3125 C 9.757812 -20.269531 10.367188 -19.90625 10.546875 -19.21875 L 15.359375 -0.859375 C 15.390625 -0.742188 15.40625 -0.660156 15.40625 -0.609375 C 15.394531 -0.273438 15.179688 0.00390625 14.765625 0.234375 C 14.359375 0.460938 13.929688 0.566406 13.484375 0.546875 C 12.941406 0.523438 12.613281 0.304688 12.5 -0.109375 L 11.515625 -4.140625 L 4.609375 -4.421875 L 3.3125 -0.46875 C 3.15625 -0.0703125 2.796875 0.113281 2.234375 0.09375 C 1.785156 0.0703125 1.367188 -0.0664062 0.984375 -0.328125 C 0.609375 -0.585938 0.425781 -0.882812 0.4375 -1.21875 Z M 5.34375 -6.765625 L 10.9375 -6.53125 L 8.546875 -16.25 Z M 5.34375 -6.765625" transform="translate(183.62 91.73)"/></g></g></g><g fill="#00C9A2"><g><g><path d="M 1.6875 -0.71875 L 3.46875 -11.90625 C 3.519531 -12.1875 3.691406 -12.390625 3.984375 -12.515625 C 4.273438 -12.648438 4.625 -12.6875 5.03125 -12.625 C 5.394531 -12.5625 5.691406 -12.421875 5.921875 -12.203125 C 6.160156 -11.992188 6.253906 -11.75 6.203125 -11.46875 L 6.015625 -10.265625 C 6.421875 -10.859375 6.976562 -11.328125 7.6875 -11.671875 C 8.40625 -12.023438 9.144531 -12.140625 9.90625 -12.015625 L 10.78125 -11.875 C 11.082031 -11.832031 11.320312 -11.671875 11.5 -11.390625 C 11.675781 -11.109375 11.734375 -10.789062 11.671875 -10.4375 C 11.617188 -10.09375 11.460938 -9.804688 11.203125 -9.578125 C 10.953125 -9.359375 10.675781 -9.269531 10.375 -9.3125 L 9.5 -9.453125 C 8.613281 -9.597656 7.769531 -9.347656 6.96875 -8.703125 C 6.164062 -8.054688 5.671875 -7.132812 5.484375 -5.9375 L 4.578125 -0.265625 C 4.535156 -0.0234375 4.347656 0.171875 4.015625 0.328125 C 3.691406 0.484375 3.328125 0.53125 2.921875 0.46875 C 2.523438 0.40625 2.207031 0.25 1.96875 0 C 1.738281 -0.238281 1.644531 -0.476562 1.6875 -0.71875 Z M 1.6875 -0.71875" transform="translate(198.106 92.412)"/></g></g></g><g fill="#00C9A2"><g><g><path d="M 2.390625 -4.890625 L 3.078125 -7.375 C 3.460938 -8.800781 4.347656 -9.894531 5.734375 -10.65625 C 7.117188 -11.414062 8.578125 -11.585938 10.109375 -11.171875 C 11.597656 -10.765625 12.753906 -9.878906 13.578125 -8.515625 C 14.398438 -7.148438 14.617188 -5.75 14.234375 -4.3125 L 13.546875 -1.828125 C 13.160156 -0.421875 12.253906 0.671875 10.828125 1.453125 C 9.410156 2.234375 7.96875 2.421875 6.5 2.015625 C 5.007812 1.609375 3.851562 0.710938 3.03125 -0.671875 C 2.21875 -2.066406 2.003906 -3.472656 2.390625 -4.890625 Z M 5.21875 -4.109375 C 5.019531 -3.367188 5.109375 -2.632812 5.484375 -1.90625 C 5.859375 -1.175781 6.425781 -0.707031 7.1875 -0.5 C 7.925781 -0.300781 8.648438 -0.414062 9.359375 -0.84375 C 10.066406 -1.28125 10.519531 -1.867188 10.71875 -2.609375 L 11.40625 -5.09375 C 11.601562 -5.8125 11.503906 -6.535156 11.109375 -7.265625 C 10.722656 -7.992188 10.160156 -8.457031 9.421875 -8.65625 C 8.660156 -8.863281 7.929688 -8.75 7.234375 -8.3125 C 6.546875 -7.882812 6.101562 -7.3125 5.90625 -6.59375 Z M 5.21875 -4.109375" transform="translate(206.978 93.671)"/></g></g></g><g fill="#00C9A2"><g><g><path d="M 3.359375 -4.34375 L 6.046875 -10.796875 C 6.148438 -11.035156 6.378906 -11.1875 6.734375 -11.25 C 7.085938 -11.320312 7.441406 -11.28125 7.796875 -11.125 C 8.160156 -10.976562 8.4375 -10.753906 8.625 -10.453125 C 8.820312 -10.160156 8.867188 -9.894531 8.765625 -9.65625 L 6.078125 -3.203125 C 5.785156 -2.503906 5.785156 -1.769531 6.078125 -1 C 6.378906 -0.226562 6.878906 0.300781 7.578125 0.59375 C 8.316406 0.894531 9.050781 0.878906 9.78125 0.546875 C 10.519531 0.210938 11.039062 -0.304688 11.34375 -1.015625 L 14.03125 -7.484375 C 14.132812 -7.734375 14.359375 -7.882812 14.703125 -7.9375 C 15.046875 -8 15.40625 -7.953125 15.78125 -7.796875 C 16.164062 -7.640625 16.441406 -7.421875 16.609375 -7.140625 C 16.785156 -6.867188 16.820312 -6.609375 16.71875 -6.359375 L 14.03125 0.109375 C 13.457031 1.472656 12.4375 2.441406 10.96875 3.015625 C 9.5 3.597656 8.039062 3.585938 6.59375 2.984375 C 5.144531 2.378906 4.097656 1.347656 3.453125 -0.109375 C 2.816406 -1.566406 2.785156 -2.976562 3.359375 -4.34375 Z M 3.359375 -4.34375" transform="translate(218.883 96.813)"/></g></g></g><g fill="#00C9A2"><g><g><path d="M 1.84375 -0.0625 L 7.53125 -9.859375 C 7.675781 -10.097656 7.910156 -10.226562 8.234375 -10.25 C 8.554688 -10.269531 8.898438 -10.171875 9.265625 -9.953125 C 9.585938 -9.765625 9.8125 -9.53125 9.9375 -9.25 C 10.070312 -8.96875 10.066406 -8.707031 9.921875 -8.46875 L 9.421875 -7.609375 C 9.984375 -7.972656 10.648438 -8.164062 11.421875 -8.1875 C 12.191406 -8.207031 12.957031 -8 13.71875 -7.5625 C 14.863281 -6.894531 15.582031 -5.851562 15.875 -4.4375 C 16.164062 -3.019531 15.929688 -1.65625 15.171875 -0.34375 L 11.6875 5.65625 C 11.53125 5.914062 11.28125 6.046875 10.9375 6.046875 C 10.59375 6.054688 10.25 5.960938 9.90625 5.765625 C 9.570312 5.566406 9.320312 5.316406 9.15625 5.015625 C 8.988281 4.722656 8.984375 4.445312 9.140625 4.1875 L 12.625 -1.8125 C 13 -2.457031 13.09375 -3.179688 12.90625 -3.984375 C 12.726562 -4.796875 12.3125 -5.390625 11.65625 -5.765625 C 11.039062 -6.117188 10.363281 -6.203125 9.625 -6.015625 C 8.882812 -5.828125 8.296875 -5.351562 7.859375 -4.59375 L 4.375 1.40625 C 4.25 1.613281 4.003906 1.726562 3.640625 1.75 C 3.273438 1.78125 2.925781 1.703125 2.59375 1.515625 C 2.226562 1.296875 1.976562 1.03125 1.84375 0.71875 C 1.71875 0.40625 1.71875 0.144531 1.84375 -0.0625 Z M 1.84375 -0.0625" transform="translate(230.971 101.761)"/></g></g></g><g fill="#00C9A2"><g><g><path d="M 4.078125 -3.609375 L 5.65625 -5.640625 C 6.570312 -6.835938 7.75 -7.566406 9.1875 -7.828125 C 10.625 -8.085938 11.890625 -7.796875 12.984375 -6.953125 C 13.640625 -6.441406 14.09375 -5.828125 14.34375 -5.109375 C 14.59375 -4.398438 14.671875 -3.707031 14.578125 -3.03125 L 20.03125 -10.078125 C 20.195312 -10.304688 20.445312 -10.40625 20.78125 -10.375 C 21.113281 -10.34375 21.445312 -10.195312 21.78125 -9.9375 C 22.113281 -9.675781 22.332031 -9.390625 22.4375 -9.078125 C 22.550781 -8.773438 22.523438 -8.507812 22.359375 -8.28125 L 10.59375 6.9375 C 10.445312 7.132812 10.195312 7.226562 9.84375 7.21875 C 9.5 7.207031 9.164062 7.078125 8.84375 6.828125 C 8.5625 6.609375 8.375 6.332031 8.28125 6 C 8.195312 5.675781 8.226562 5.414062 8.375 5.21875 L 8.96875 4.453125 C 8.375 4.742188 7.660156 4.835938 6.828125 4.734375 C 5.992188 4.628906 5.242188 4.320312 4.578125 3.8125 C 3.546875 3.007812 2.976562 1.859375 2.875 0.359375 C 2.78125 -1.128906 3.179688 -2.453125 4.078125 -3.609375 Z M 6.40625 -1.8125 C 5.9375 -1.207031 5.738281 -0.492188 5.8125 0.328125 C 5.894531 1.160156 6.234375 1.8125 6.828125 2.28125 C 7.410156 2.726562 8.113281 2.90625 8.9375 2.8125 C 9.757812 2.726562 10.296875 2.523438 10.546875 2.203125 L 12.515625 -0.34375 C 13.046875 -1.03125 13.242188 -1.765625 13.109375 -2.546875 C 12.984375 -3.328125 12.625 -3.945312 12.03125 -4.40625 C 11.425781 -4.875 10.710938 -5.046875 9.890625 -4.921875 C 9.078125 -4.796875 8.441406 -4.4375 7.984375 -3.84375 Z M 6.40625 -1.8125" transform="translate(242.264 108.232)"/></g></g></g><g fill="#00C9A2"><g><g><path d="M 3.203125 -3.328125 L 9.078125 -16.0625 C 9.179688 -16.300781 9.40625 -16.441406 9.75 -16.484375 C 10.101562 -16.535156 10.445312 -16.476562 10.78125 -16.3125 C 11.125 -16.15625 11.394531 -15.929688 11.59375 -15.640625 C 11.800781 -15.347656 11.851562 -15.082031 11.75 -14.84375 L 9.59375 -10.1875 L 12.703125 -8.75 C 12.921875 -8.644531 13.050781 -8.460938 13.09375 -8.203125 C 13.144531 -7.953125 13.109375 -7.691406 12.984375 -7.421875 C 12.859375 -7.148438 12.679688 -6.945312 12.453125 -6.8125 C 12.234375 -6.6875 12.015625 -6.675781 11.796875 -6.78125 L 8.6875 -8.21875 L 5.875 -2.109375 C 5.59375 -1.492188 5.519531 -1 5.65625 -0.625 C 5.800781 -0.25 6.203125 0.09375 6.859375 0.40625 L 7.765625 0.8125 C 8.117188 0.976562 8.347656 1.21875 8.453125 1.53125 C 8.554688 1.84375 8.535156 2.15625 8.390625 2.46875 C 8.242188 2.789062 8.015625 3.015625 7.703125 3.140625 C 7.398438 3.273438 7.070312 3.257812 6.71875 3.09375 L 5.8125 2.6875 C 2.851562 1.320312 1.984375 -0.679688 3.203125 -3.328125 Z M 3.203125 -3.328125" transform="translate(133.426 290.847)"/></g></g></g><g fill="#00C9A2"><g><g><path d="M 1.796875 -0.4375 L 7.921875 -18.671875 C 8.003906 -18.929688 8.203125 -19.101562 8.515625 -19.1875 C 8.828125 -19.28125 9.191406 -19.253906 9.609375 -19.109375 C 9.992188 -18.984375 10.296875 -18.785156 10.515625 -18.515625 C 10.734375 -18.253906 10.800781 -17.992188 10.71875 -17.734375 L 7.875 -9.28125 C 8.351562 -9.75 8.953125 -10.078125 9.671875 -10.265625 C 10.390625 -10.460938 11.148438 -10.425781 11.953125 -10.15625 C 13.203125 -9.738281 14.113281 -8.863281 14.6875 -7.53125 C 15.257812 -6.195312 15.300781 -4.816406 14.8125 -3.390625 L 12.609375 3.1875 C 12.515625 3.476562 12.296875 3.660156 11.953125 3.734375 C 11.609375 3.804688 11.253906 3.78125 10.890625 3.65625 C 10.535156 3.53125 10.242188 3.335938 10.015625 3.078125 C 9.796875 2.816406 9.734375 2.539062 9.828125 2.25 L 12.03125 -4.328125 C 12.269531 -5.035156 12.21875 -5.757812 11.875 -6.5 C 11.53125 -7.25 11 -7.742188 10.28125 -7.984375 C 9.601562 -8.210938 8.921875 -8.15625 8.234375 -7.8125 C 7.554688 -7.476562 7.078125 -6.898438 6.796875 -6.078125 L 4.59375 0.5 C 4.507812 0.738281 4.289062 0.90625 3.9375 1 C 3.59375 1.101562 3.238281 1.09375 2.875 0.96875 C 2.476562 0.832031 2.175781 0.625 1.96875 0.34375 C 1.769531 0.0625 1.710938 -0.195312 1.796875 -0.4375 Z M 1.796875 -0.4375" transform="translate(142.803 295.254)"/></g></g></g><g fill="#00C9A2"><g><g><path d="M 2.0625 -5.03125 L 2.59375 -7.65625 C 2.875 -9.09375 3.675781 -10.222656 5 -11.046875 C 6.332031 -11.878906 7.785156 -12.140625 9.359375 -11.828125 C 10.867188 -11.523438 12.0625 -10.785156 12.9375 -9.609375 C 13.820312 -8.441406 14.117188 -7.128906 13.828125 -5.671875 C 13.710938 -5.117188 13.554688 -4.6875 13.359375 -4.375 C 13.160156 -4.0625 12.910156 -3.863281 12.609375 -3.78125 C 12.304688 -3.695312 12.03125 -3.660156 11.78125 -3.671875 C 11.539062 -3.691406 11.234375 -3.738281 10.859375 -3.8125 L 5.046875 -4.96875 L 4.90625 -4.328125 C 4.726562 -3.410156 4.914062 -2.613281 5.46875 -1.9375 C 6.019531 -1.269531 6.828125 -0.828125 7.890625 -0.609375 C 8.640625 -0.460938 9.382812 -0.492188 10.125 -0.703125 C 10.863281 -0.921875 11.300781 -1.015625 11.4375 -0.984375 C 11.757812 -0.921875 12 -0.722656 12.15625 -0.390625 C 12.320312 -0.0546875 12.378906 0.242188 12.328125 0.515625 C 12.234375 0.972656 11.695312 1.347656 10.71875 1.640625 C 9.738281 1.929688 8.613281 1.953125 7.34375 1.703125 C 5.46875 1.328125 4.035156 0.519531 3.046875 -0.71875 C 2.066406 -1.96875 1.738281 -3.40625 2.0625 -5.03125 Z M 5.390625 -6.734375 L 9.953125 -5.828125 C 10.359375 -5.742188 10.640625 -5.742188 10.796875 -5.828125 C 10.960938 -5.921875 11.078125 -6.128906 11.140625 -6.453125 C 11.285156 -7.179688 11.144531 -7.851562 10.71875 -8.46875 C 10.289062 -9.09375 9.6875 -9.484375 8.90625 -9.640625 C 8.132812 -9.796875 7.421875 -9.6875 6.765625 -9.3125 C 6.117188 -8.9375 5.722656 -8.367188 5.578125 -7.609375 Z M 5.390625 -6.734375" transform="translate(157.753 300.146)"/></g></g></g><g fill="#00C9A2"><g><g><path d="M 1.859375 -0.953125 L 2.203125 -19.453125 C 2.210938 -19.753906 2.347656 -19.988281 2.609375 -20.15625 C 2.867188 -20.332031 3.175781 -20.414062 3.53125 -20.40625 L 13.5 -20.21875 C 13.820312 -20.21875 14.066406 -20.082031 14.234375 -19.8125 C 14.398438 -19.550781 14.476562 -19.253906 14.46875 -18.921875 C 14.457031 -18.546875 14.359375 -18.226562 14.171875 -17.96875 C 13.992188 -17.71875 13.753906 -17.59375 13.453125 -17.59375 L 5.140625 -17.75 L 5.03125 -11.328125 L 9.34375 -11.25 C 9.644531 -11.25 9.878906 -11.128906 10.046875 -10.890625 C 10.222656 -10.648438 10.304688 -10.363281 10.296875 -10.03125 C 10.296875 -9.726562 10.207031 -9.460938 10.03125 -9.234375 C 9.863281 -9.015625 9.617188 -8.90625 9.296875 -8.90625 L 4.984375 -8.984375 L 4.859375 -2.53125 L 13.171875 -2.375 C 13.472656 -2.375 13.707031 -2.238281 13.875 -1.96875 C 14.050781 -1.707031 14.140625 -1.390625 14.140625 -1.015625 C 14.128906 -0.679688 14.035156 -0.382812 13.859375 -0.125 C 13.691406 0.125 13.445312 0.25 13.125 0.25 L 3.15625 0.0625 C 2.800781 0.0507812 2.492188 -0.0390625 2.234375 -0.21875 C 1.984375 -0.40625 1.859375 -0.648438 1.859375 -0.953125 Z M 1.859375 -0.953125" transform="translate(178.219 303.621)"/></g></g></g><g fill="#00C9A2"><g><g><path d="M 0.328125 -3.53125 C 0.171875 -5.019531 0.617188 -6.113281 1.671875 -6.8125 C 2.722656 -7.507812 4.300781 -7.972656 6.40625 -8.203125 L 7.640625 -8.328125 L 7.578125 -8.84375 C 7.492188 -9.664062 7.191406 -10.347656 6.671875 -10.890625 C 6.148438 -11.429688 5.429688 -11.648438 4.515625 -11.546875 C 3.710938 -11.460938 3.023438 -11.242188 2.453125 -10.890625 C 1.878906 -10.546875 1.566406 -10.375 1.515625 -10.375 C 1.191406 -10.34375 0.914062 -10.472656 0.6875 -10.765625 C 0.457031 -11.054688 0.320312 -11.382812 0.28125 -11.75 C 0.226562 -12.226562 0.628906 -12.691406 1.484375 -13.140625 C 2.347656 -13.585938 3.285156 -13.863281 4.296875 -13.96875 C 6.210938 -14.175781 7.679688 -13.8125 8.703125 -12.875 C 9.734375 -11.945312 10.332031 -10.71875 10.5 -9.1875 L 11.25 -2.203125 C 11.28125 -1.941406 11.171875 -1.695312 10.921875 -1.46875 C 10.671875 -1.25 10.34375 -1.113281 9.9375 -1.0625 C 9.570312 -1.03125 9.25 -1.097656 8.96875 -1.265625 C 8.6875 -1.429688 8.53125 -1.644531 8.5 -1.90625 L 8.40625 -2.859375 C 7.3125 -1.285156 5.976562 -0.414062 4.40625 -0.25 C 3.332031 -0.132812 2.414062 -0.351562 1.65625 -0.90625 C 0.894531 -1.46875 0.453125 -2.34375 0.328125 -3.53125 Z M 3.25 -4.21875 C 3.3125 -3.613281 3.519531 -3.175781 3.875 -2.90625 C 4.238281 -2.632812 4.691406 -2.53125 5.234375 -2.59375 C 5.941406 -2.664062 6.582031 -3.035156 7.15625 -3.703125 C 7.738281 -4.367188 7.992188 -5.03125 7.921875 -5.6875 L 7.8125 -6.734375 L 7.109375 -6.65625 C 6.285156 -6.570312 5.609375 -6.460938 5.078125 -6.328125 C 4.554688 -6.191406 4.101562 -5.941406 3.71875 -5.578125 C 3.34375 -5.210938 3.1875 -4.757812 3.25 -4.21875 Z M 3.25 -4.21875" transform="translate(194.193 303.78)"/></g></g></g><g fill="#00C9A2"><g><g><path d="M 1.3125 -1.296875 L -1.078125 -12.359375 C -1.140625 -12.640625 -1.054688 -12.894531 -0.828125 -13.125 C -0.597656 -13.351562 -0.285156 -13.507812 0.109375 -13.59375 C 0.472656 -13.675781 0.800781 -13.65625 1.09375 -13.53125 C 1.382812 -13.414062 1.5625 -13.21875 1.625 -12.9375 L 1.890625 -11.75 C 2.054688 -12.445312 2.40625 -13.085938 2.9375 -13.671875 C 3.46875 -14.265625 4.113281 -14.640625 4.875 -14.796875 L 5.734375 -14.984375 C 6.035156 -15.046875 6.320312 -14.976562 6.59375 -14.78125 C 6.863281 -14.582031 7.035156 -14.304688 7.109375 -13.953125 C 7.179688 -13.609375 7.132812 -13.285156 6.96875 -12.984375 C 6.8125 -12.679688 6.582031 -12.5 6.28125 -12.4375 L 5.421875 -12.25 C 4.546875 -12.0625 3.851562 -11.519531 3.34375 -10.625 C 2.84375 -9.738281 2.71875 -8.695312 2.96875 -7.5 L 4.1875 -1.90625 C 4.238281 -1.65625 4.132812 -1.398438 3.875 -1.140625 C 3.625 -0.878906 3.300781 -0.707031 2.90625 -0.625 C 2.507812 -0.539062 2.15625 -0.566406 1.84375 -0.703125 C 1.539062 -0.847656 1.363281 -1.046875 1.3125 -1.296875 Z M 1.3125 -1.296875" transform="translate(208.084 302.155)"/></g></g></g><g fill="#00C9A2"><g><g><path d="M 0.15625 -4.625 L -3.984375 -18.015625 C -4.066406 -18.265625 -3.992188 -18.523438 -3.765625 -18.796875 C -3.535156 -19.066406 -3.238281 -19.253906 -2.875 -19.359375 C -2.519531 -19.472656 -2.171875 -19.484375 -1.828125 -19.390625 C -1.484375 -19.296875 -1.269531 -19.125 -1.1875 -18.875 L 0.328125 -13.984375 L 3.59375 -15 C 3.820312 -15.070312 4.039062 -15.023438 4.25 -14.859375 C 4.457031 -14.703125 4.601562 -14.476562 4.6875 -14.1875 C 4.78125 -13.90625 4.785156 -13.640625 4.703125 -13.390625 C 4.617188 -13.148438 4.460938 -12.992188 4.234375 -12.921875 L 0.96875 -11.90625 L 2.953125 -5.484375 C 3.148438 -4.835938 3.425781 -4.425781 3.78125 -4.25 C 4.144531 -4.070312 4.675781 -4.085938 5.375 -4.296875 L 6.3125 -4.59375 C 6.6875 -4.707031 7.015625 -4.679688 7.296875 -4.515625 C 7.585938 -4.359375 7.785156 -4.109375 7.890625 -3.765625 C 7.992188 -3.429688 7.972656 -3.113281 7.828125 -2.8125 C 7.691406 -2.507812 7.4375 -2.300781 7.0625 -2.1875 L 6.125 -1.890625 C 3.007812 -0.929688 1.019531 -1.84375 0.15625 -4.625 Z M 0.15625 -4.625" transform="translate(218.833 299.778)"/></g></g></g><g fill="#00C9A2"><g><g><path d="M 1.046875 -1.53125 L -6.59375 -19.1875 C -6.695312 -19.4375 -6.660156 -19.695312 -6.484375 -19.96875 C -6.304688 -20.238281 -6.019531 -20.460938 -5.625 -20.640625 C -5.25 -20.796875 -4.890625 -20.847656 -4.546875 -20.796875 C -4.210938 -20.753906 -3.992188 -20.609375 -3.890625 -20.359375 L -0.34375 -12.1875 C -0.3125 -12.84375 -0.09375 -13.476562 0.3125 -14.09375 C 0.726562 -14.71875 1.320312 -15.203125 2.09375 -15.546875 C 3.3125 -16.066406 4.578125 -16.019531 5.890625 -15.40625 C 7.203125 -14.789062 8.160156 -13.789062 8.765625 -12.40625 L 11.515625 -6.046875 C 11.640625 -5.765625 11.597656 -5.484375 11.390625 -5.203125 C 11.179688 -4.921875 10.898438 -4.707031 10.546875 -4.5625 C 10.203125 -4.40625 9.859375 -4.347656 9.515625 -4.390625 C 9.171875 -4.441406 8.9375 -4.609375 8.8125 -4.890625 L 6.0625 -11.25 C 5.757812 -11.9375 5.234375 -12.441406 4.484375 -12.765625 C 3.734375 -13.097656 3.007812 -13.113281 2.3125 -12.8125 C 1.65625 -12.53125 1.179688 -12.035156 0.890625 -11.328125 C 0.609375 -10.617188 0.644531 -9.863281 1 -9.0625 L 3.75 -2.703125 C 3.851562 -2.472656 3.804688 -2.203125 3.609375 -1.890625 C 3.410156 -1.585938 3.132812 -1.359375 2.78125 -1.203125 C 2.394531 -1.035156 2.035156 -0.988281 1.703125 -1.0625 C 1.367188 -1.144531 1.148438 -1.300781 1.046875 -1.53125 Z M 1.046875 -1.53125" transform="translate(228.753 296.788)"/></g></g></g></svg>