<svg xmlns="http://www.w3.org/2000/svg" width="375" viewBox="0 0 375 375" height="375" version="1.0"><defs><clipPath id="a"><path d="M 132.671875 96.296875 L 238 96.296875 L 238 166 L 132.671875 166 Z M 132.671875 96.296875"/></clipPath><clipPath id="b"><path d="M 137 136 L 242.171875 136 L 242.171875 205.796875 L 137 205.796875 Z M 137 136"/></clipPath></defs><path fill="#FFF" d="M-37.5 -37.5H412.5V412.5H-37.5z"/><path fill="#FFF" d="M-37.5 -37.5H412.5V412.5H-37.5z"/><path fill="#F2F1EC" d="M-37.5 -37.5H412.5V412.5H-37.5z"/><g clip-path="url(#a)"><path fill="#9CC100" d="M 141.375 160.71875 C 141.976562 160.707031 142.5625 160.769531 143.121094 160.894531 C 143.941406 161.082031 144.785156 160.707031 145.160156 159.957031 C 145.1875 159.902344 145.214844 159.847656 145.242188 159.792969 C 146.082031 158.132812 147.179688 156.160156 148.59375 154 C 150.003906 151.835938 151.726562 149.480469 153.808594 147.050781 C 154.851562 145.835938 155.988281 144.609375 157.226562 143.386719 C 158.460938 142.160156 159.820312 140.953125 161.34375 139.839844 C 162.867188 138.730469 164.554688 137.710938 166.402344 136.839844 C 167.328125 136.40625 168.289062 136.007812 169.292969 135.660156 C 169.792969 135.484375 170.308594 135.324219 170.824219 135.175781 C 171.089844 135.101562 171.347656 135.027344 171.613281 134.964844 C 171.878906 134.894531 172.148438 134.835938 172.414062 134.773438 C 172.957031 134.660156 173.503906 134.558594 174.0625 134.480469 C 174.621094 134.40625 175.1875 134.351562 175.761719 134.324219 C 176.910156 134.277344 178.101562 134.351562 179.265625 134.625 C 179.847656 134.765625 180.425781 134.949219 180.976562 135.191406 C 181.527344 135.4375 182.058594 135.726562 182.546875 136.0625 C 183.042969 136.398438 183.496094 136.773438 183.921875 137.175781 C 184.34375 137.578125 184.726562 138.011719 185.082031 138.457031 C 185.792969 139.351562 186.371094 140.3125 186.890625 141.289062 C 187.402344 142.273438 187.847656 143.277344 188.257812 144.292969 C 188.664062 145.308594 189.035156 146.335938 189.378906 147.371094 C 189.558594 147.835938 189.738281 148.308594 189.914062 148.777344 L 190.484375 150.234375 L 191.058594 151.6875 L 191.492188 152.777344 L 191.527344 152.867188 C 191.53125 152.867188 191.566406 153.027344 191.558594 152.980469 L 191.578125 153.027344 L 191.777344 153.578125 C 191.796875 153.636719 191.820312 153.703125 191.84375 153.757812 L 191.90625 153.914062 C 191.996094 154.128906 192.078125 154.332031 192.171875 154.550781 C 192.351562 154.984375 192.542969 155.410156 192.738281 155.820312 C 193.128906 156.644531 193.542969 157.417969 193.972656 158.105469 C 194.410156 158.789062 194.859375 159.398438 195.3125 159.859375 C 195.539062 160.09375 195.761719 160.296875 195.976562 160.457031 C 196.199219 160.617188 196.410156 160.742188 196.617188 160.839844 C 197.03125 161.027344 197.414062 161.105469 197.863281 161.113281 C 198.3125 161.121094 198.832031 161.054688 199.421875 160.902344 C 199.714844 160.824219 200.023438 160.730469 200.335938 160.617188 C 200.652344 160.5 200.980469 160.367188 201.308594 160.222656 C 201.476562 160.144531 201.640625 160.070312 201.808594 159.988281 C 201.972656 159.910156 202.144531 159.820312 202.3125 159.738281 C 202.480469 159.644531 202.648438 159.5625 202.816406 159.464844 L 203.074219 159.324219 L 203.328125 159.179688 C 204.011719 158.789062 204.695312 158.359375 205.375 157.914062 C 206.734375 157.023438 208.082031 156.050781 209.398438 155.070312 C 210.710938 154.085938 211.992188 153.078125 213.230469 152.078125 C 214.46875 151.078125 215.660156 150.082031 216.808594 149.113281 C 217.957031 148.144531 219.058594 147.199219 220.109375 146.296875 C 221.164062 145.386719 222.164062 144.523438 223.105469 143.710938 C 224.207031 142.761719 225.753906 141.441406 226.871094 140.492188 C 227.601562 139.867188 227.761719 138.808594 227.261719 137.988281 C 226.570312 136.851562 226.1875 135.507812 226.234375 134.070312 C 226.359375 130.378906 229.363281 127.375 233.058594 127.253906 C 234.652344 127.199219 236.128906 127.679688 237.335938 128.519531 C 228.746094 109.519531 209.628906 96.300781 187.421875 96.300781 C 157.1875 96.300781 132.675781 120.808594 132.675781 151.046875 C 132.675781 156.214844 133.390625 161.214844 134.730469 165.953125 C 135.527344 163.003906 138.207031 160.796875 141.375 160.71875"/></g><g clip-path="url(#b)"><path fill="#2B3825" d="M 240.113281 136.136719 C 239.3125 139.097656 236.621094 141.308594 233.4375 141.371094 C 233.105469 141.378906 232.777344 141.363281 232.457031 141.324219 C 231.671875 141.230469 230.910156 141.636719 230.535156 142.335938 C 229.765625 143.765625 228.496094 146.070312 227.578125 147.53125 C 226.203125 149.726562 224.539062 152.132812 222.535156 154.644531 C 221.535156 155.902344 220.445312 157.179688 219.253906 158.46875 C 218.066406 159.757812 216.777344 161.050781 215.351562 162.316406 C 213.925781 163.582031 212.367188 164.820312 210.609375 165.957031 C 209.726562 166.527344 208.804688 167.074219 207.804688 167.574219 C 207.308594 167.828125 206.789062 168.066406 206.261719 168.292969 C 205.726562 168.519531 205.175781 168.734375 204.601562 168.925781 C 204.027344 169.121094 203.433594 169.300781 202.808594 169.445312 C 202.183594 169.59375 201.539062 169.714844 200.863281 169.796875 C 199.511719 169.960938 198.03125 169.960938 196.511719 169.660156 C 195.753906 169.511719 194.992188 169.285156 194.257812 168.976562 C 193.523438 168.667969 192.820312 168.28125 192.179688 167.839844 C 191.535156 167.394531 190.953125 166.894531 190.433594 166.367188 C 189.914062 165.835938 189.464844 165.277344 189.0625 164.710938 C 188.265625 163.570312 187.707031 162.394531 187.269531 161.226562 C 186.84375 160.0625 186.554688 158.90625 186.34375 157.761719 C 186.289062 157.476562 186.25 157.191406 186.207031 156.90625 C 186.160156 156.621094 186.128906 156.339844 186.09375 156.058594 C 186.074219 155.917969 186.0625 155.773438 186.046875 155.628906 L 186.003906 155.191406 L 185.984375 154.972656 C 185.976562 154.902344 185.976562 154.839844 185.96875 154.773438 L 185.949219 154.382812 L 185.9375 154.1875 L 185.933594 154.140625 C 185.921875 154.0625 185.953125 154.191406 185.945312 154.160156 L 185.9375 154.0625 L 185.910156 153.671875 L 185.847656 152.894531 L 185.726562 151.332031 L 185.597656 149.777344 L 185.527344 148.996094 L 185.488281 148.609375 L 185.480469 148.511719 C 185.480469 148.511719 185.449219 148.351562 185.460938 148.394531 L 185.460938 148.351562 L 185.445312 148.167969 C 185.382812 147.183594 185.265625 146.207031 185.078125 145.257812 C 184.890625 144.304688 184.632812 143.378906 184.285156 142.503906 C 183.929688 141.636719 183.496094 140.8125 182.960938 140.105469 C 182.6875 139.753906 182.402344 139.417969 182.085938 139.132812 C 181.769531 138.84375 181.429688 138.597656 181.074219 138.390625 C 180.359375 137.980469 179.574219 137.761719 178.777344 137.730469 C 177.972656 137.699219 177.160156 137.839844 176.375 138.105469 C 175.980469 138.238281 175.59375 138.402344 175.210938 138.585938 C 174.832031 138.773438 174.457031 138.984375 174.09375 139.207031 C 173.726562 139.429688 173.371094 139.675781 173.019531 139.925781 C 172.671875 140.183594 172.328125 140.441406 171.992188 140.714844 C 171.316406 141.261719 170.667969 141.839844 170.03125 142.417969 C 168.761719 143.582031 167.542969 144.765625 166.324219 145.902344 C 165.71875 146.472656 165.109375 147.03125 164.507812 147.582031 C 163.90625 148.132812 163.296875 148.664062 162.707031 149.199219 C 161.515625 150.261719 160.371094 151.3125 159.265625 152.324219 C 158.152344 153.339844 157.085938 154.316406 156.070312 155.242188 C 155.046875 156.175781 154.070312 157.058594 153.140625 157.886719 C 151.289062 159.546875 149.625 160.984375 148.226562 162.152344 L 148.214844 162.164062 C 147.550781 162.71875 147.355469 163.667969 147.769531 164.433594 C 148.328125 165.46875 148.636719 166.660156 148.609375 167.929688 C 148.535156 171.65625 145.515625 174.71875 141.789062 174.839844 C 140.191406 174.890625 138.714844 174.414062 137.507812 173.570312 C 146.097656 192.570312 165.214844 205.792969 187.421875 205.792969 C 217.65625 205.792969 242.167969 181.28125 242.167969 151.046875 C 242.167969 145.878906 241.453125 140.878906 240.113281 136.136719"/></g><g fill="#2B3825"><g><g><path d="M 22.1875 -21.421875 L 22.1875 0 L 18.109375 0 L 7.4375 -13 L 7.4375 0 L 2.546875 0 L 2.546875 -21.421875 L 6.640625 -21.421875 L 17.28125 -8.40625 L 17.28125 -21.421875 Z M 22.1875 -21.421875" transform="translate(107.428 246.081)"/></g></g></g><g fill="#2B3825"><g><g><path d="M 16.640625 -4.59375 L 6.703125 -4.59375 L 4.796875 0 L -0.28125 0 L 9.265625 -21.421875 L 14.171875 -21.421875 L 23.734375 0 L 18.546875 0 Z M 15.078125 -8.359375 L 11.6875 -16.546875 L 8.296875 -8.359375 Z M 15.078125 -8.359375" transform="translate(132.91 246.081)"/></g></g></g><g fill="#2B3825"><g><g><path d="M 6.96875 -17.375 L 0.125 -17.375 L 0.125 -21.421875 L 18.78125 -21.421875 L 18.78125 -17.375 L 11.9375 -17.375 L 11.9375 0 L 6.96875 0 Z M 6.96875 -17.375" transform="translate(157.108 246.081)"/></g></g></g><g fill="#2B3825"><g><g><path d="M 12.046875 0.359375 C 8.992188 0.359375 6.613281 -0.484375 4.90625 -2.171875 C 3.207031 -3.867188 2.359375 -6.285156 2.359375 -9.421875 L 2.359375 -21.421875 L 7.3125 -21.421875 L 7.3125 -9.609375 C 7.3125 -5.773438 8.898438 -3.859375 12.078125 -3.859375 C 13.628906 -3.859375 14.8125 -4.320312 15.625 -5.25 C 16.445312 -6.175781 16.859375 -7.628906 16.859375 -9.609375 L 16.859375 -21.421875 L 21.75 -21.421875 L 21.75 -9.421875 C 21.75 -6.285156 20.894531 -3.867188 19.1875 -2.171875 C 17.488281 -0.484375 15.109375 0.359375 12.046875 0.359375 Z M 12.046875 0.359375" transform="translate(176.778 246.081)"/></g></g></g><g fill="#2B3825"><g><g><path d="M 16.1875 0 L 12.046875 -5.96875 L 7.5 -5.96875 L 7.5 0 L 2.546875 0 L 2.546875 -21.421875 L 11.8125 -21.421875 C 13.707031 -21.421875 15.351562 -21.101562 16.75 -20.46875 C 18.144531 -19.832031 19.21875 -18.929688 19.96875 -17.765625 C 20.726562 -16.609375 21.109375 -15.234375 21.109375 -13.640625 C 21.109375 -12.054688 20.722656 -10.6875 19.953125 -9.53125 C 19.191406 -8.375 18.109375 -7.492188 16.703125 -6.890625 L 21.5 0 Z M 16.09375 -13.640625 C 16.09375 -14.847656 15.703125 -15.769531 14.921875 -16.40625 C 14.148438 -17.050781 13.019531 -17.375 11.53125 -17.375 L 7.5 -17.375 L 7.5 -9.90625 L 11.53125 -9.90625 C 13.019531 -9.90625 14.148438 -10.234375 14.921875 -10.890625 C 15.703125 -11.546875 16.09375 -12.460938 16.09375 -13.640625 Z M 16.09375 -13.640625" transform="translate(201.648 246.081)"/></g></g></g><g fill="#2B3825"><g><g><path d="M 16.640625 -4.59375 L 6.703125 -4.59375 L 4.796875 0 L -0.28125 0 L 9.265625 -21.421875 L 14.171875 -21.421875 L 23.734375 0 L 18.546875 0 Z M 15.078125 -8.359375 L 11.6875 -16.546875 L 8.296875 -8.359375 Z M 15.078125 -8.359375" transform="translate(224.897 246.081)"/></g></g></g><g fill="#2B3825"><g><g><path d="M 2.546875 -21.421875 L 7.5 -21.421875 L 7.5 -4.03125 L 18.234375 -4.03125 L 18.234375 0 L 2.546875 0 Z M 2.546875 -21.421875" transform="translate(249.095 246.081)"/></g></g></g><g fill="#2B3825"><g><g><path d="M 5.03125 -0.71875 L 5.03125 0 L 0.859375 0 L 0.859375 -5.75 L 4.921875 -5.75 L 4.921875 -5.03125 L 1.6875 -5.03125 L 1.6875 -3.265625 L 4.5625 -3.265625 L 4.5625 -2.578125 L 1.6875 -2.578125 L 1.6875 -0.71875 Z M 5.03125 -0.71875" transform="translate(122.704 261.067)"/></g></g></g><g fill="#2B3825"><g><g><path d="M 5.8125 -5.75 L 5.8125 0 L 5.140625 0 L 1.6875 -4.296875 L 1.6875 0 L 0.859375 0 L 0.859375 -5.75 L 1.53125 -5.75 L 4.984375 -1.46875 L 4.984375 -5.75 Z M 5.8125 -5.75" transform="translate(129.653 261.067)"/></g></g></g><g fill="#2B3825"><g><g><path d="M 5.859375 -5.75 L 3.34375 0 L 2.515625 0 L -0.015625 -5.75 L 0.875 -5.75 L 2.953125 -1.03125 L 5.03125 -5.75 Z M 5.859375 -5.75" transform="translate(137.768 261.067)"/></g></g></g><g fill="#2B3825"><g><g><path d="M 0.859375 -5.75 L 1.6875 -5.75 L 1.6875 0 L 0.859375 0 Z M 0.859375 -5.75" transform="translate(145.061 261.067)"/></g></g></g><g fill="#2B3825"><g><g><path d="M 4.703125 0 L 3.46875 -1.765625 C 3.3125 -1.753906 3.191406 -1.75 3.109375 -1.75 L 1.6875 -1.75 L 1.6875 0 L 0.859375 0 L 0.859375 -5.75 L 3.109375 -5.75 C 3.847656 -5.75 4.429688 -5.570312 4.859375 -5.21875 C 5.285156 -4.863281 5.5 -4.375 5.5 -3.75 C 5.5 -3.300781 5.390625 -2.921875 5.171875 -2.609375 C 4.953125 -2.296875 4.640625 -2.070312 4.234375 -1.9375 L 5.609375 0 Z M 3.078125 -2.453125 C 3.597656 -2.453125 3.992188 -2.5625 4.265625 -2.78125 C 4.546875 -3.007812 4.6875 -3.332031 4.6875 -3.75 C 4.6875 -4.164062 4.546875 -4.484375 4.265625 -4.703125 C 3.992188 -4.921875 3.597656 -5.03125 3.078125 -5.03125 L 1.6875 -5.03125 L 1.6875 -2.453125 Z M 3.078125 -2.453125" transform="translate(149.053 261.067)"/></g></g></g><g fill="#2B3825"><g><g><path d="M 3.453125 0.0625 C 2.878906 0.0625 2.359375 -0.0625 1.890625 -0.3125 C 1.421875 -0.570312 1.050781 -0.925781 0.78125 -1.375 C 0.519531 -1.820312 0.390625 -2.320312 0.390625 -2.875 C 0.390625 -3.425781 0.519531 -3.925781 0.78125 -4.375 C 1.050781 -4.820312 1.421875 -5.171875 1.890625 -5.421875 C 2.359375 -5.679688 2.878906 -5.8125 3.453125 -5.8125 C 4.035156 -5.8125 4.554688 -5.679688 5.015625 -5.421875 C 5.484375 -5.171875 5.847656 -4.820312 6.109375 -4.375 C 6.378906 -3.9375 6.515625 -3.4375 6.515625 -2.875 C 6.515625 -2.3125 6.378906 -1.804688 6.109375 -1.359375 C 5.847656 -0.921875 5.484375 -0.570312 5.015625 -0.3125 C 4.554688 -0.0625 4.035156 0.0625 3.453125 0.0625 Z M 3.453125 -0.671875 C 3.878906 -0.671875 4.257812 -0.765625 4.59375 -0.953125 C 4.9375 -1.140625 5.203125 -1.398438 5.390625 -1.734375 C 5.585938 -2.078125 5.6875 -2.457031 5.6875 -2.875 C 5.6875 -3.289062 5.585938 -3.664062 5.390625 -4 C 5.203125 -4.34375 4.9375 -4.609375 4.59375 -4.796875 C 4.257812 -4.992188 3.878906 -5.09375 3.453125 -5.09375 C 3.035156 -5.09375 2.65625 -4.992188 2.3125 -4.796875 C 1.96875 -4.609375 1.695312 -4.34375 1.5 -4 C 1.3125 -3.664062 1.21875 -3.289062 1.21875 -2.875 C 1.21875 -2.457031 1.3125 -2.078125 1.5 -1.734375 C 1.695312 -1.398438 1.96875 -1.140625 2.3125 -0.953125 C 2.65625 -0.765625 3.035156 -0.671875 3.453125 -0.671875 Z M 3.453125 -0.671875" transform="translate(156.47 261.067)"/></g></g></g><g fill="#2B3825"><g><g><path d="M 5.8125 -5.75 L 5.8125 0 L 5.140625 0 L 1.6875 -4.296875 L 1.6875 0 L 0.859375 0 L 0.859375 -5.75 L 1.53125 -5.75 L 4.984375 -1.46875 L 4.984375 -5.75 Z M 5.8125 -5.75" transform="translate(164.815 261.067)"/></g></g></g><g fill="#2B3825"><g><g><path d="M 6.203125 0 L 6.1875 -4.1875 L 4.109375 -0.703125 L 3.734375 -0.703125 L 1.65625 -4.171875 L 1.65625 0 L 0.859375 0 L 0.859375 -5.75 L 1.53125 -5.75 L 3.9375 -1.703125 L 6.296875 -5.75 L 6.984375 -5.75 L 6.984375 0 Z M 6.203125 0" transform="translate(172.93 261.067)"/></g></g></g><g fill="#2B3825"><g><g><path d="M 5.03125 -0.71875 L 5.03125 0 L 0.859375 0 L 0.859375 -5.75 L 4.921875 -5.75 L 4.921875 -5.03125 L 1.6875 -5.03125 L 1.6875 -3.265625 L 4.5625 -3.265625 L 4.5625 -2.578125 L 1.6875 -2.578125 L 1.6875 -0.71875 Z M 5.03125 -0.71875" transform="translate(182.219 261.067)"/></g></g></g><g fill="#2B3825"><g><g><path d="M 5.8125 -5.75 L 5.8125 0 L 5.140625 0 L 1.6875 -4.296875 L 1.6875 0 L 0.859375 0 L 0.859375 -5.75 L 1.53125 -5.75 L 4.984375 -1.46875 L 4.984375 -5.75 Z M 5.8125 -5.75" transform="translate(189.167 261.067)"/></g></g></g><g fill="#2B3825"><g><g><path d="M 2 -5.03125 L 0.03125 -5.03125 L 0.03125 -5.75 L 4.796875 -5.75 L 4.796875 -5.03125 L 2.8125 -5.03125 L 2.8125 0 L 2 0 Z M 2 -5.03125" transform="translate(197.282 261.067)"/></g></g></g><g fill="#2B3825"><g><g><path d="M 2.546875 0.0625 C 2.109375 0.0625 1.6875 -0.00390625 1.28125 -0.140625 C 0.882812 -0.273438 0.570312 -0.445312 0.34375 -0.65625 L 0.640625 -1.296875 C 0.859375 -1.097656 1.140625 -0.9375 1.484375 -0.8125 C 1.828125 -0.695312 2.179688 -0.640625 2.546875 -0.640625 C 3.015625 -0.640625 3.367188 -0.71875 3.609375 -0.875 C 3.847656 -1.039062 3.96875 -1.253906 3.96875 -1.515625 C 3.96875 -1.710938 3.898438 -1.875 3.765625 -2 C 3.640625 -2.125 3.484375 -2.21875 3.296875 -2.28125 C 3.109375 -2.351562 2.835938 -2.425781 2.484375 -2.5 C 2.054688 -2.601562 1.707031 -2.707031 1.4375 -2.8125 C 1.175781 -2.914062 0.953125 -3.078125 0.765625 -3.296875 C 0.578125 -3.515625 0.484375 -3.804688 0.484375 -4.171875 C 0.484375 -4.484375 0.5625 -4.757812 0.71875 -5 C 0.882812 -5.25 1.128906 -5.445312 1.453125 -5.59375 C 1.785156 -5.738281 2.191406 -5.8125 2.671875 -5.8125 C 3.015625 -5.8125 3.347656 -5.769531 3.671875 -5.6875 C 4.003906 -5.601562 4.289062 -5.476562 4.53125 -5.3125 L 4.25 -4.65625 C 4.007812 -4.800781 3.753906 -4.914062 3.484375 -5 C 3.210938 -5.082031 2.941406 -5.125 2.671875 -5.125 C 2.210938 -5.125 1.863281 -5.035156 1.625 -4.859375 C 1.394531 -4.691406 1.28125 -4.472656 1.28125 -4.203125 C 1.28125 -4.003906 1.34375 -3.84375 1.46875 -3.71875 C 1.601562 -3.601562 1.769531 -3.507812 1.96875 -3.4375 C 2.164062 -3.375 2.429688 -3.300781 2.765625 -3.21875 C 3.191406 -3.113281 3.535156 -3.007812 3.796875 -2.90625 C 4.066406 -2.800781 4.296875 -2.640625 4.484375 -2.421875 C 4.671875 -2.210938 4.765625 -1.925781 4.765625 -1.5625 C 4.765625 -1.269531 4.679688 -1 4.515625 -0.75 C 4.359375 -0.5 4.109375 -0.300781 3.765625 -0.15625 C 3.429688 -0.0078125 3.023438 0.0625 2.546875 0.0625 Z M 2.546875 0.0625" transform="translate(207.204 261.067)"/></g></g></g><g fill="#2B3825"><g><g><path d="M 5.03125 -0.71875 L 5.03125 0 L 0.859375 0 L 0.859375 -5.75 L 4.921875 -5.75 L 4.921875 -5.03125 L 1.6875 -5.03125 L 1.6875 -3.265625 L 4.5625 -3.265625 L 4.5625 -2.578125 L 1.6875 -2.578125 L 1.6875 -0.71875 Z M 5.03125 -0.71875" transform="translate(213.75 261.067)"/></g></g></g><g fill="#2B3825"><g><g><path d="M 4.703125 0 L 3.46875 -1.765625 C 3.3125 -1.753906 3.191406 -1.75 3.109375 -1.75 L 1.6875 -1.75 L 1.6875 0 L 0.859375 0 L 0.859375 -5.75 L 3.109375 -5.75 C 3.847656 -5.75 4.429688 -5.570312 4.859375 -5.21875 C 5.285156 -4.863281 5.5 -4.375 5.5 -3.75 C 5.5 -3.300781 5.390625 -2.921875 5.171875 -2.609375 C 4.953125 -2.296875 4.640625 -2.070312 4.234375 -1.9375 L 5.609375 0 Z M 3.078125 -2.453125 C 3.597656 -2.453125 3.992188 -2.5625 4.265625 -2.78125 C 4.546875 -3.007812 4.6875 -3.332031 4.6875 -3.75 C 4.6875 -4.164062 4.546875 -4.484375 4.265625 -4.703125 C 3.992188 -4.921875 3.597656 -5.03125 3.078125 -5.03125 L 1.6875 -5.03125 L 1.6875 -2.453125 Z M 3.078125 -2.453125" transform="translate(220.699 261.067)"/></g></g></g><g fill="#2B3825"><g><g><path d="M 5.859375 -5.75 L 3.34375 0 L 2.515625 0 L -0.015625 -5.75 L 0.875 -5.75 L 2.953125 -1.03125 L 5.03125 -5.75 Z M 5.859375 -5.75" transform="translate(228.116 261.067)"/></g></g></g><g fill="#2B3825"><g><g><path d="M 0.859375 -5.75 L 1.6875 -5.75 L 1.6875 0 L 0.859375 0 Z M 0.859375 -5.75" transform="translate(235.41 261.067)"/></g></g></g><g fill="#2B3825"><g><g><path d="M 3.4375 0.0625 C 2.863281 0.0625 2.34375 -0.0625 1.875 -0.3125 C 1.414062 -0.570312 1.050781 -0.921875 0.78125 -1.359375 C 0.519531 -1.804688 0.390625 -2.3125 0.390625 -2.875 C 0.390625 -3.4375 0.519531 -3.9375 0.78125 -4.375 C 1.050781 -4.820312 1.414062 -5.171875 1.875 -5.421875 C 2.34375 -5.679688 2.863281 -5.8125 3.4375 -5.8125 C 3.894531 -5.8125 4.304688 -5.734375 4.671875 -5.578125 C 5.046875 -5.429688 5.363281 -5.210938 5.625 -4.921875 L 5.09375 -4.40625 C 4.664062 -4.863281 4.125 -5.09375 3.46875 -5.09375 C 3.039062 -5.09375 2.65625 -4.992188 2.3125 -4.796875 C 1.96875 -4.609375 1.695312 -4.34375 1.5 -4 C 1.3125 -3.664062 1.21875 -3.289062 1.21875 -2.875 C 1.21875 -2.457031 1.3125 -2.078125 1.5 -1.734375 C 1.695312 -1.398438 1.96875 -1.140625 2.3125 -0.953125 C 2.65625 -0.765625 3.039062 -0.671875 3.46875 -0.671875 C 4.113281 -0.671875 4.65625 -0.898438 5.09375 -1.359375 L 5.625 -0.84375 C 5.363281 -0.539062 5.046875 -0.3125 4.671875 -0.15625 C 4.296875 -0.0078125 3.882812 0.0625 3.4375 0.0625 Z M 3.4375 0.0625" transform="translate(239.4 261.067)"/></g></g></g><g fill="#2B3825"><g><g><path d="M 5.03125 -0.71875 L 5.03125 0 L 0.859375 0 L 0.859375 -5.75 L 4.921875 -5.75 L 4.921875 -5.03125 L 1.6875 -5.03125 L 1.6875 -3.265625 L 4.5625 -3.265625 L 4.5625 -2.578125 L 1.6875 -2.578125 L 1.6875 -0.71875 Z M 5.03125 -0.71875" transform="translate(246.785 261.067)"/></g></g></g></svg>