<svg xmlns="http://www.w3.org/2000/svg" width="375" viewBox="0 0 375 375" height="375" version="1.0"><defs><clipPath id="a"><path d="M 252 212 L 253 212 L 253 212.566406 L 252 212.566406 Z M 252 212"/></clipPath></defs><path fill="#FFF" d="M-37.5 -37.5H412.5V412.5H-37.5z"/><path fill="#FFF" d="M-37.5 -37.5H412.5V412.5H-37.5z"/><path fill="#FDFFF6" d="M-37.5 -37.5H412.5V412.5H-37.5z"/><path fill="#39B54A" d="M 177.113281 166.09375 C 183.808594 169.359375 189.667969 169.535156 195.878906 169.722656 C 196.777344 169.75 197.683594 169.777344 198.589844 169.816406 C 204.636719 170.054688 210.941406 170.683594 218.195312 174.320312 C 219.148438 174.796875 220.113281 175.316406 221.101562 175.90625 C 222.742188 176.871094 224.121094 178.214844 225.128906 179.804688 C 225.167969 179.867188 225.199219 179.933594 225.230469 180.003906 L 226.820312 184.089844 L 226.890625 184.59375 C 226.925781 184.824219 226.945312 185.046875 226.96875 185.277344 C 231.757812 178.902344 234.664062 171.535156 235.667969 163.972656 C 236.34375 158.921875 236.171875 153.769531 235.144531 148.753906 C 233.933594 142.816406 231.53125 137.078125 227.933594 131.902344 C 227.113281 130.738281 226.242188 129.597656 225.308594 128.496094 C 224.648438 127.714844 223.953125 126.949219 223.230469 126.203125 C 205.675781 108.058594 176.710938 107.5625 158.539062 125.082031 C 158.113281 125.496094 157.691406 125.914062 157.292969 126.34375 C 158.914062 127.472656 159.679688 129.472656 159.167969 131.445312 C 155.578125 145.421875 162.617188 159.015625 177.113281 166.09375"/><path fill="#006838" d="M 164.035156 195.273438 C 171.03125 200.195312 179.4375 203.234375 188.523438 203.621094 C 200.710938 204.140625 211.933594 199.949219 220.484375 192.703125 C 222.820312 190.726562 223.753906 187.828125 223.363281 185.09375 C 221.882812 185.957031 220.371094 186.757812 218.816406 187.496094 C 212.21875 190.660156 204.878906 192.601562 197.382812 192.78125 C 191.980469 192.933594 186.515625 192.042969 181.433594 190.160156 C 179.484375 189.445312 177.597656 188.574219 175.792969 187.5625 C 172.710938 185.859375 169.902344 183.730469 167.453125 181.289062 C 164.695312 178.539062 162.390625 175.398438 160.65625 172.011719 C 163.652344 175.222656 166.921875 178.066406 170.449219 180.402344 C 172.679688 181.902344 175.023438 183.183594 177.464844 184.226562 C 181.105469 185.816406 184.9375 186.90625 188.835938 187.5 C 191.625 187.933594 194.457031 188.105469 197.289062 188.035156 C 204.074219 187.878906 210.855469 186.441406 217.390625 184.066406 C 219.058594 183.46875 220.707031 182.816406 222.355469 182.117188 C 221.660156 180.863281 220.625 179.761719 219.277344 178.960938 C 217.527344 177.921875 215.835938 177.078125 214.191406 176.398438 C 205.714844 172.875 198.484375 173.554688 190.957031 173.085938 C 186.089844 172.777344 181.09375 171.996094 175.542969 169.289062 C 160.957031 162.167969 151.320312 147.667969 155.714844 130.5625 C 156.046875 129.277344 154.375 128.441406 153.574219 129.5 C 147.730469 137.1875 144.246094 146.78125 144.195312 157.1875 C 144.191406 158.3125 144.222656 159.425781 144.300781 160.527344 C 144.425781 162.410156 144.671875 164.257812 145.015625 166.082031 C 146.34375 172.917969 149.191406 179.25 153.203125 184.695312 C 156.207031 188.777344 159.871094 192.359375 164.035156 195.273438"/><path fill="#00562E" d="M 145.015625 166.082031 C 144.671875 164.257812 144.425781 162.410156 144.300781 160.527344 C 145.429688 162.207031 145.644531 164.273438 145.015625 166.082031"/><path fill="#2F953D" d="M 227.933594 131.902344 C 227.726562 131.785156 227.539062 131.644531 227.351562 131.496094 C 226.375 130.703125 225.667969 129.667969 225.308594 128.496094 C 226.242188 129.597656 227.113281 130.738281 227.933594 131.902344"/><path fill="#F26522" d="M 248.113281 150.1875 C 255.570312 143 259.230469 136.089844 256.84375 130.460938 C 254.257812 124.363281 245.324219 121.933594 231.007812 123.433594 C 229.265625 123.617188 228.003906 125.171875 228.1875 126.910156 C 228.371094 128.648438 229.929688 129.90625 231.667969 129.726562 C 244.375 128.394531 250.027344 130.617188 251.007812 132.929688 C 252.066406 135.421875 249.355469 141.472656 238.246094 150.332031 C 227.542969 158.863281 212.144531 167.578125 194.882812 174.871094 C 177.617188 182.167969 160.628906 187.140625 147.046875 188.871094 C 132.9375 190.671875 126.699219 188.398438 125.644531 185.90625 C 124.378906 182.925781 128.617188 175.785156 140.933594 166.558594 C 142.332031 165.507812 142.613281 163.527344 141.5625 162.128906 C 140.515625 160.730469 138.527344 160.449219 137.128906 161.496094 C 127.183594 168.945312 116.109375 179.65625 119.808594 188.375 C 122.53125 194.796875 132.226562 197.136719 147.847656 195.148438 C 161.988281 193.34375 179.570312 188.210938 197.351562 180.699219 C 217.683594 172.105469 237.0625 160.84375 248.113281 150.1875"/><g clip-path="url(#a)"><path fill="#231F20" d="M 252.453125 212.03125 C 252.480469 212.089844 252.503906 212.144531 252.53125 212.203125 C 252.578125 212.324219 252.625 212.445312 252.667969 212.566406 C 252.625 212.445312 252.578125 212.324219 252.53125 212.203125 C 252.503906 212.144531 252.480469 212.089844 252.453125 212.03125"/></g><g fill="#3B3A3A"><g><g><path d="M 1.375 -18.96875 L 8.296875 -18.96875 C 10.234375 -18.96875 11.796875 -18.46875 12.984375 -17.46875 C 14.179688 -16.476562 14.78125 -15.03125 14.78125 -13.125 C 14.78125 -11.226562 14.175781 -9.738281 12.96875 -8.65625 C 11.757812 -7.570312 10.203125 -7.03125 8.296875 -7.03125 L 5.703125 -7.03125 L 5.703125 0 L 1.375 0 Z M 5.703125 -10.484375 L 6.921875 -10.484375 C 7.890625 -10.484375 8.679688 -10.675781 9.296875 -11.0625 C 9.921875 -11.457031 10.234375 -12.101562 10.234375 -13 C 10.234375 -13.90625 9.921875 -14.550781 9.296875 -14.9375 C 8.679688 -15.332031 7.890625 -15.53125 6.921875 -15.53125 L 5.703125 -15.53125 Z M 5.703125 -10.484375" transform="translate(90.092 252.217)"/></g></g></g><g fill="#3B3A3A"><g><g><path d="M 5.703125 -18.96875 L 5.703125 -3.796875 L 12.234375 -3.796875 L 12.234375 0 L 1.375 0 L 1.375 -18.96875 Z M 5.703125 -18.96875" transform="translate(108.095 252.217)"/></g></g></g><g fill="#3B3A3A"><g><g><path d="M 11.015625 -18.96875 L 18.671875 0 L 14.03125 0 L 12.625 -3.796875 L 5.40625 -3.796875 L 4 0 L -0.640625 0 L 7.015625 -18.96875 Z M 11.15625 -7.59375 L 9.03125 -13.109375 L 9 -13.109375 L 6.875 -7.59375 Z M 11.15625 -7.59375" transform="translate(123.777 252.217)"/></g></g></g><g fill="#3B3A3A"><g><g><path d="M 5.703125 -11.78125 L 5.703125 0 L 1.375 0 L 1.375 -18.96875 L 5.703125 -18.96875 L 13.25 -7.203125 L 13.296875 -7.203125 L 13.296875 -18.96875 L 17.625 -18.96875 L 17.625 0 L 13.296875 0 L 5.75 -11.78125 Z M 5.703125 -11.78125" transform="translate(144.494 252.217)"/></g></g></g><g fill="#3B3A3A"><g><g><path d="M 12.234375 -18.96875 L 12.234375 -15.1875 L 5.703125 -15.1875 L 5.703125 -11.40625 L 11.953125 -11.40625 L 11.953125 -7.609375 L 5.703125 -7.609375 L 5.703125 -3.796875 L 12.234375 -3.796875 L 12.234375 0 L 1.375 0 L 1.375 -18.96875 Z M 12.234375 -18.96875" transform="translate(166.177 252.217)"/></g></g></g><g fill="#3B3A3A"><g><g><path d="M 0.1875 -15.1875 L 0.1875 -18.96875 L 13.53125 -18.96875 L 13.53125 -15.1875 L 9.015625 -15.1875 L 9.015625 0 L 4.6875 0 L 4.6875 -15.1875 Z M 0.1875 -15.1875" transform="translate(182.203 252.217)"/></g></g></g><g fill="#3B3A3A"><g><g><path d="M 12.34375 -18.96875 L 12.34375 -15.1875 L 5.703125 -15.1875 L 5.703125 -11.40625 L 11.84375 -11.40625 L 11.84375 -7.609375 L 5.703125 -7.609375 L 5.703125 0 L 1.375 0 L 1.375 -18.96875 Z M 12.34375 -18.96875" transform="translate(207.565 252.217)"/></g></g></g><g fill="#3B3A3A"><g><g><path d="M 11.015625 -18.96875 L 18.671875 0 L 14.03125 0 L 12.625 -3.796875 L 5.40625 -3.796875 L 4 0 L -0.640625 0 L 7.015625 -18.96875 Z M 11.15625 -7.59375 L 9.03125 -13.109375 L 9 -13.109375 L 6.875 -7.59375 Z M 11.15625 -7.59375" transform="translate(223.293 252.217)"/></g></g></g><g fill="#3B3A3A"><g><g><path d="M 1.375 -18.96875 L 8.171875 -18.96875 C 9.992188 -18.96875 11.476562 -18.476562 12.625 -17.5 C 13.78125 -16.53125 14.359375 -15.144531 14.359375 -13.34375 C 14.359375 -11.945312 14.007812 -10.773438 13.3125 -9.828125 C 12.613281 -8.890625 11.664062 -8.226562 10.46875 -7.84375 L 17 0 L 11.5 0 L 5.703125 -7.5 L 5.703125 0 L 1.375 0 Z M 5.703125 -10.5625 L 6.203125 -10.5625 C 6.609375 -10.5625 6.945312 -10.566406 7.21875 -10.578125 C 7.5 -10.597656 7.8125 -10.648438 8.15625 -10.734375 C 8.507812 -10.828125 8.796875 -10.957031 9.015625 -11.125 C 9.234375 -11.300781 9.414062 -11.546875 9.5625 -11.859375 C 9.71875 -12.179688 9.796875 -12.570312 9.796875 -13.03125 C 9.796875 -13.5 9.71875 -13.894531 9.5625 -14.21875 C 9.414062 -14.539062 9.234375 -14.785156 9.015625 -14.953125 C 8.796875 -15.117188 8.507812 -15.25 8.15625 -15.34375 C 7.8125 -15.4375 7.5 -15.488281 7.21875 -15.5 C 6.945312 -15.519531 6.609375 -15.53125 6.203125 -15.53125 L 5.703125 -15.53125 Z M 5.703125 -10.5625" transform="translate(244.01 252.217)"/></g></g></g><g fill="#3B3A3A"><g><g><path d="M 17.0625 0 L 16.171875 -11.25 L 16.046875 -11.25 L 12.171875 -0.109375 L 9.59375 -0.109375 L 5.703125 -11.25 L 5.59375 -11.25 L 4.6875 0 L 0.375 0 L 2.0625 -18.96875 L 6.671875 -18.96875 L 10.875 -8.03125 L 15.09375 -18.96875 L 19.6875 -18.96875 L 21.390625 0 Z M 17.0625 0" transform="translate(263.163 252.217)"/></g></g></g><g fill="#008037"><g><g><path d="M 5.25 0 L 4.671875 -1.671875 L 2.1875 -1.671875 L 1.609375 0 L 0.234375 0 L 2.625 -6.53125 L 4.234375 -6.53125 L 6.609375 0 Z M 3.421875 -5.53125 L 3.40625 -5.421875 C 3.375 -5.316406 3.332031 -5.191406 3.28125 -5.046875 C 3.238281 -4.898438 2.972656 -4.117188 2.484375 -2.703125 L 4.375 -2.703125 L 3.71875 -4.578125 L 3.53125 -5.203125 Z M 3.421875 -5.53125" transform="translate(114.436 270.134)"/></g></g></g><g fill="#008037"><g><g><path d="M 3.734375 -0.984375 C 4.085938 -0.984375 4.429688 -1.035156 4.765625 -1.140625 C 5.109375 -1.242188 5.367188 -1.375 5.546875 -1.53125 L 5.546875 -2.4375 L 3.953125 -2.4375 L 3.953125 -3.453125 L 6.796875 -3.453125 L 6.796875 -1.046875 C 6.453125 -0.691406 6 -0.410156 5.4375 -0.203125 C 4.882812 -0.00390625 4.304688 0.09375 3.703125 0.09375 C 2.640625 0.09375 1.820312 -0.195312 1.25 -0.78125 C 0.675781 -1.375 0.390625 -2.210938 0.390625 -3.296875 C 0.390625 -4.367188 0.675781 -5.191406 1.25 -5.765625 C 1.820312 -6.347656 2.648438 -6.640625 3.734375 -6.640625 C 5.265625 -6.640625 6.238281 -6.070312 6.65625 -4.9375 L 5.40625 -4.546875 C 5.269531 -4.878906 5.054688 -5.128906 4.765625 -5.296875 C 4.472656 -5.472656 4.128906 -5.5625 3.734375 -5.5625 C 3.085938 -5.5625 2.597656 -5.363281 2.265625 -4.96875 C 1.929688 -4.582031 1.765625 -4.023438 1.765625 -3.296875 C 1.765625 -2.554688 1.9375 -1.984375 2.28125 -1.578125 C 2.625 -1.179688 3.109375 -0.984375 3.734375 -0.984375 Z M 3.734375 -0.984375" transform="translate(124.53 270.134)"/></g></g></g><g fill="#008037"><g><g><path d="M 5.125 0 L 3.609375 -2.484375 L 2 -2.484375 L 2 0 L 0.640625 0 L 0.640625 -6.53125 L 3.90625 -6.53125 C 4.675781 -6.53125 5.273438 -6.363281 5.703125 -6.03125 C 6.128906 -5.695312 6.34375 -5.21875 6.34375 -4.59375 C 6.34375 -4.132812 6.210938 -3.738281 5.953125 -3.40625 C 5.691406 -3.070312 5.34375 -2.851562 4.90625 -2.75 L 6.671875 0 Z M 4.96875 -4.53125 C 4.96875 -5.15625 4.5625 -5.46875 3.75 -5.46875 L 2 -5.46875 L 2 -3.546875 L 3.796875 -3.546875 C 4.179688 -3.546875 4.472656 -3.628906 4.671875 -3.796875 C 4.867188 -3.972656 4.96875 -4.21875 4.96875 -4.53125 Z M 4.96875 -4.53125" transform="translate(135.153 270.134)"/></g></g></g><g fill="#008037"><g><g><path d="M 0.640625 0 L 0.640625 -6.53125 L 2 -6.53125 L 2 0 Z M 0.640625 0" transform="translate(145.248 270.134)"/></g></g></g><g fill="#008037"><g><g><path d="M 3.6875 -0.984375 C 4.507812 -0.984375 5.082031 -1.398438 5.40625 -2.234375 L 6.59375 -1.78125 C 6.34375 -1.144531 5.96875 -0.671875 5.46875 -0.359375 C 4.976562 -0.0546875 4.382812 0.09375 3.6875 0.09375 C 2.632812 0.09375 1.820312 -0.203125 1.25 -0.796875 C 0.675781 -1.390625 0.390625 -2.222656 0.390625 -3.296875 C 0.390625 -4.367188 0.664062 -5.191406 1.21875 -5.765625 C 1.769531 -6.347656 2.570312 -6.640625 3.625 -6.640625 C 4.394531 -6.640625 5.019531 -6.484375 5.5 -6.171875 C 5.976562 -5.859375 6.316406 -5.40625 6.515625 -4.8125 L 5.3125 -4.484375 C 5.207031 -4.816406 5.003906 -5.078125 4.703125 -5.265625 C 4.410156 -5.460938 4.0625 -5.5625 3.65625 -5.5625 C 3.039062 -5.5625 2.570312 -5.367188 2.25 -4.984375 C 1.925781 -4.597656 1.765625 -4.035156 1.765625 -3.296875 C 1.765625 -2.546875 1.925781 -1.972656 2.25 -1.578125 C 2.582031 -1.179688 3.0625 -0.984375 3.6875 -0.984375 Z M 3.6875 -0.984375" transform="translate(151.125 270.134)"/></g></g></g><g fill="#008037"><g><g><path d="M 3.359375 0.09375 C 2.453125 0.09375 1.757812 -0.125 1.28125 -0.5625 C 0.8125 -1 0.578125 -1.628906 0.578125 -2.453125 L 0.578125 -6.53125 L 1.9375 -6.53125 L 1.9375 -2.5625 C 1.9375 -2.039062 2.054688 -1.644531 2.296875 -1.375 C 2.546875 -1.113281 2.910156 -0.984375 3.390625 -0.984375 C 3.878906 -0.984375 4.253906 -1.117188 4.515625 -1.390625 C 4.773438 -1.671875 4.90625 -2.078125 4.90625 -2.609375 L 4.90625 -6.53125 L 6.28125 -6.53125 L 6.28125 -2.515625 C 6.28125 -1.691406 6.023438 -1.050781 5.515625 -0.59375 C 5.003906 -0.132812 4.285156 0.09375 3.359375 0.09375 Z M 3.359375 0.09375" transform="translate(161.22 270.134)"/></g></g></g><g fill="#008037"><g><g><path d="M 0.640625 0 L 0.640625 -6.53125 L 2 -6.53125 L 2 -1.0625 L 5.515625 -1.0625 L 5.515625 0 Z M 0.640625 0" transform="translate(171.314 270.134)"/></g></g></g><g fill="#008037"><g><g><path d="M 3.578125 -5.484375 L 3.578125 0 L 2.21875 0 L 2.21875 -5.484375 L 0.109375 -5.484375 L 0.109375 -6.53125 L 5.703125 -6.53125 L 5.703125 -5.484375 Z M 3.578125 -5.484375" transform="translate(180.351 270.134)"/></g></g></g><g fill="#008037"><g><g><path d="M 3.359375 0.09375 C 2.453125 0.09375 1.757812 -0.125 1.28125 -0.5625 C 0.8125 -1 0.578125 -1.628906 0.578125 -2.453125 L 0.578125 -6.53125 L 1.9375 -6.53125 L 1.9375 -2.5625 C 1.9375 -2.039062 2.054688 -1.644531 2.296875 -1.375 C 2.546875 -1.113281 2.910156 -0.984375 3.390625 -0.984375 C 3.878906 -0.984375 4.253906 -1.117188 4.515625 -1.390625 C 4.773438 -1.671875 4.90625 -2.078125 4.90625 -2.609375 L 4.90625 -6.53125 L 6.28125 -6.53125 L 6.28125 -2.515625 C 6.28125 -1.691406 6.023438 -1.050781 5.515625 -0.59375 C 5.003906 -0.132812 4.285156 0.09375 3.359375 0.09375 Z M 3.359375 0.09375" transform="translate(189.389 270.134)"/></g></g></g><g fill="#008037"><g><g><path d="M 5.125 0 L 3.609375 -2.484375 L 2 -2.484375 L 2 0 L 0.640625 0 L 0.640625 -6.53125 L 3.90625 -6.53125 C 4.675781 -6.53125 5.273438 -6.363281 5.703125 -6.03125 C 6.128906 -5.695312 6.34375 -5.21875 6.34375 -4.59375 C 6.34375 -4.132812 6.210938 -3.738281 5.953125 -3.40625 C 5.691406 -3.070312 5.34375 -2.851562 4.90625 -2.75 L 6.671875 0 Z M 4.96875 -4.53125 C 4.96875 -5.15625 4.5625 -5.46875 3.75 -5.46875 L 2 -5.46875 L 2 -3.546875 L 3.796875 -3.546875 C 4.179688 -3.546875 4.472656 -3.628906 4.671875 -3.796875 C 4.867188 -3.972656 4.96875 -4.21875 4.96875 -4.53125 Z M 4.96875 -4.53125" transform="translate(199.483 270.134)"/></g></g></g><g fill="#008037"><g><g><path d="M 5.25 0 L 4.671875 -1.671875 L 2.1875 -1.671875 L 1.609375 0 L 0.234375 0 L 2.625 -6.53125 L 4.234375 -6.53125 L 6.609375 0 Z M 3.421875 -5.53125 L 3.40625 -5.421875 C 3.375 -5.316406 3.332031 -5.191406 3.28125 -5.046875 C 3.238281 -4.898438 2.972656 -4.117188 2.484375 -2.703125 L 4.375 -2.703125 L 3.71875 -4.578125 L 3.53125 -5.203125 Z M 3.421875 -5.53125" transform="translate(209.578 270.134)"/></g></g></g><g fill="#008037"><g><g><path d="M 0.640625 0 L 0.640625 -6.53125 L 2 -6.53125 L 2 -1.0625 L 5.515625 -1.0625 L 5.515625 0 Z M 0.640625 0" transform="translate(219.672 270.134)"/></g></g></g><g fill="#008037"><g><g><path d="M 0.640625 0 L 0.640625 -6.53125 L 2 -6.53125 L 2 -1.0625 L 5.515625 -1.0625 L 5.515625 0 Z M 0.640625 0" transform="translate(234.587 270.134)"/></g></g></g><g fill="#008037"><g><g><path d="M 5.25 0 L 4.671875 -1.671875 L 2.1875 -1.671875 L 1.609375 0 L 0.234375 0 L 2.625 -6.53125 L 4.234375 -6.53125 L 6.609375 0 Z M 3.421875 -5.53125 L 3.40625 -5.421875 C 3.375 -5.316406 3.332031 -5.191406 3.28125 -5.046875 C 3.238281 -4.898438 2.972656 -4.117188 2.484375 -2.703125 L 4.375 -2.703125 L 3.71875 -4.578125 L 3.53125 -5.203125 Z M 3.421875 -5.53125" transform="translate(243.625 270.134)"/></g></g></g><g fill="#008037"><g><g><path d="M 6.421875 -1.859375 C 6.421875 -1.265625 6.195312 -0.804688 5.75 -0.484375 C 5.3125 -0.160156 4.695312 0 3.90625 0 L 0.640625 0 L 0.640625 -6.53125 L 3.625 -6.53125 C 4.425781 -6.53125 5.03125 -6.390625 5.4375 -6.109375 C 5.84375 -5.835938 6.046875 -5.429688 6.046875 -4.890625 C 6.046875 -4.523438 5.941406 -4.210938 5.734375 -3.953125 C 5.535156 -3.703125 5.226562 -3.53125 4.8125 -3.4375 C 5.332031 -3.375 5.726562 -3.207031 6 -2.9375 C 6.28125 -2.664062 6.421875 -2.304688 6.421875 -1.859375 Z M 4.671875 -4.703125 C 4.671875 -5.003906 4.578125 -5.210938 4.390625 -5.328125 C 4.203125 -5.453125 3.925781 -5.515625 3.5625 -5.515625 L 2 -5.515625 L 2 -3.90625 L 3.578125 -3.90625 C 3.960938 -3.90625 4.238281 -3.972656 4.40625 -4.109375 C 4.582031 -4.242188 4.671875 -4.441406 4.671875 -4.703125 Z M 5.0625 -1.96875 C 5.0625 -2.582031 4.617188 -2.890625 3.734375 -2.890625 L 2 -2.890625 L 2 -1.015625 L 3.796875 -1.015625 C 4.234375 -1.015625 4.550781 -1.09375 4.75 -1.25 C 4.957031 -1.414062 5.0625 -1.65625 5.0625 -1.96875 Z M 5.0625 -1.96875" transform="translate(253.719 270.134)"/></g></g></g></svg>